<svg id="_圖層_2" data-name="圖層 2" xmlns="http://www.w3.org/2000/svg" viewBox="0 0 50.1 51.2">
    <defs>
        <style>
            .cls-1 {
            fill: #fff;
            }
        </style>
    </defs>
    <g id="_graphic_1-2">
        <path class="cls-1" d="M50.1,47.35v.83c0,1.67-1.36,3.03-3.03,3.03h-.78c-1.67,0-3.16-1.28-3.19-2.95-.02-1.12,.59-2.04,1.4-2.65,.49-.89,1.47-1.38,2.55-1.4,1.7-.02,3.05,1.45,3.05,3.15Z"/>
        <path class="cls-1" d="M26.1,45.2h-2c-1.7,0-3,1.3-3,3s1.3,3,3,3h2c1.7,0,3-1.3,3-3s-1.4-3-3-3Z"/>
        <path class="cls-1" d="M5.6,45.6c-.6-.9-1.5-1.4-2.6-1.4-1.7,0-3,1.3-3,3v1c0,1.7,1.3,3,3,3h1c1.7,0,3-1.3,3-3,0-1.1-.6-2.1-1.4-2.6Z"/>
        <path class="cls-1" d="M3,29.6c1.7,0,3-1.3,3-3v-2c0-1.7-1.3-3-3-3s-3,1.3-3,3v2c0,1.7,1.3,3,3,3Z"/>
        <path class="cls-1" d="M4,0h-1C1.3,0,0,1.3,0,3v1c0,1.7,1.3,3,3,3,1.1,0,2-.6,2.6-1.4,.8-.6,1.4-1.5,1.4-2.6,0-1.7-1.3-3-3-3Z"/>
        <path class="cls-1" d="M26.1,0h-2c-1.7,0-3,1.3-3,3s1.3,3,3,3h2c1.7,0,3-1.3,3-3s-1.3-3-3-3Z"/>
        <path class="cls-1" d="M47.07,0h-.78c-1.67,0-3.16,1.28-3.19,2.95-.02,1.12,.59,2.04,1.4,2.65,.49,.89,1.47,1.38,2.55,1.4,1.7,.02,3.05-1.45,3.05-3.15v-.83C50.1,1.36,48.74,0,47.07,0Z"/>
        <path class="cls-1" d="M47.03,21.5c-1.65,.03-2.93,1.49-2.93,3.14v1.72c0,1.65,1.28,3.11,2.93,3.14s3.07-1.28,3.07-3v-2c0-1.72-1.33-3.03-3.07-3Z"/>
    </g>
</svg>
