<svg xmlns="http://www.w3.org/2000/svg" xmlns:xlink="http://www.w3.org/1999/xlink" height="460.1"
     preserveAspectRatio="xMidYMid meet" version="1.0" viewBox="-5.8 -1.2 473.2 460.1" width="473.2"
     zoomAndPan="magnify">
    <g id="change1_1">
        <path d="M425.714,212.744l-0.138,0.343c-0.049,0.124-0.099,0.247-0.152,0.367l-0.059,0.154 c-0.161,0.416-0.301,0.831-0.44,1.246l-0.184,0.54c-0.441,1.273-0.879,2.546-1.316,3.819c-0.053,0.155-0.109,0.308-0.166,0.461 l-0.332,0.917l-0.547-0.441c-28.055-22.639-54.509-42.726-80.841-61.381c-0.146,0.896-0.577,1.712-1.23,2.29 c-0.923,0.815-2.229,1.109-3.671,0.829l-0.178-0.072c-3.906-2.55-8.187-2.57-12.718-2.591c-1.351-0.006-2.746-0.013-4.133-0.091 c-1.62,0.708-3.411,0.345-4.995,0.024c-0.324-0.066-0.645-0.131-0.959-0.186c-2.072,0.042-4.141-1.095-5.054-2.798 c-0.634-1.184-0.617-2.474,0.036-3.687c-2.969-1.23-6.327-0.908-9.581-0.594c-0.494,0.047-0.985,0.095-1.472,0.136 c-0.045,0.078-0.093,0.155-0.143,0.229c0.062,0.153,0.116,0.312,0.16,0.473c0.019,0.064,0.035,0.128,0.049,0.194 c1.912,0.406,3.382,2.008,3.632,4.016c0.247,1.979-0.764,3.666-2.637,4.402l-0.112,0.03c-7.908,1.116-16.077,0.77-23.978,0.434 c-3.835-0.163-7.797-0.306-11.67-0.328c-0.092,0-0.185,0-0.275,0c-10.714,0-20.894,2.592-29.461,7.504 c-0.763,0.479-1.597,0.93-2.404,1.367c-2.838,1.537-5.527,2.993-6.4,6.075c1.477,0.216,2.804,1.215,3.419,2.626 c0.589,1.349,0.41,2.781-0.47,3.898c0.835,1.657,0.958,3.029,0.362,4.082c-1.277,2.259-5.504,2.439-8.9,2.583 c-1.091,0.046-2.123,0.09-2.878,0.2c-2.917,0.275-5.81,0.932-8.607,1.567c-3.127,0.71-6.358,1.444-9.606,1.645 c-2.918,4.47-8.723,6.33-14.339,8.13c-3.322,1.065-6.467,2.073-9.014,3.57c0.241,1.071-0.005,2.135-0.708,3.039 c-0.316,0.673-0.855,1.26-1.567,1.704c-0.813,1.019-1.466,2.16-2.116,3.338c-2.31,8.136-3.884,16.167-4.68,23.877 c2.739,1.662,2.127,8.016,1.584,13.646c-0.217,2.248-0.421,4.371-0.317,5.618c-0.056,0.584-0.097,1.131-0.14,1.711 c-0.263,3.541-0.641,8.925-5.452,8.631c-1.256-0.093-2.38-0.719-3.144-1.668c-0.187,1.942-0.771,3.861-1.341,5.734 c-0.393,1.289-0.798,2.622-1.052,3.91c-0.288,0.924-0.541,1.81-0.793,2.696c-0.862,3.021-1.753,6.145-3.552,8.823 c0.554,7.138,0.661,18.941-4.444,20.588c0.006,0.977,0.026,1.951,0.054,2.927c1.501,0.052,2.365,0.733,2.836,1.331 c1.211,1.532,1.104,3.938,0.591,5.709c0.074,1.645,0.229,3.35,0.378,4.999c0.385,4.236,0.782,8.616-0.071,12.786 c1.2,6.707,2.768,13.388,4.145,19.043l0.242,0.7c1.062,3.078,2.799,8.117,0.017,10.044c5.817,7.827,11.859,15.728,17.971,23.499 c1.206-1.064,2.38-1.497,3.501-1.28c2.608,0.503,4.257,4.332,5.711,7.711c0.636,1.477,1.237,2.872,1.817,3.721l0.062,0.127 c0.311,0.948,0.912,2.003,1.549,3.119c1.669,2.928,3.562,6.246,0.771,8.909c-0.743,0.586-1.649,0.872-2.542,0.872 c-1.036,0-2.053-0.386-2.774-1.138C117.106,334.344,67.926,251.843,34.657,164.22c-2.451-8.225-2.271-13.121,0.54-15.003 c4.66-3.121,15.887,2.624,35.258,18.059c-16.51-28.168-35.121-60.832-49.863-94.811c-1.188-3.174-3.123-7.468-5.362-12.439 C6.848,41.419-5.818,13.302,2.984,3.513c3.925-4.365,11.747-4.664,23.249-0.887c22.9,8.629,43.896,21.988,64.202,34.908 c6.504,4.139,13.23,8.418,19.898,12.464c9.505,6.053,18.983,12.127,28.46,18.202c8.864,5.682,17.727,11.363,26.606,17.021 c-11.932-15.067-21.821-29-30.184-42.525l-0.064-0.16c-0.709-3.367-0.133-5.739,1.714-7.05c10.221-7.256,59.14,22.337,85.418,38.235 c7.86,4.756,13.54,8.192,15.575,9.077c43.752,26.066,100.816,61.37,154.684,103.604l0.001,0.001l1.36,1.074 c10.355,8.175,21.064,16.629,31.522,25.035L425.714,212.744z M113.278,29.4c0.795,0.241,1.593,0.359,2.376,0.359 c2.206,0,4.291-0.938,5.857-2.704c2.248-2.534,2.812-6.144,1.439-9.192c-2.258-5.167-8.844-11.685-15.05-13.15 c-3.131-0.739-5.852-0.189-8.091,1.637c-3.908,1.097-4.364,3.822-4.053,5.925C96.748,18.98,107.49,29.514,113.278,29.4z M34.842,139.044c2.389-4.966,1.496-11.916-2.034-15.822c-2.617-2.896-6.3-3.681-10.368-2.209l-0.029,0.011 c-5.3,2.297-6.993,8.197-6.319,13.024c0.79,5.663,4.458,9.74,9.379,10.39c0.253,0.016,0.503,0.023,0.75,0.023 C30.108,144.462,33.152,142.558,34.842,139.044z"
              fill="#FFA953"/>
    </g>
    <g id="change2_1">
        <path d="M288.522,181.937c-0.146,1.509-1.16,2.936-2.524,3.549c-1.238,0.557-2.568,0.389-3.747-0.468 c-2.206-1.67-4.403-3.339-6.602-5.009c-9.312-7.074-18.932-14.382-28.645-21.23c0.003,1.356-0.478,2.625-1.367,3.533 c-0.977,0.996-2.904,2.043-6.55,1.43c-2.745,0.943-4.594,1.154-6.084,1.324c-2.833,0.324-4.55,0.52-9.626,5.284 c-0.779,2.223-2.367,4.04-3.903,5.797c-0.824,0.942-1.674,1.915-2.367,2.921c-0.009,3.504-4.188,9.987-8.261,11.597 c-1.797,0.71-3.41,0.426-4.695-0.82c-2.75,2.103-5.825,3.631-8.803,5.11c-0.544,0.271-1.088,0.541-1.632,0.815 c-1.542,1.042-3.082,2.295-4.712,3.622c-4.123,3.354-8.384,6.822-13.677,7.289c-0.347,0.647-0.664,1.35-0.997,2.089 c-1.138,2.523-2.423,5.373-5.319,6.319c-0.551,2.708-1.096,5.615-1.664,8.876c-0.077,0.465-0.15,0.937-0.224,1.409 c-0.148,0.952-0.3,1.933-0.488,2.897c0.907,0.974,1.24,2.418,0.89,3.928c-0.609,3.173-1.104,6.361-1.582,9.445 c-1.049,6.762-2.04,13.15-4.171,19.559c0.033,0.993-0.313,1.917-1.004,2.679c-0.691,0.761-1.682,1.301-2.758,1.523 c6.031,8.062,11.584,16.106,9.829,19.722c-0.564,1.163-1.812,1.774-3.707,1.818l-0.08,0.002l-0.077-0.023 c-2.83-0.864-4.158-3.529-5.442-6.107c-0.797-1.6-1.621-3.254-2.787-4.406c-17.218-24.634-29.493-43.926-39.859-62.621 c-1.645-3.631-3.847-7.407-6.179-11.406c-5.021-8.612-10.214-17.517-10.5-26.02l-0.005-0.133l0.063-0.118 c1.236-2.328,2.939-3.8,5.062-4.375c5.232-1.415,12.083,2.825,17.587,6.231c0.996,0.617,1.963,1.215,2.869,1.748 c-12.458-15.501-23.679-34.236-35.178-58.704c-0.32-0.673-0.684-1.417-1.075-2.218c-3.751-7.685-10.031-20.548-5.837-26.524 c1.812-2.582,5.375-3.609,10.59-3.046c10.564,2.732,19.369,9.442,27.884,15.932c2.455,1.871,4.993,3.805,7.504,5.587 c11.544,8.64,22.885,17.896,33.853,26.848c5.027,4.103,10.201,8.325,15.368,12.468c-12.537-18.595-16.287-29.846-11.464-34.354 c11.728-10.965,73.178,26.413,90.551,40.293c6.933,5.123,13.938,10.424,20.712,15.55c3.064,2.32,6.13,4.64,9.2,6.953 C288.076,179.34,288.654,180.56,288.522,181.937z"
              fill="#F27F77"/>
    </g>
    <g id="change3_1">
        <path d="M450.977,373.421c-1.167,0.354-2.552,1.184-3.787,1.984c0.125,4.518,0.061,9.03,0.008,12.672 c-0.046,3.219-0.082,5.762,0.033,6.925c-0.063,1.34-0.106,2.635-0.149,3.947c-0.264,8.104-0.563,17.287-6.945,23.71 c-9.498,10.677-21.483,14.466-33.959,17.701c-3.754,1.278-7.596,2.708-11.312,4.09c-14.119,5.254-28.725,10.687-44.588,10.098 c-7.74,0.1-15.581-0.479-23.17-1.045c-1.496-0.111-2.993-0.223-4.489-0.329c-4.01-0.277-7.319-2.331-10.52-4.317 c-1.085-0.673-2.206-1.369-3.318-1.968c-0.76-0.56-1.613-1.011-2.518-1.488c-0.21-0.111-0.42-0.222-0.629-0.335 c-11.816,6.785-22.406,10.014-32.978,10.015c-1.276,0-2.551-0.048-3.829-0.141c-2.611-0.141-5.506-0.22-8.569-0.304 c-16.63-0.457-37.327-1.024-46.885-11.763c-4.033-3.795-8.273-7.597-12.373-11.273c-6.854-6.147-13.943-12.504-20.438-19.18 c-13.411-13.62-22.4-26.632-27.478-39.774c-8.621-25.303-8.442-51.974-7.38-81.709c1.352-15.837,8.046-28.717,18.861-36.325 c0.086-4.317,0.209-8.618,0.367-12.786c0.062-1.036,0.119-2.066,0.176-3.101c0.596-10.76,1.213-21.888,7.036-31.517 c8.04-12.698,23.145-17.931,37.753-22.992c2.096-0.726,4.178-1.447,6.222-2.185c0.001-1.43,0.35-3.023,0.956-4.335 c5.033-13.427,20.364-21.132,33.029-23.854c9.903-2.012,20.061-2.382,29.884-2.74c2.452-0.042,4.898-0.098,7.35-0.154 c13.664-0.312,27.796-0.635,41.462,1.668c17.922,3.677,34.54,11.455,50.611,18.978c2.188,1.025,4.373,2.047,6.556,3.058 c3.129,1.225,6.554,2.057,9.865,2.862c6.226,1.513,12.664,3.078,17.695,7.396c11.886,8.214,13.506,10.667,15.719,23.838 c0.342,1.441,1.512,6.629,2.071,12.146l1.287,1.028c1.841,1.475,3.889,2.925,5.868,4.327c7.249,5.135,14.743,10.443,16.126,19.229 c5.365,17.348,7.213,35.573,9,53.199c0.428,4.225,0.871,8.593,1.355,12.878c1.064,9.689,1.098,19.574,1.129,29.133 c0.007,2.111,0.014,4.224,0.031,6.335C467.351,360.514,462.117,369.643,450.977,373.421z"
              fill="#3E4677"/>
    </g>
    <g id="change4_1">
        <path d="M167.837,282.623c-0.555,0-1.105-0.103-1.61-0.312c-1.26-0.522-2.054-1.607-2.236-3.056 c-2.12-16.059-2.029-33.039,0.276-51.909c0.432-1.85,0.751-4.349,1.121-7.243c1.186-9.291,2.662-20.852,8.956-22.951 c2.013-0.27,3.666,0.747,4.312,2.567c0.648,1.827,0.018,3.793-1.532,4.85c-5.542,16.602-6.145,34.708-6.676,50.691 c-0.193,6.865,0.531,13.832,1.23,20.57l0.243,2.352c0.2,1.44-0.29,2.697-1.38,3.542 C169.781,282.312,168.804,282.623,167.837,282.623z M174.569,306.631c1.079-0.846,1.556-2.104,1.345-3.545l-0.027-0.106 c-0.439-1.149-0.395-2.706-0.351-4.212c0.084-2.927,0.18-6.245-3.541-7.047c-1.483-0.039-2.627,0.413-3.415,1.303 c-1.84,2.079-1.285,6.038-0.838,9.219c0.099,0.704,0.19,1.354,0.244,1.932c0.195,1.454,1.004,2.541,2.28,3.061 c0.501,0.204,1.046,0.303,1.594,0.303C172.833,307.537,173.813,307.224,174.569,306.631z M317.68,433.699l0.046,0.034 c4.716,3.027,9.958,5.309,15.028,7.515c2.035,0.886,4.14,1.802,6.183,2.754c0.478,0.209,0.998,0.312,1.525,0.312 c0.51,0,1.024-0.097,1.511-0.292c1-0.401,1.807-1.185,2.21-2.147c0.854-2.017-0.1-4.367-2.126-5.24 c-5.769-2.479-11.535-5.128-17.104-7.85c-0.208-0.124-0.421-0.257-0.639-0.392c-2.158-1.339-5.114-3.173-7.348-0.296 C315.633,429.821,315.945,432.282,317.68,433.699z M340.491,423.635c-0.933,0.23-1.693,0.83-2.262,1.782 c-0.59,0.854-0.751,1.751-0.479,2.664c1.032,3.458,8.241,6.354,14.033,8.683c2.449,0.984,4.564,1.835,5.629,2.522 c0.549,0.24,1.098,0.359,1.631,0.359c0.761,0,1.489-0.243,2.135-0.724c1.211-0.903,1.898-2.518,1.712-4.019 c-0.17-1.366-1.008-2.427-2.349-2.983c-4.464-1.965-9.524-4.191-14.3-6.562C344.441,424.249,342.353,423.18,340.491,423.635z M401.611,195.966l-0.058-0.028c-1.153-0.48-3.129-1.737-5.417-3.193c-5.885-3.743-13.206-8.398-17.142-7.197 c-0.995,0.304-1.72,0.963-2.156,1.966c-0.444,1.06-0.458,2.064-0.04,2.986c0.789,1.739,2.941,2.767,4.551,3.299 c5.686,2.723,11.156,5.968,16.223,9.071c0.661,0.399,1.349,0.6,2.027,0.6c0.599,0,1.19-0.156,1.749-0.469 c1.315-0.736,2.205-2.248,2.215-3.761C403.572,197.86,402.879,196.698,401.611,195.966z M360.512,449.901 c-1.242,0.004-2.486,0.012-3.732,0.021c-9.953,0.066-20.245,0.134-29.996-2.296c-4.879-1.345-11.126-3.3-16.511-6.567 c0.7-1.221,0.739-2.529,0.098-3.931c-0.542-0.924-1.473-1.605-2.555-1.87c-1.034-0.25-2.077-0.095-2.966,0.467 c-20.882,15.553-38.824,15.445-61.871,13.598c-1.858-0.234-3.78-0.354-5.639-0.468c-5.714-0.354-11.622-0.719-16.282-4.551 c-15.535-10.988-27.808-22.223-37.515-34.343c-0.185-1.807-1.482-3.292-3.273-3.724c-1.747-0.419-3.412,0.288-4.356,1.872 c-2.851,5.33,9.522,16.951,21.343,27.425c1.887,1.672,3.376,2.992,4.311,3.903c19.625,17.142,25.316,17.358,46.492,18.165 c2.188,0.083,4.544,0.173,7.095,0.287c18.499,1.059,33.043-2.046,44.515-9.54c0.86-0.787,2.311-1.554,3.862-2.36 c1.982,2.188,5.164,3.504,7.986,4.671c1.222,0.506,2.377,0.983,3.421,1.521c9.511,3.906,20.748,5.785,34.469,5.726 c1.127-0.187,2.789-0.067,4.548,0.06c1.196,0.086,2.47,0.178,3.703,0.178c3.437,0,6.564-0.712,6.858-4.241 c0-1.061-0.449-2.109-1.233-2.875C362.52,450.28,361.543,449.881,360.512,449.901z M180.915,388.222c0.156,0,0.315-0.01,0.476-0.03 c1.514-0.188,2.919-1.267,3.498-2.684c0.521-1.276,0.307-2.607-0.601-3.749l-0.051-0.055c-1.053-0.979-2.068-2.97-3.142-5.076 c-2.117-4.152-4.517-8.857-8.281-7.284c-1.165,0.623-1.888,1.504-2.149,2.619c-0.728,3.108,2.339,7.411,4.803,10.868 c1.02,1.43,1.982,2.78,2.486,3.813C178.712,387.673,179.75,388.222,180.915,388.222z M192.287,388.377 c0.729,1.263,1.881,1.957,3.247,1.957c0.006,0,0.013,0,0.019,0c1.503-0.008,3.01-0.893,3.75-2.203 c0.675-1.196,0.636-2.544-0.111-3.795l-0.058-0.079c-0.848-0.941-1.512-2.46-2.215-4.068c-1.29-2.95-2.624-6.001-5.414-6.062 l-0.052-0.001l-0.051,0.01c-1.833,0.342-3.032,1.12-3.562,2.313c-1.182,2.66,1.229,6.592,3.166,9.75 C191.497,386.999,191.96,387.755,192.287,388.377z M331.154,317.455c1.495,0.781,2.998,1.171,4.449,1.171 c1.715,0,3.357-0.544,4.833-1.626c3.244-2.382,5.068-7.053,4.336-11.107c-0.631-3.489-2.964-5.973-6.51-6.971 c-2.989-1.294-5.977-1.004-8.41,0.817c-2.963,2.219-4.694,6.495-4.21,10.397C326.064,313.539,328.022,316.137,331.154,317.455z M387.63,286.234c-1.257-1.271-2.818-2.075-4.711-2.396c-0.472-0.011-0.956,0.016-1.465,0.094c-2.801-0.439-5.866,1.739-7.456,5.246 c-1.94,2.995-2.805,7.746,1.146,11.279c0.875,0.795,1.824,1.413,2.767,1.811l0.116,0.067c0.184,0.108,0.367,0.215,0.58,0.322 c1.448,0.668,2.822,0.964,4.101,0.964c3.7,0,6.586-2.483,8.064-5.589C392.729,293.924,392.27,288.569,387.63,286.234z"
              fill="#010F29"/>
    </g>
    <g id="change5_1">
        <path d="M383.069,358.455c-1.792,1.987-4.034,2.995-6.664,2.996c-0.002,0-0.004,0-0.006,0 c-1.666,0-3.518-0.412-5.504-1.224c-12.383-7.918-18.663-23.157-22.317-33.935l-0.148-0.438l0.425-0.183 c0.385-0.164,0.771-0.326,1.158-0.488l2.091-0.879c1.132-0.467,2.271-0.921,3.412-1.367l0.573-0.225l0.003,0.018 c0.796-0.311,1.591-0.621,2.39-0.924c0.791-0.298,1.531-0.576,2.271-0.852l0.074-0.033l17.433-6.44 c1.661-0.611,3.329-1.202,5.001-1.787l0.296-0.104l0.005,0.004l0.957-0.337l0.183,0.432c0.061,0.145,0.111,0.293,0.154,0.444 c0.071,0.299,0.108,0.583,0.115,0.875c1.339,1.951,1.719,5.155,2.056,7.99c0.206,1.736,0.401,3.377,0.783,4.452l0.026,0.116 C388.414,332.169,389.777,351.017,383.069,358.455z"
              fill="#A16B9F"/>
    </g>
</svg>