<svg xmlns="http://www.w3.org/2000/svg" xmlns:xlink="http://www.w3.org/1999/xlink" preserveAspectRatio="xMidYMid meet"
     version="1.0" viewBox="-0.2 -9.9 420.0 489.0" zoomAndPan="magnify" style="fill: rgb(0, 0, 0);"
>
    <g id="__id735_s7cw1mvta">
        <path d="M385.941,190.206c-2.254,40.57-19.926,76.187-51.105,102.985c-28.376,24.389-65.627,39.302-104.927,42.017 c-1.207,7.731-4.913,17.251-11.798,21.245c-3.862,2.239-8.201,2.438-12.894,0.596c-6.259-2.874-11.454-9.042-14.378-17.014 c-2.964,3.941-6.044,6.891-9.166,8.775c-3.251,2.969-6.311,4.724-9.097,5.218c-4.345,4.739-7.914,6.415-10.622,4.978 c-0.941,1.456-2.544,2.537-4.055,2.691c-0.13,0.014-0.259,0.02-0.385,0.02c-1.043,0-1.959-0.449-2.667-1.315 c-0.468-0.543-0.775-1.081-0.93-1.635c-0.057-0.2-0.098-0.409-0.123-0.63c-1.041,0.936-2.328,1.535-3.572,1.631 c-1.228,0.09-2.343-0.311-3.22-1.169c-1.907-2.029-1.286-4.877-0.786-7.166c0.021-0.097,0.042-0.192,0.062-0.288 c-0.042,0.002-0.084,0.003-0.126,0.003c-2.692,4.834-6.026,6.01-8.021,5.037c-1.944-0.949-2.981-3.997-1.156-8.75 c-0.07,0.012-0.14,0.022-0.209,0.032c-1.011,0.74-2.361,0.947-3.646,0.558c-1.313-0.399-2.33-1.365-2.719-2.584 c-0.087-0.538-0.167-0.999-0.248-1.461c-0.28-1.608-0.57-3.268-0.39-4.961c-0.921-0.528-1.554-1.503-1.804-2.752 c-0.727,0.694-1.621,1.161-2.508,1.283c-0.742,0.102-1.443-0.039-2.064-0.406c-1.789,3.652-4.75,4.911-6.858,4.232 c-1.805-0.579-3.406-2.674-2.632-6.825c-0.512-0.205-0.996-0.517-1.37-0.889c-0.086-0.085-0.169-0.178-0.25-0.277 c-0.797,1.149-2.077,1.989-3.45,2.221c-1.209,0.207-2.344-0.076-3.25-0.791c-1.375,1.77-3.419,2.594-5.239,2.071 c-1.656-0.478-2.714-1.945-2.895-3.975c-1.115,0.005-2.038-0.341-2.741-1.055c-1.544-1.568-1.491-4.321-1.356-5.659 c-1.46,0.734-3.312,0.497-4.595-0.666c-1.375-0.11-2.458-0.628-3.221-1.54c-1.967-2.351-1.408-6.799-0.959-10.373 c0.138-1.102,0.269-2.143,0.299-2.951c-0.021-0.714-0.052-1.521-0.083-2.37c-0.016-0.442-0.033-0.897-0.05-1.361 c-0.753,0.545-1.587,0.847-2.454,0.842c-0.904-0.009-1.715-0.374-2.356-1.06c-0.686-0.131-1.322-0.465-1.806-0.952 c-0.283-0.279-0.51-0.539-0.695-0.794c-0.084,0.027-0.169,0.054-0.252,0.079c-0.329,0.102-0.646,0.185-0.997,0.147 c-0.828,1.604-2.637,2.81-4.439,2.917c-1.419,0.086-2.61-0.491-3.383-1.634c-1.288,0.174-2.422-0.176-3.294-1.027 c-1.159-1.131-1.754-3.124-1.555-5.094c-0.312-0.032-0.606-0.086-0.887-0.14c-0.875-0.172-1.607-0.807-2.001-1.214 c-0.209-0.104-0.417-0.218-0.625-0.344c-0.859,0.466-1.866,0.591-2.753,0.332c-0.661-0.193-1.567-0.688-2.129-1.945 c-4.728-9.629-5.968-17.466-3.896-24.648c0.017-0.065,0.035-0.133,0.053-0.2c-0.489,0.029-1.002,0.045-1.375,0.022 c-8.178-0.068-16.83-5.385-21.012-12.928c-3.435-6.193-3.401-12.746,0.093-18.449c3.487-6.067,9.9-11.318,16.45-13.5 c-20.606-48.186-9.907-98.963,30.158-143.044c28.429-30.757,65.652-52.206,104.814-60.396c14.606-3.26,29.708-4.298,44.873-3.087 c1.365,0.328,3.002,0.421,4.734,0.521c3.235,0.185,6.576,0.376,8.531,2.017c0.64-0.33,1.386-0.436,2.1-0.292 c2.288,0.483,4.579,0.939,6.871,1.395c4.38,0.872,8.909,1.774,13.324,2.851c24.186,5.153,44.514,14.048,60.404,26.437l0.004,0.003 c20.665,16.426,37.626,37.141,49.048,59.905C382.653,138.291,388.064,164.762,385.941,190.206z"
              style="fill: rgb(248, 205, 232);"/>
    </g>
    <g id="__id736_s7cw1mvta">
        <path d="M387.855,155.403c-0.005-0.221-0.009-0.443-0.017-0.664l-0.02-0.597c-0.014-0.475-0.027-0.949-0.056-1.422 c-0.039-0.679-0.078-1.357-0.114-2.054l-0.023-0.264l-0.498,0.045l0.488-0.168l-0.004-0.504h-0.108 c-0.07-0.968-0.145-1.936-0.222-2.903l-0.017-0.163c-0.048-0.409-0.106-0.815-0.165-1.222l-0.083-0.586 c-0.046-0.327-0.097-0.654-0.148-0.979c-0.13-0.83-0.253-1.614-0.284-2.493c0.007-0.051,0.026-0.104,0.061-0.16l0.091-0.149 l-0.2-1.592c-0.025-0.213-0.055-0.424-0.083-0.636l0.041,0.062l-0.337-2.054l-0.037-0.672h-0.08l-0.005-0.031 c-0.055-0.298-0.108-0.597-0.167-0.901c-0.047-0.228-0.093-0.456-0.136-0.685l-0.039-0.202c-0.059-0.295-0.113-0.573-0.107-0.9 l0.107-0.165l-0.033-0.194c-0.13-0.748-0.263-1.496-0.402-2.255c-0.057-0.274-0.114-0.552-0.17-0.914 c-1.562-8.172-3.516-15.322-5.966-21.84c-3.683-11.14-10.082-22.029-20.118-34.243c-0.358-0.502-0.854-0.886-1.442-1.117 c-7.065-9.214-15.628-17.794-25.448-25.501c-13.094-10.535-30.741-23.649-51.118-31.597C245.821-1.86,193.747-9.947,153.097,19.963 c-7.037,4.776-13.937,11.144-21.045,19.417c-9.786,8.615-14.319,17.416-13.108,25.453c1.15,7.636,7.386,14.051,18.579,19.084 c13.161,4.439,22.664-5.16,29.544-14.488c2.275,15.143,10.219,48.879,36.644,63.035c10.864,5.028,21.567,1.63,31.826-10.093 c0.035,0.263,0.071,0.528,0.11,0.795c7.065,40.526,22.574,67.347,46.104,79.721c3.916,1.955,7.927,2.932,12.001,2.932 c3.59,0,7.229-0.759,10.895-2.279c13.544-5.614,23.558-19.972,27.477-31.718c1.128-3.523,1.952-7.298,2.507-11.5 c7.748,11.214,15.88,18.055,24.894,20.918c1.755,0.386,3.473,0.582,5.104,0.582c14.486,0,20.607-14.861,22.979-23.778l0.078-0.587 c0.046-0.33,0.077-0.664,0.107-0.997l0.07-0.702L387.855,155.403z M385.901,138.53l0.232-0.117l0.05,0.075L385.901,138.53z"
              style="fill: rgb(161, 107, 159);"/>
    </g>
    <g id="__id737_s7cw1mvta">
        <path d="M412.518,314.58c-5.604,10.93-18.661,16.472-38.805,16.474h-0.133c-2.835,0-5.883-0.119-9.061-0.353 c-65.514-5.96-123.155-40.709-178.899-74.314c-3.565-2.148-7.119-4.292-10.665-6.42c-2.582-1.656-5.413-3.457-8.466-5.399 c-25.433-16.179-67.999-43.257-101.797-73.29C23.822,134.962,6.178,103.532,12.25,77.86c11.252-33.755,48.19-28.919,74.996-22.351 c5.923,1.492,11.876,3.112,16.92,4.5l0.899,0.247l-0.704,0.612c-1.079,0.938-2.498,2.184-3.902,3.489l-0.523,0.48 c-0.362,0.279-0.682,0.525-0.994,0.78l-0.705,0.566c-0.938,0.758-1.875,1.514-2.788,2.303c-0.795,0.686-1.582,1.371-2.361,2.068 l-1.01,0.856c-0.539,0.456-1.065,0.927-1.59,1.396l-0.38,0.34c-0.191,0.171-0.383,0.343-0.577,0.511 c-0.345,0.311-0.698,0.625-1.055,0.938l-0.231,0.213c-0.157,0.15-0.311,0.303-0.464,0.457l-2.227,2.146 c-0.129,0.123-0.258,0.247-0.383,0.374l-0.204,0.207l-0.281-0.074c-2.96-0.781-6.15-1.602-9.423-2.307 c-1.075-0.154-2.332-0.36-3.699-0.583c-10.884-1.78-29.101-4.758-33.65,5.278c-0.693,2.908-0.345,6.318,1.012,9.522 c1.138,1.52,2.197,3.172,3.222,4.771l0.444,0.692c0.176,0.175,0.355,0.342,0.537,0.504l0.097,0.116l1.077,1.771 c0.206,0.336,0.426,0.665,0.646,0.993l0.326,0.489c0.197,0.298,0.396,0.598,0.603,0.892l-0.311,0.423l0.404-0.295l0.378,0.531 c0.235,0.333,0.47,0.667,0.727,0.981l1.143,1.396c0.147,0.179,0.308,0.348,0.468,0.517l0.359,0.386 c0.104,0.114,0.207,0.227,0.317,0.334l0.373,0.381c47.622,58.177,108.887,107.465,182.123,146.528 c21.879,11.71,40.484,21.068,60.18,28.678c9.18,3.695,18.713,6.944,27.932,10.086c3.485,1.188,6.97,2.376,10.443,3.589 c0.628,0.154,1.176,0.473,1.6,0.937c6.516,1.546,13.662,2.768,21.841,3.734c8.411,0.924,17.451,1.747,26.485,1.477 c6.09-0.125,9.541-1.197,10.864-3.376c1.091-1.796,0.752-4.516-1.009-8.082c-3.566-6.874-8.721-12.895-13.705-18.717 c-1.236-1.443-2.471-2.885-3.68-4.337c-2.928-3.305-5.872-6.608-8.824-9.9l-0.238-0.266l0.173-0.312 c0.031-0.056,0.062-0.104,0.1-0.154l0.552-0.855c0.604-0.933,1.207-1.865,1.791-2.808c0.286-0.464,0.573-0.933,0.848-1.406 l0.024-0.036c0.812-1.386,1.624-2.771,2.429-4.161c0.313-0.541,0.633-1.076,0.951-1.612c0.353-0.591,0.704-1.182,1.049-1.778 l0.377-0.651c0.241-0.413,0.482-0.827,0.709-1.249l1.789-3.433c0.116-0.245,0.232-0.49,0.351-0.73 c0.205-0.417,0.398-0.839,0.592-1.264l0.112-0.248l0.27-0.04c1.051-0.156,2.051,0.192,2.815,0.983 c5.335,4.375,10.269,9.501,14.627,15.201c0.816,0.228,1.483,0.765,1.939,1.564C413.533,277.54,419.83,300.322,412.518,314.58z M216.022,50.402l0.032,0.005c0.385,0.049,0.751,0.074,1.096,0.074c1.466,0,2.562-0.448,3.268-1.338 c2.177-2.75-0.132-8.896-1.512-12.568c-0.14-0.374-0.27-0.717-0.391-1.048c-0.298-0.695-0.569-1.484-0.857-2.32 c-1.101-3.203-2.35-6.833-5.975-7.522c-1.728-0.081-3.35,1.23-3.751,3.03c-0.915,0.879-1.015,2.915-0.294,6.057 C208.965,40.557,213.248,49.861,216.022,50.402z M235.891,79.643c1.142,1.474,2.292,1.962,3.316,1.962 c0.74,0,1.414-0.254,1.971-0.577c4.708-2.726,8.553-14.756,7.326-18.233c0.132-1.792-1.096-3.023-2.396-3.456 c-1.352-0.449-3.148-0.171-4.146,1.515c-0.628,1.429-1.409,2.875-2.235,4.406c-2.448,4.533-4.979,9.22-3.93,14.18L235.891,79.643z M276.692,59.382l0.031,0.003l0.03,0c1.438-0.032,2.542-0.598,3.196-1.636c1.187-1.885,0.686-5.047-0.286-7.196 c-0.342-0.722-0.644-1.519-0.963-2.363c-0.915-2.419-1.95-5.154-4.238-6.476c-0.813-1.606-2.524-2.044-3.894-1.757 c-1.405,0.295-2.831,1.44-2.846,3.389C268.125,47.274,271.835,58.891,276.692,59.382z M282.973,85.533 c0.187,1.116,0.706,1.943,1.544,2.459c0.733,0.451,1.653,0.632,2.685,0.632c2.279,0,5.107-0.883,7.697-1.692 c1.633-0.509,3.174-0.991,4.184-1.086c3.047-0.527,4.806-2.985,4.747-5.057c-0.057-1.991-1.595-3.354-4.146-3.647 c-3.174-0.156-12.934,1.925-14.896,4.951c-1.22,0.672-1.946,2.021-1.819,3.404L282.973,85.533z M326.758,119.23 c0.784,0.856,1.888,1.308,2.987,1.308c0.777,0,1.553-0.225,2.212-0.692c2.625-2.203,1.972-5.823,1.447-8.732 c-0.109-0.603-0.215-1.187-0.301-1.799c-0.144-0.535-0.271-1.145-0.406-1.789c-0.662-3.161-1.567-7.479-5.522-7.479 c-0.008,0-0.016,0-0.023,0c-2.387-0.798-3.58,0.042-4.165,0.895c-2.643,3.858,1.801,15.966,3.76,18.274L326.758,119.23z M338.418,75.477c1.391,0.417,2.592,0.776,3.354,1.086l0.082,0.026c0.23,0.05,0.463,0.074,0.694,0.074 c1.11,0,2.205-0.557,2.921-1.525c0.843-1.138,0.961-2.566,0.291-3.761c-2.017-3.035-9.898-6.36-13.638-5.792 c-1.047-0.564-2.358-0.471-3.463,0.255c-1.149,0.755-1.746,1.998-1.561,3.206C327.345,72.161,333.745,74.077,338.418,75.477z M303.648,45.511c0.629,1.233,1.784,1.936,3.112,1.936c0.231,0,0.47-0.021,0.71-0.065c1.703-0.31,2.974-1.641,3.159-3.305 c0.016-0.128,1.345-12.753-2.244-14.637c-0.479-0.969-1.431-1.636-2.583-1.801c-1.239-0.176-2.462,0.28-3.252,1.272 c-1.934,3.666-0.401,12.803,1.078,16.557L303.648,45.511z M195.166,344.289c-1.409-2.438-2.604-4.973-3.553-7.533l-0.321-0.867 l-0.549,0.744c-1.305,1.765-2.763,3.47-4.335,5.067c-3.551,3.614-7.883,6.311-12.526,7.796c-4.482,1.432-9.437,1.344-14.095-0.231 c-3.948-1.332-7.608-4.105-10.881-8.243c-1.487-1.875-2.663-3.938-3.739-5.892c-1.113-2.02-2.136-4.248-3.316-7.222 c-0.132-0.338-0.26-0.672-0.401-1.044l-0.429-0.975c-1.229-2.873-2.023-5.888-2.361-8.96l-0.137-1.241l-0.758,0.992 c-3.1,4.058-6.611,7.366-10.436,9.833c-4.009,2.583-8.662,4.141-13.457,4.504c-2.306,0.189-4.739-0.125-7.342-0.87 c-2.234-0.634-4.417-1.726-6.489-3.242c-3.208-2.354-5.917-5.978-8.05-10.772c-1.895-4.264-3.026-9.135-3.364-14.477 c-0.138-2.183-0.047-4.498,0.278-7.078c0.17-1.348,0.378-2.678,0.62-3.954l0.285-1.506l-1.118,1.048 c-0.63,0.591-1.268,1.148-1.896,1.657c-3.888,3.167-8.525,5.101-13.059,5.444c-4.655,0.363-9.159-0.966-12.918-3.736 c-3.093-2.278-5.392-5.616-6.647-9.652l-0.048-0.107c-0.852-1.43-1.534-3.139-2.027-5.082l-0.421-1.66l-0.538,1.626 c-1.476,4.461-2.963,8.919-4.451,13.377c-6.87,20.593-13.974,41.887-19.788,63.199c-5.211,19.026-9.503,38.608-13.653,57.546 c-1.445,6.594-2.891,13.188-4.375,19.771c-0.982,4.256-2.033,8.571-3.049,12.744c-1.176,4.831-2.392,9.826-3.51,14.761 c-1.334,1.839-2.048,5.138-1.917,8.871l-0.039,0.192c-0.101,0.499-0.201,0.996-0.297,1.49c-0.219,1.066,0.179,2.214,1.041,3.031 c0.479,1.631,1.17,2.788,1.955,3.316c1.598,1.404,3.597,2.116,5.939,2.116h0.02c8.714,0,20.872-9.605,30.64-17.323 c4.243-3.352,7.907-6.247,10.595-7.794c26.679-19.729,47.138-34.597,66.338-48.211c16.543-11.882,33.846-23.264,50.579-34.271 c10.357-6.812,21.066-13.856,31.489-20.95l0.431-0.293l-0.31-0.418C197.528,348.128,196.313,346.27,195.166,344.289z"
              style="fill: rgb(255, 169, 83);"/>
    </g>
    <g id="__id738_s7cw1mvta">
        <path d="M136.596,156.378c-0.419-1.518,0.091-3.267,1.269-4.354c3.792-4.161,10.402-6.033,16.418-4.634 c5.214,1.215,8.99,4.622,10.358,9.347c0.885,2.533,1.171,5.253,1.448,7.885l0.08,0.755c0.091,1.287-0.409,2.354-1.406,3.021 c-0.616,0.412-1.37,0.623-2.121,0.623c-0.58,0-1.157-0.125-1.669-0.38c-1.082-0.538-1.718-1.54-1.792-2.822l-0.001-0.028 c-0.008-4.806-1.491-8.657-4.067-10.565c-2.051-1.52-4.714-1.799-7.912-0.831c-1.285,0.367-2.884,0.939-3.981,2.134 c-0.577,1.631-2.283,2.599-4.024,2.259C137.889,158.516,136.944,157.637,136.596,156.378z M218.697,192.403 c-0.041-0.634-0.081-1.234-0.078-1.782c-0.179-3.464-0.799-8.438-4.087-11.612c-3.153-3.305-9.645-3.923-14.421-2.823 c-4.353,1-7.401,3.292-8.362,6.288l-0.022,0.116c-0.14,1.891,1.337,3.61,3.203,3.752c1.45,0.18,2.317-0.66,3.082-1.401 c0.523-0.506,1.017-0.985,1.692-1.161c4.601-1.431,7.715-1.492,9.521-0.19c2.138,1.542,2.202,4.876,2.265,8.101 c0.068,3.559,0.14,7.239,3.422,7.797l0.08,0.007c0.016,0,0.031,0,0.046,0c1.131,0,2.02-0.334,2.644-0.995 C219.006,197.095,218.842,194.603,218.697,192.403z M173.624,181.272c-2.985-2.336-6.583-2.824-9.871-1.341 c-3.224,1.455-5.517,4.591-5.706,7.803c-0.181,3.076,1.503,5.844,4.742,7.799c1.7,1.229,3.407,1.748,5.011,1.748 c2.669,0,5.054-1.438,6.64-3.438C177.216,190.346,177.832,184.91,173.624,181.272z M105.594,419.537l-0.01-0.038l-0.14,0.037 l-0.477-0.46l-0.418,0.424l0.314,1.169l0.822-0.9l-0.208-0.2L105.594,419.537z M164.423,312.642l-0.207-0.391l-0.878,0.478 l0.138,0.266c0.028,0.057,0.058,0.113,0.092,0.164L164.423,312.642z M166.821,350.31l1.792,0.139l-1.607,0.807 c-8.373,4.202-16.653,8.378-24.889,12.558c1.047,3.162,2.091,6.363,3.148,9.647c1.067,3.31,2.099,6.656,3.054,9.779l0.105,0.343 l-0.478,0.343c-1.446,1.024-2.839,2.021-4.23,3.019l0.002,0.003l-1.334,0.911l-0.521-1.691c-1.956-6.343-3.937-12.758-6.031-19.163 c-11.139,5.683-22.168,11.393-33.096,17.22c-0.486,0.258-0.983,0.525-1.473,0.785c4.088,11.626,6.679,19.829,8.297,25.366 l0.097,0.332l-1.361,1.025l0.001,0.002c-0.511,0.386-1.026,0.767-1.542,1.147c-0.911,0.673-1.823,1.347-2.711,2.049l-0.589,0.465 l-0.22-0.709c-2.471-8.841-5.234-17.624-8.197-26.351c-9.363,5.019-19.265,10.408-29.453,16.138c1.972,5.4,3.948,10.95,5.936,16.704 c1.754,5.132,3.161,9.37,4.426,13.34l0.104,0.325l-0.266,0.215c-0.843,0.682-1.687,1.359-2.536,2.037h0.028l-0.154,0.1 c-0.03,0.024-0.061,0.049-0.091,0.072c-0.387,0.253-0.739,0.477-1.092,0.696l-0.097,0.129l-0.112,0.002 c-0.028,0.017-0.057,0.036-0.086,0.053l-0.001-0.002c-0.362,0.228-0.727,0.452-1.092,0.677l-0.546,0.336l-0.193-0.611 c-0.048-0.151-0.097-0.299-0.144-0.45h-0.2l0.173-0.086c-3.263-10.3-6.655-20.304-10.189-30.064 c-8.561,4.879-17.276,9.988-25.995,15.305c3.082,8.28,5.709,16.693,8.292,24.98c0.937,3.142,1.863,6.281,2.778,9.423l0.097,0.331 l-0.276,0.208c-1.503,1.133-3.019,2.248-4.535,3.364l-1.237,0.911l-0.513-1.776c-3.238-11.209-6.54-22.628-10.657-33.715 c-0.948,0.589-1.897,1.175-2.844,1.769c-2.125,1.347-4.264,2.68-6.403,4.014c-3.167,1.974-6.442,4.015-9.622,6.076l-0.978,0.634 l0.255-1.349c0.319-1.572,0.663-3.139,1.006-4.705l0.218-0.993c0.153-0.688,0.299-1.378,0.445-2.064l0.077-0.364l0.129-0.11 c0.08-0.068,0.144-0.122,0.198-0.177l0.085-0.068c4.9-3.123,9.857-6.216,14.846-9.285c-2.68-6.546-5.698-12.937-9.235-19.048 l-0.099-0.171l0.045-0.192c0.341-1.466,0.695-2.926,1.045-4.389l-0.012,0.009l0.321-1.335c0.453-1.882,0.906-3.764,1.351-5.65h0 c0.246-1.033,0.483-2.065,0.713-3.103l0.039-0.176l0.143-0.111c0.329-0.255,0.599-0.487,0.8-0.688 c7.417-5.284,15.259-10.535,24.215-16.214c-4.053-9.383-8.282-18.573-12.708-27.617c-0.059-0.008-0.129-0.005-0.185-0.016 l-0.564-0.104l0.181-0.544c0.352-1.06,0.708-2.118,1.063-3.178c0.057-0.167,0.117-0.333,0.174-0.5 c0.252-0.74,0.524-1.522,0.824-2.364c0.075-0.211,0.145-0.423,0.221-0.633l0.063-0.179l0.007-0.004c0.176-0.49,0.36-1,0.557-1.539 l0.393-1.076l0.522,1.019c0.096,0.186,0.19,0.377,0.285,0.563c0.694-0.43,1.38-0.872,2.051-1.31 c0.591-0.387,1.181-0.772,1.776-1.146c9.251-6.098,18-11.805,26.743-17.166c-1.26-2.954-2.52-5.903-3.776-8.841l-1.414-3.332 c-0.247-1.173-1.323-3.118-2.463-5.178c-2.057-3.717-4.389-7.93-3.613-10.518l0.34-1.136l0.81,1.462 c1.782,3.219,3.875,5.685,6.221,7.33c0.434,0.309,0.897,0.6,1.38,0.866c0.804,0.596,1.57,1.096,2.335,1.524l0.14,0.079l0.068,0.146 c0.713,1.527,1.41,3.067,2.083,4.614c1.363,3.15,2.687,6.237,3.995,9.299c4.216-2.499,8.454-4.925,12.775-7.264 c1.146-0.635,2.295-1.268,3.444-1.899l0.699-0.384l0.041,0.797c0.033,0.64,0.069,1.279,0.13,1.913l0.023,0.246 c0.072,0.775,0.146,1.577,0.28,2.34c0.108,0.617,0.221,1.23,0.343,1.843l0.072,0.36l-0.322,0.176 c-1.648,0.901-3.282,1.802-4.897,2.696c-3.217,1.783-6.468,3.65-9.836,5.65c4.117,9.736,7.978,19.087,11.639,28.2 c8.283-4.528,16.841-9.008,25.793-13.481l0.193-0.052c0.634-0.039,1.268-0.074,1.906-0.109c0.411-0.021,0.819-0.075,1.226-0.129 l0.564-0.072c1.073-0.122,2.149-0.312,3.199-0.563c0.804-0.192,1.597-0.421,2.376-0.682l0.09-0.032 c0.732-0.248,1.449-0.528,2.149-0.834c0.034-0.015,0.07-0.029,0.104-0.043c1.265-0.557,2.358-1.132,3.344-1.758l0.449-0.285 l0.001,0.003l0.001-0.001l0.256,0.466c0.01,0.019,0.02,0.038,0.03,0.057c0.157,0.286,0.312,0.569,0.466,0.855 c0.029,0.06,0.055,0.122,0.083,0.182c0.292,0.546,0.587,1.09,0.87,1.643l0.005-0.002l0.05,0.104l-0.001,0.001l0.226,0.443 l-0.124,0.059c3.988,8.693,7.352,17.553,10.548,26.849c2.91-1.474,5.827-2.945,8.748-4.41c2.895-1.464,5.792-2.924,8.691-4.382 l0.186-0.094l0.197,0.065c0.566,0.189,1.136,0.364,1.71,0.524l0.527,0.149c0.435,0.124,0.869,0.249,1.31,0.354l1.584,0.376 c0.143,0.036,0.287,0.074,0.43,0.098l2.236,0.388C165.915,350.239,166.369,350.274,166.821,350.31z M50.168,365.508 c0.994-0.618,1.977-1.231,3-1.861c8.632-5.38,17.509-10.614,26.726-15.771c-3.78-9.378-7.672-18.682-11.588-27.907 c-5.192,3.196-10.744,6.745-16.936,10.823c-1.4,0.71-3.347,2.087-5.602,3.68c-2.478,1.751-5.124,3.618-7.59,5.02 C42.273,347.793,46.252,356.422,50.168,365.508z M57.007,401.289c-3.238-8.676-6.593-17.164-10.084-25.491 c-10.337,6.588-19.175,12.582-27.35,18.549c4.505,7.109,8.159,14.617,11.31,22.305C39.49,411.434,48.208,406.307,57.007,401.289z M92.723,381.65c-3.222-9.138-6.652-18.211-10.212-27.216c-10.225,5.732-20.055,11.573-29.583,17.575 c3.422,8.19,6.809,16.766,10.196,25.81c5.522-3.104,11.069-6.167,16.638-9.176C84.046,386.311,88.374,383.98,92.723,381.65z M133.588,360.285c-3.134-9.162-6.568-18.243-10.58-26.996c-11.989,5.845-23.405,11.736-34.355,17.736 c0.097,0.252,0.221,0.573,0.376,0.976c3.902,10.103,7.153,18.832,9.865,26.355C110.292,372.296,121.882,366.259,133.588,360.285z"
              style="fill: rgb(68, 78, 139);"/>
    </g>
</svg>