<svg xmlns="http://www.w3.org/2000/svg" xmlns:xlink="http://www.w3.org/1999/xlink" height="499.8"
     preserveAspectRatio="xMidYMid meet" version="1.0" viewBox="-0.1 -4.9 461.5 499.8" width="461.5"
     zoomAndPan="magnify">
    <g id="change1_1">
        <path d="M106.112,182.744c-3.874-56.451-8.265-120.433,24.521-168.148l0.085-0.096 c0.948-0.816,2.335-1.072,3.62-0.669c1.205,0.379,2.099,1.287,2.39,2.428c0.65,1.817-0.617,3.628-1.636,5.083 c-0.345,0.493-0.671,0.958-0.881,1.365c-0.441,0.693-0.88,1.398-1.316,2.115c1.129-0.398,2.319-0.369,3.4,0.12 c1.344,0.607,2.234,1.839,2.268,3.14c0.021,0.842-0.303,2.434-2.699,3.702c-6.582,7.761-8.286,17.609-9.821,27.201 c1.199-3.584,2.602-7.539,6.711-7.312c4.44,0.852,4.022,5.085,3.686,8.487c-0.082,0.829-0.16,1.611-0.166,2.297 c0.841,4.541,0.242,9.432-0.337,14.163c-0.372,3.041-0.757,6.186-0.745,9.202c-0.988,12.825-0.78,25.877-0.579,38.5l0.044,2.831 c0.186,7.673,0.453,15.477,0.711,23.022c0.204,5.942,0.407,11.884,0.575,17.827c-0.125,1.893,0.014,3.886,0.148,5.814 c0.274,3.926,0.558,7.983-1.223,11.503c0.477,4.705-2.133,8.472-4.814,8.93c-0.88,0.15-3.816,0.201-5.167-5.258 c-1.176-0.264-2.124-1.03-2.811-2.257c-0.214,1.38-0.769,2.751-1.954,3.748c-0.033,1.471-0.53,3.498-1.862,4.726 c-0.792,0.73-1.779,1.06-2.854,0.959c-0.349-0.025-0.686-0.121-1.007-0.285c0.215,2.951,0.433,5.902,0.652,8.853l0.001,0.011 c0.07,1.347-0.489,2.471-1.574,3.166c-0.653,0.418-1.438,0.63-2.22,0.63c-0.65,0-1.298-0.147-1.864-0.444 c-1.138-0.598-1.791-1.687-1.837-3.066C107.142,197.761,106.641,190.467,106.112,182.744z M453.422,406.081 c-7.901,11.59-23.403,17.226-44.852,16.274c-22.209-1.429-43.705-8.368-64.494-15.079c-2.233-0.722-4.467-1.442-6.699-2.156 c-14.709,3.175-32.062,6.931-49.459,10.754c-2.812,5.405-5.351,10.133-7.757,14.444c-3.094,5.538-6.417,11.458-9.766,17.23 c-1.181,2.127-2.381,4.247-3.605,6.362c-16.84,27.33-36.223,40.683-59.126,40.683c-1.635,0-3.288-0.068-4.96-0.204 c-0.466-0.062-1.094-0.116-1.997-0.171c-3.833,0.621-7.601,0.399-11.205-0.656c-19.934-7.582-35.175-22.131-46.621-44.485 c-0.925,0.242-1.851,0.482-2.776,0.72c-12.134,3.919-23.224,7.44-33.876,10.756c-20.726,6.389-42.214,11.306-62.994,16.061 c-4.031,0.922-8.062,1.845-12.088,2.777c-9.372,2.018-17.94,3.529-26.203,4.626c-1.114,0.154-2.25-0.177-3.197-0.929 c-0.991-0.787-1.623-1.924-1.734-3.119c-0.089-1.515,0.342-2.705,1.281-3.554c3.558-13.318,7.092-26.29,11.367-39.165 c6.384-19.963,14.008-39.857,21.382-59.096c5.73-14.95,11.653-30.406,16.954-45.789c-11.805-5.155-21.67-10.926-30.144-17.633 c-6.126-6.198-11.391-32.54-11.295-40.616l0.027-0.157c0.868-2.516,2.935-3.135,4.595-2.638c1.801,0.542,3.358,2.5,2.746,5.082 c0.217,1.446,0.466,2.964,0.741,4.521c0.669-0.4,1.498-0.559,2.35-0.423c1.045,0.161,1.978,0.729,2.56,1.56 c1.314,1.73,0.443,3.357-0.256,4.665c-0.112,0.21-0.224,0.419-0.326,0.626c-0.007,0.073-0.013,0.148-0.017,0.226 c1.647,0.085,3.025,1.124,4.255,2.052c0.226,0.17,0.448,0.338,0.668,0.497c2.156,1.607,4.486,3.042,6.739,4.43 c0.475,0.292,0.951,0.585,1.425,0.879c1.944-0.951,4.006-0.111,5.835,0.636c0.761,0.311,1.48,0.604,2.167,0.772 c10.391,3.651,21.334,7.679,31.462,13.367c2.776-0.935,5.693,0.141,8.518,1.182c1.21,0.446,2.354,0.868,3.454,1.121 c3.531,1.187,6.985,2.578,10.326,3.925c4.604,1.855,9.361,3.773,14.233,5.126c0.544-0.735,1.216-1.19,2-1.353 c1.927-0.4,4.084,1.074,5.659,2.151l0.152,0.104c0.473,0.369,1,0.685,1.512,0.96c0.027-0.233,0.065-0.461,0.117-0.686 c0.366-1.366,1.322-2.336,2.628-2.677c1.419-0.375,3.034,0.057,4.019,1.065c0.81,0.83,1.112,1.933,0.869,3.136 c2.202,1.634,2.528,4.658,2.845,7.587c0.168,1.554,0.327,3.021,0.754,4.214c0.484,2.189,1.153,4.398,1.8,6.535 c1.377,4.548,2.801,9.251,2.565,13.894c0.102,1.302,0.561,2.879,1.047,4.547c0.979,3.365,2.085,7.165,0.191,9.88 c1.81,4.396,3.175,9.039,4.496,13.532c1.197,4.073,2.436,8.284,3.998,12.283c1.731,3.859,3.415,7.84,5.044,11.689 c2.104,4.975,4.281,10.119,6.6,15.098c0.584,1.481,1.324,2.941,2.039,4.353l0.059,0.117c3.767-0.782,7.635-1.614,11.503-2.474 c18.083-4.073,36.211-8.005,54.177-11.753c-1.152-0.565-1.965-1.655-2.332-2.789c-0.605-1.867-0.152-4.355,2.275-5.409 c9.758-3.006,19.907-5.016,29.722-6.959c2.97-0.588,5.938-1.175,8.896-1.789c-0.832-1.042-1.132-2.49-0.763-3.927 c0.46-1.793,1.796-3.054,3.487-3.288c1.348-0.1,2.741-0.247,4.396-0.465l0.407-0.639c1.318-2.87,2.581-5.915,3.803-8.86 c2.634-6.352,5.357-12.919,9.16-18.853c0.43-0.938,2.133-4.231,4.625-4.744c1.02-0.208,2.011,0.068,2.952,0.826 c0.761-0.232,1.605-0.217,2.364,0.042c1.413-1.89,2.893-3.795,4.402-5.668c0.874-1.052,2.049-1.507,3.322-1.283 c1.39,0.244,2.643,1.296,3.118,2.617c0.436,1.211,0.184,2.455-0.709,3.503c-1.828,2.231-3.674,4.654-5.49,7.204 c7.905,1.764,15.675,4.406,23.194,6.964c4.271,1.453,8.686,2.955,13.067,4.275c1.283,0.654,2.78,0.925,4.365,1.211 c2.753,0.497,5.598,1.011,6.958,3.498c0.713,0.289,1.435,0.56,2.156,0.83c1.331,0.498,2.702,1.012,4.014,1.642 c0.847-1.475,2.795-2.414,4.462-2.059c1.902,0.334,3.872,0.631,5.957,0.945c8.768,1.322,18.699,2.82,25.81,7.897 c4.335,0.269,7.846,0.589,11.026,1.006c2.909-0.67,6.035-0.523,9.058-0.382c2.17,0.103,4.41,0.21,6.531,0.005 c3.404-3.625,11.936-2.314,15.629-1.535c0.646-0.22,1.316-0.471,2.081-0.779c0.363-2.521,2.212-4.802,4.717-5.814 c0.353-1.971,0.934-4.056,2.399-5.07c0.623-0.432,1.351-0.625,2.171-0.576c-0.001-0.138,0.003-0.275,0.016-0.415 c0.055-0.734,0.23-1.358,0.549-1.938c-0.205-0.467-0.472-0.972-0.752-1.501c-1.229-2.325-2.912-5.51,0.412-7.391 c1.196-0.624,2.578-0.536,3.663,0.109c-1.029-3.007-1.629-5.778-0.805-7.515c0.365-0.769,0.983-1.297,1.837-1.569 c0.908-0.327,1.962-0.269,2.871,0.163c0.902,0.429,1.578,1.168,1.906,2.081C460.979,377.46,461.45,394.304,453.422,406.081z M248.579,424.591l-8.08,1.786c-24.276,5.364-49.374,10.91-73.95,16.871c1.442,2.49,2.831,5.202,3.569,8.218 c1.06,1.773,2.403,3.452,3.824,5.229c2.582,3.227,5.247,6.558,6.064,10.492c0.833-0.544,1.722-0.778,2.666-0.699 c3.04,0.26,5.827,3.692,8.066,6.451c0.532,0.655,1.036,1.277,1.474,1.762c1.719,0.58,2.847,1.613,3.212,2.909 c1.765-1.128,4.466-1.965,6.857-1.583c1.48,0.234,2.666,0.914,3.448,1.97c0.26-0.008,0.51-0.012,0.751-0.012 c0.408,0,0.79,0.011,1.153,0.033c0.426,0.026,0.836,0.122,1.224,0.286c1.819-0.859,3.63-1.431,5.524-1.741 c0.706-0.631,1.411-1.06,2.152-1.309c0.391-0.132,0.789-0.201,1.187-0.208c0.668-0.588,1.373-1.127,2.097-1.604 c0.443-0.29,0.91-0.552,1.39-0.78c0.02-0.042,0.039-0.084,0.059-0.126c-0.07-0.632-0.007-1.293,0.184-1.931 c-0.366-1.201-0.15-2.509,0.616-3.702c0.869-1.354,2.288-2.297,3.743-2.501c2.147-2.559,4.387-5.062,6.49-7.389 c0.686-0.755,1.367-1.515,2.049-2.275c-0.707-3.806,2.274-8.392,4.912-12.448c1.019-1.566,1.981-3.046,2.613-4.313 C243.758,433.707,245.956,429.318,248.579,424.591z M68.287,161.073l0.007,0.003c1.072,0.454,2.14,0.678,3.175,0.678 c1.657,0,3.23-0.576,4.601-1.71c2.692-2.229,4.107-6.339,3.366-9.773c-0.62-2.872-2.591-4.897-5.484-5.681 c-5.519-2.373-9.099,0.506-10.488,3.691C61.589,152.578,62.901,158.69,68.287,161.073z M82.752,171.454l0.018,0.014 c0.925,0.684,1.923,1.026,2.918,1.026c0.909,0,1.816-0.286,2.665-0.86c2.103-1.424,3.307-4.239,2.739-6.41 c-0.266-1.017-1.167-2.761-4.163-3.01c-2.273-0.434-4.42,0.726-5.459,2.961C80.59,167.068,80.645,169.744,82.752,171.454z M425.687,255.419c0.911,0.394,1.832,0.589,2.736,0.589c1.406,0,2.774-0.472,4.004-1.404c2.469-1.872,3.905-5.279,3.493-8.285 c-0.331-2.417-1.8-4.267-4.137-5.217c-2.385-1.943-4.948-2.389-7.223-1.254c-2.726,1.358-4.519,4.728-4.361,8.192 C420.353,251.426,422.353,254.114,425.687,255.419z M190.884,305.256c0.373,1.136,1.194,2.115,2.277,2.705 c0.989,0.538,2.086,0.688,3.113,0.429c1.101,0.494,2.312,0.521,3.519,0.079c1.438-0.525,2.729-1.699,3.442-3.109 c1.037,0.031,2.035-0.278,2.864-0.895c-0.03,0.608-0.091,1.246-0.154,1.906c-0.271,2.858-0.578,6.087,1.661,8.178 c-0.06,0.86-0.189,1.746-0.314,2.605c-0.29,1.989-0.59,4.047-0.11,6.058c0.368,1.75,1.838,3.059,3.746,3.334 c1.293,0.186,2.532-0.146,3.452-0.879c0.038,2.721,1.217,5.321,3.711,6.034c-0.419,2.222,0.521,4.643,2.355,5.92 c1.377,0.961,2.951,1.058,4.424,0.303c0.013,0.872-0.013,1.76-0.038,2.625c-0.072,2.527-0.147,5.141,0.693,7.619 c0.577,1.578,1.923,2.583,3.693,2.757c1.567,0.16,3.149-0.398,4.223-1.424c0.329,1.516,1.194,3.737,3.456,4.327 c0.026,2.778,0.074,6.562,3.593,7.548c0.281,0.03,0.551,0.045,0.812,0.044c5.666,0,6.58-6.862,7.256-11.933 c0.031-0.238,0.062-0.475,0.095-0.707c0.45,0.969,1.159,1.836,2.052,2.442c1.542,1.047,3.336,1.131,4.962,0.202 c3.113-2.184,3.84-5.921,4.542-9.534c0.17-0.872,0.332-1.708,0.525-2.506c1.731,1.138,4.009,0.727,5.575-0.377 c1.208,0.703,2.489,0.809,3.726,0.3c2.119-0.871,3.555-3.234,4.083-5.235c1.977,0.172,3.993-0.812,5.002-2.433 c0.839,0.309,1.741,0.379,2.555,0.193c1.076,0.78,2.317,1.005,3.598,0.655c1.615-0.442,3.144-1.806,3.955-3.481 c1.725,0.92,4.054,0.582,5.437-0.854c3.315-0.499,4.574-3.723,5.235-6.034c0.279,0.282,0.591,0.526,0.932,0.729 c0.669,0.398,1.435,0.62,2.229,0.647c1.273,1.839,3.063,2.612,4.936,2.114c2.187-0.574,3.904-2.759,4.217-5.289 c6.133-0.5,6.346-11.525,6.502-19.627c0.056-2.907,0.104-5.418,0.399-6.953l0.013-0.066l-0.005-0.066 c-0.138-1.789-0.025-4.786,0.104-8.256c0.338-9.002,0.756-20.158-2.464-23.013c0.101-1.627,0.2-3.255,0.296-4.884 c0.085-1.437-0.656-2.891-1.906-3.78c0.023-0.551,0.074-1.162,0.127-1.805c0.233-2.846,0.523-6.387-1.26-8.209 c-0.752-0.768-1.806-1.162-3.136-1.173c0.004-1.316,0.326-3.009,0.665-4.789c0.688-3.609,1.469-7.7-0.24-10.065 c-0.703-0.973-1.776-1.586-3.193-1.826c-0.214-0.42-0.491-0.809-0.812-1.135c-0.668-0.677-1.514-1.105-2.52-1.275 c0.205-2.138-0.489-3.98-1.905-4.995c-1.249-0.895-2.824-0.989-4.216-0.255c-2.141,1.13-3.367,3.897-3.409,7.64 c-0.724-0.133-1.467-0.27-2.218-0.335c0.234-1.451,0.49-2.9,0.746-4.349c0.59-3.345,1.2-6.803,1.527-10.26 c0.144-2.138-1.604-4.229-3.849-4.571c-4.781-0.431-5.422,4.137-5.963,7.802c-0.121,0.82-0.237,1.608-0.39,2.308 c-0.449-0.374-0.962-0.656-1.513-0.831c0.513-1.812-0.062-3.787-1.521-5.061c-1.391-1.216-3.234-1.434-4.862-0.596 c-0.171-0.071-0.346-0.131-0.522-0.18c1.159-3.15,1.253-7.208-0.613-8.992c-0.818-0.784-2.348-1.441-5.039-0.297 c-0.094-0.176-0.2-0.348-0.319-0.513c0.8-1.893,0.624-3.824-0.497-5.339c-1.043-1.411-2.747-2.168-4.336-1.934 c-1.354,0.2-2.47,1.058-3.215,2.451c-0.788-1.108-2.104-1.797-3.589-1.823c-1.903-0.037-3.541,1.015-4.212,2.668 c-0.785,1.949-1.218,4.027-1.638,6.037c-0.143,0.687-0.289,1.388-0.449,2.083c-0.401-0.419-0.884-0.755-1.431-0.993 c-0.013-0.006-0.026-0.011-0.04-0.017c-0.099-1.176-0.68-2.302-1.626-3.132c-0.992-0.871-2.262-1.281-3.547-1.11 c-3.842,1.017-4.86,5.16-5.759,8.814c-0.333,1.357-0.651,2.649-1.086,3.744c0.022-2.469-1.836-4.101-3.679-4.596 c-2.278-0.609-4.348,0.355-5.277,2.448c-0.872,1.852-1.588,3.768-2.181,5.846c-0.913-0.077-1.812,0.122-2.577,0.572 c-2.024,1.188-2.701,3.313-3.182,5.137c-3.981-0.246-6.454,7.967-8.83,15.896c-1.31,4.368-2.551,8.508-3.846,10.354 c-1.528-0.764-3.015-0.847-4.427-0.244c-5.54,2.368-8.706,15.155-10.801,23.616c-0.688,2.782-1.283,5.184-1.79,6.518l-0.03,0.126 c-0.175,1.678-0.8,4.179-1.525,7.075C189.138,292.148,186.642,302.132,190.884,305.256z M323.978,433.383 c-1.021-1.167-2.527-1.747-4.013-1.561l-0.007,0.001c-0.732,0.103-1.46,0.341-2.172,0.709c-0.035-3.811-2.168-6.608-5.936-7.743 c-3.488-1.287-7.469-0.315-10.926,2.662c-4.188,3.611-6.495,9.098-5.61,13.342c0.432,2.07,1.83,4.812,6.01,6.105 c1.02,0.386,2.073,0.574,3.138,0.574c2.952,0,5.987-1.453,8.597-4.185c0.35,0.811,0.881,1.519,1.596,2.123 c2.123,1.579,4.957,1.415,7.398-0.434c2.172-1.645,3.987-4.771,2.921-7.808C325.278,435.831,324.92,434.459,323.978,433.383z"
              fill="#FFA953"/>
    </g>
    <g id="change2_1">
        <path d="M79.667,359.444c0.359,2.872-1.669,4.681-3.859,4.983c-0.219,0.03-0.441,0.045-0.664,0.045 c-1.994,0-4.008-1.225-4.398-3.805c-0.158-1.487-0.393-2.979-0.62-4.42c-0.32-2.032-0.651-4.133-0.771-6.224 c0.03-2.912,2.274-4.432,4.475-4.444c0.009,0,0.019,0,0.028,0c2.185,0,4.419,1.483,4.495,4.332c0.204,1.71,0.457,3.443,0.7,5.119 C79.267,356.501,79.481,357.971,79.667,359.444z M61.793,370.886c0.22,0,0.44-0.015,0.658-0.044c2.192-0.3,4.224-2.105,3.868-4.977 c-0.048-0.431-0.105-0.861-0.162-1.292c-0.137-1.042-0.278-2.119-0.29-3.212c-0.186-1.979-1.296-3.554-2.97-4.213 c-1.484-0.583-3.075-0.31-4.251,0.737c-1.113,0.99-2.754,3.51-1.247,9.197C57.784,369.661,59.799,370.887,61.793,370.886z M41.835,458.198c-1.51,0.568-2.937,1.104-4.157,1.199l-0.081,0.013c-1.888,0.462-3.732,0.929-5.539,1.566 c-1.644,0.592-2.715,2.198-2.727,4.092c-0.013,1.938,1.055,3.594,2.758,4.23c0.578,0.167,1.148,0.236,1.712,0.236 c1.46,0,2.878-0.467,4.261-0.922c1.066-0.351,2.169-0.713,3.283-0.862l0.101-0.023c0.7-0.248,1.56-0.471,2.47-0.706 c2.842-0.735,6.063-1.568,7.26-3.782c0.564-1.044,0.605-2.294,0.094-3.783C49.192,455.427,45.283,456.899,41.835,458.198z M62.478,454.04c-1.918-0.159-3.444,0.539-4.303,1.966c-0.913,1.515-0.856,3.561,0.14,5.093c0.845,1.299,2.234,2.008,3.846,2.008 c0.238,0,0.481-0.016,0.729-0.047c1.738-0.032,3.107-0.816,3.855-2.208c0.788-1.464,0.71-3.403-0.191-4.825 C65.683,454.655,64.234,453.956,62.478,454.04z M131.33,423.607c-0.827-1.77-2.555-2.68-4.861-2.561 c-2.349-1.041-3.867-0.501-4.73,0.146c-1.416,1.06-2.112,3.239-1.774,5.555c0.376,2.573,1.854,4.569,3.938,5.334 c0.764,0.312,1.522,0.466,2.254,0.465c1.401,0,2.703-0.563,3.745-1.659C131.749,428.945,132.363,425.815,131.33,423.607z"
              fill="#D37A36"/>
    </g>
    <g id="change3_1">
        <path d="M435.891,311.391c-2.42-5.166-4.706-10.045-6.768-14.982l-0.01-0.022 c-8.13-17.083-17.707-36.875-28.542-55.73c8.188-14.234,15.817-29.639,22.685-45.805l1.262-3.192 c10.295-25.992,31.715-80.078,4.562-99.542c-8.382-4.071-17.82-3.376-26.949-2.705c-2.303,0.169-4.685,0.345-7.001,0.434 c-32.057,3.322-67.028,7.923-106.923,14.067c-8.229,1.395-16.722,3.135-25.953,5.317c-3.195-3.907-6.502-7.817-9.702-11.602 l-1.601-1.892c-22.629-25.714-44.541-47.925-66.979-67.895C162.447,7.795,150.167,0.84,141.589,3.842 c-8.598,3.007-13.849,15.913-18.124,44.551c-3.136,21.711-4.402,45.476-3.872,72.66c0.069,1.845,0.135,3.693,0.201,5.544 c0.498,14.007,1.013,28.489,3.072,42.534c-20.485,12.488-41.436,27.722-64.036,46.563c-14.483,11.883-25.682,22.28-35.251,32.73 c-0.496,0.571-1.011,1.156-1.538,1.756c-7.552,8.589-17.895,20.352-10.184,31.979c12.588,16.269,32.778,22.46,52.304,28.448 c2.556,0.783,5.088,1.56,7.584,2.354c18.775,5.502,35.664,10.215,51.621,14.408c0.217,1.175,0.427,2.362,0.473,3.289 c1.762,9.988,4.008,20.683,6.868,32.707c6.318,24.27,23.103,88.738,48.858,109.287c6.143,6.099,16.491,11.864,21.293,11.864 c0.257,0,0.498-0.014,0.649-0.043c25.71-0.051,44.092-33.79,57.514-58.425c3.237-5.942,6.295-11.556,9.113-16.08 c7.897-14.074,15.768-28.74,24.052-44.819c2.013,0.783,4.024,1.568,6.037,2.354c24.04,9.389,48.899,19.098,74.981,23.204 l0.523,0.067c24.338,3.139,69.644,8.974,77.24-22.685C453.152,348.227,444.378,329.5,435.891,311.391z M227.499,253.706l0.009,0.013 l-0.01-0.013L227.499,253.706z M312.459,306.433L312.459,306.433c-0.652,1.946-1.916,3.537-3.556,4.48 c-1.599,0.915-3.617,1.434-6.173,1.583c-0.8,0.047-1.528,0.046-2.459,0.02c-0.695,0.054-1.414,0.097-2.339,0.065 c-0.815-0.006-1.658-0.138-2.473-0.265l-0.555-0.085c-0.616-0.093-1.216-0.2-1.83-0.328c-1.354-0.275-2.767-0.598-4.318-0.983 c-1.328-0.332-2.747-0.74-4.368-1.255c-1.204-0.308-2.406-0.622-3.606-0.945c-1.26-0.341-2.504-0.714-3.752-1.088l-0.11-0.033 c-0.917-0.275-1.841-0.607-2.734-0.929l-0.915-0.326c-0.981-0.346-1.962-0.764-2.91-1.168l-0.524-0.223 c-0.839-0.357-1.744-0.794-2.771-1.336l-0.724-0.396l-0.551,2.065c-0.064,0.236-0.123,0.475-0.183,0.713 c-0.106,0.425-0.212,0.852-0.345,1.262c-0.365,1.107-0.854,2.565-1.407,4.021c-0.451,1.189-0.947,2.395-1.474,3.58 c-1.166,2.626-2.214,4.993-3.226,7.379c-0.586,1.382-1.176,2.76-1.769,4.139l-0.392,0.92c-0.93,2.195-1.891,4.466-3.397,6.33 c-0.862,1.068-1.916,1.886-3.129,2.427c-1.055,0.463-2.292,0.446-3.899-0.064c-1.176-0.38-2.242-1.25-3.132-2.053 c-0.515-0.463-0.994-1.017-1.458-1.553l-0.192-0.221l0.003-0.003c-0.877-0.988-1.784-2.01-2.537-3.102 c-0.87-1.254-1.688-2.502-2.501-3.813c-0.61-0.987-1.178-2.024-1.727-3.027l-0.354-0.646c-0.24-0.438-0.457-0.88-0.662-1.332 c-0.102-0.227-0.209-0.452-0.315-0.679c-0.205-0.434-0.412-0.87-0.584-1.314c-0.159-0.417-0.325-0.832-0.491-1.249 c-0.359-0.898-0.73-1.828-1.027-2.753l-1.418-4.402c-0.31-0.964-0.573-1.965-0.828-2.933l-0.219-0.824 c-0.288-1.084-0.577-2.168-0.841-3.255c-0.379-1.559-0.753-3.113-1.096-4.677c-0.241-1.1-0.475-2.2-0.681-3.309 c-0.134-0.717-0.219-1.461-0.254-2.213l-0.019-0.411l-0.407-0.061c-2.62-0.385-4.762-0.737-6.738-1.109 c-2.504-0.472-5.468-1.048-8.464-1.742c-2.608-0.603-5.143-1.23-7.494-2.285c-0.625-0.28-1.255-0.625-1.929-1.052 c-0.479-0.305-1.169-0.776-1.643-1.352c-0.48-0.575-0.773-1.097-0.921-1.642c-0.218-0.786-0.314-1.591-0.302-2.532 c0.017-1.301,0.378-2.606,1.137-4.107c0.774-1.524,1.733-2.943,2.851-4.216c0.93-1.056,1.958-2.052,3.017-3.063 c1.779-1.699,3.834-3.428,6.282-5.284c2.112-1.608,4.324-3.143,6.763-4.69c1.431-0.91,2.942-1.76,4.404-2.583 c0.785-0.441,1.57-0.884,2.347-1.335c0.754-0.435,1.484-0.901,2.284-1.417l0.012,0.017l0.091-0.064l-0.01-0.012l0.208-0.134 l0.002-0.271c0.011-2.06,0.053-4.202,0.129-6.553c0.073-2.392,0.279-4.822,0.478-7.173l0.095-1.125 c0.195-2.305,0.494-4.843,0.942-7.986c0.195-1.347,0.39-2.436,0.61-3.429l0.2-0.913c0.37-1.689,0.752-3.435,1.273-5.104 c0.521-1.66,1.146-2.962,1.97-4.097c0.44-0.604,0.881-1.096,1.349-1.506c0.658-0.581,1.483-0.96,2.061-1.177 c1.35-0.508,2.771-0.67,4.219-0.51c1.653,0.191,3.239,0.82,4.721,1.448c2.402,1.025,4.602,2.502,6.619,3.946l0.406,0.292 c1.016,0.728,2.065,1.48,3.046,2.283l1.808,1.48c0.284,0.234,0.548,0.501,0.811,0.766c0.135,0.137,0.27,0.272,0.407,0.405 c0.278,0.266,0.56,0.529,0.841,0.792c0.691,0.646,1.406,1.315,2.053,2.011c0.431,0.463,0.868,0.923,1.306,1.383 c0.852,0.895,1.732,1.821,2.55,2.765l1.008,1.157c0.841,0.965,1.683,1.929,2.508,2.908l0.255,0.292l0.235-0.009 c2.896-0.107,5.838-0.122,8.548-0.122c2.048-0.001,3.969,0.004,5.937-0.006c2.407-0.015,4.815,0.007,7.224,0.029l0.662,0.006 c1.34,0.016,2.671,0.035,4.007,0.085c2.381,0.089,4.708,0.214,7.004,0.746c1.713,0.394,3.134,1.029,4.226,1.887 c1.069,0.836,1.841,2.203,2.117,3.749c0.306,1.709,0.144,3.557-0.47,5.344c-0.325,0.957-0.776,1.896-1.175,2.703 c-0.404,0.828-0.822,1.684-1.318,2.453l-0.58,0.902c-0.078,0.127-0.156,0.25-0.245,0.382l-0.15,0.24 c-0.944,1.443-1.958,2.817-3.19,4.436c-1.301,1.712-2.599,3.428-3.888,5.146c-1.004,1.336-2.015,2.664-3.03,3.987l-0.229,0.299 l0.224,0.303c0.52,0.705,1.005,1.464,1.474,2.198l0.148,0.231l0.297-0.19l-0.292,0.198l0.363-0.237l-0.31,0.32l0.101,0.157 c0.91,1.424,1.779,2.914,2.619,4.355c0.426,0.731,0.853,1.463,1.285,2.188c1.48,2.48,2.949,4.968,4.417,7.455 c1.646,2.79,2.879,4.946,3.995,6.989c0.923,1.696,1.747,3.389,2.448,5.031c0.558,1.305,0.946,2.827,1.155,4.524 C313.195,303.068,313.01,304.8,312.459,306.433z M308.17,302.605l0.909-1.299l-0.002,1.707c-0.024,0.341-0.061,0.673-0.109,1.009 l-0.024,0.113c-0.03,0.133-0.062,0.269-0.096,0.4l-0.877,3.422l-0.107-3.531c-0.011-0.373-0.04-0.749-0.083-1.122l-0.027-0.244 l0.176-0.171C308.018,302.802,308.098,302.706,308.17,302.605z M281.935,299.306l0.133,0.053l-0.328,0.944l-0.176-0.069l0.365-0.931 l-0.007,0.034L281.935,299.306z M238.14,300.828c0.045,0.163,0.067,0.255,0.093,0.347l-0.943,0.325l-0.404-1.127l0.95-0.299 L238.14,300.828z"
              fill="#FBACA7"/>
    </g>
    <g id="change4_1">
        <path d="M261.553,99.891c0.495,1.679-0.059,3.413-1.461,4.578c-5.446,12.52-20.275,13.471-31.346,10.472 c-6.542-1.558-16.154-6.809-22.702-12.364c-0.639,3.307-1.641,6.325-2.348,7.991c-3.288,8.053-12.702,12.717-21.429,10.615 c-7.025-1.148-14.29-4.973-20.014-10.526c-5.276,14.798-12.489,29.344-25.803,29.345c-1.118,0-2.278-0.103-3.485-0.316 c-18.474-6.397-21.111-29.487-21.046-42.682c0.017-10.009,0.404-19.228,1.186-28.182c0.188-0.95,0.256-2.062,0.328-3.24 c0.149-2.445,0.318-5.21,1.598-6.932c0.355-2.243,0.723-4.481,1.09-6.716c0.343-2.083,0.685-4.163,1.015-6.241l0.457-2.199 c3.5-16.896,7.856-37.924,26.583-42.824c27.07-5.591,54.87,25.116,71.477,43.464l0.372,0.411 c5.904,7.009,12.108,13.951,18.107,20.665c7.214,8.072,14.672,16.418,21.65,24.924c1.112,1.632,2.188,3.327,3.312,5.212 C260.889,96.233,261.842,97.992,261.553,99.891z M159.409,187.697c-5.401,1.643-9.862,6.556-9.743,10.729 c0.054,1.874,1.104,5.25,7.539,6.812l0.039,0.008c0.519,0.083,1.055,0.123,1.603,0.123c4.033,0,8.675-2.173,11.157-5.38 c1.941-2.508,2.356-5.385,1.134-8.168C168.555,187.719,164.281,186.215,159.409,187.697z M283.628,150.405 c-3.436-2.643-8.511-1.039-11.79,1.585c-3.856,3.085-5.322,7.234-3.729,10.583c1.367,2.681,3.761,4.093,6.851,4.093 c0.646,0,1.322-0.062,2.026-0.187c5.491-0.973,10.752-5.473,11.257-9.629C288.473,154.954,287.857,152.301,283.628,150.405z"
              fill="#FDD4D2"/>
    </g>
    <g id="change5_1">
        <path d="M247.536,169.486c-0.017-0.231-0.037-0.462-0.065-0.694l-0.004-0.027c-0.018-0.101-0.039-0.201-0.061-0.299 l-0.002-0.168l-0.061-0.06c-0.022-0.087-0.043-0.188-0.045-0.277c-0.003-0.162,0.01-0.324,0.039-0.482l0.017-0.091l-0.092-0.447 c-0.068-0.258-0.136-0.513-0.21-0.767l-0.017-0.077c-0.018-0.068-0.038-0.133-0.073-0.242c-0.021-0.067-0.042-0.137-0.063-0.217 c-0.094-0.322-0.191-0.644-0.289-0.965l-0.186-0.612l-0.102-0.093c-0.224-0.204-0.455-0.399-0.718-0.619 c-0.267-0.191-0.537-0.375-0.808-0.554l-0.147-0.076c-0.306-0.126-0.614-0.236-0.963-0.348c-0.28-0.069-0.562-0.126-0.886-0.181 c-0.312-0.029-0.628-0.041-0.943-0.053c-0.177-0.007-0.355-0.015-0.533-0.025v-0.08l-0.107,0.01l0.01,0.065 c-0.009-0.001-0.017-0.001-0.026-0.001l-0.056-0.047l-0.001-0.009c-0.054,0.005-0.108,0.008-0.165,0.009h-0.083 c-0.055-0.001-0.113-0.003-0.176-0.008l-0.177,0.027c-6.833,1.954-12.091,3.398-17.045,4.684l-1.671,0.43 c-5.234,1.348-10.647,2.742-16.114,3.728c-0.16,0.052-0.319,0.108-0.476,0.163c-0.959,0.328-2.076,0.705-3.203,1.028l-0.127,0.036 l-0.092,0.094c-0.173,0.177-0.358,0.309-0.557,0.395c-0.13,0.059-0.271,0.1-0.43,0.122l-0.2,0.032 c-0.169,0.022-0.333,0.052-0.551,0.105c-0.154,0.053-0.307,0.105-0.499,0.18c-0.157,0.077-0.311,0.157-0.493,0.255 c-0.226,0.139-0.443,0.287-0.691,0.47c-0.15,0.134-0.292,0.271-0.458,0.434c-0.139,0.155-0.274,0.319-0.433,0.521 c-0.119,0.183-0.235,0.366-0.368,0.584l-0.153,0.307c-0.044,0.125-0.085,0.25-0.122,0.375l-0.01,0.047l-0.005-0.002 c-0.019,0.067-0.038,0.135-0.052,0.207v0.011l-0.003,0l0.003,0.001l0,0.069l-0.007,0.033l-0.007,0h0.007l-0.011,0.055 c-0.017,0.213-0.024,0.422-0.028,0.666c0.008,0.172,0.031,0.344,0.043,0.517l-0.006,2.57l0.237-0.889 c2.556,5.103,9.583,11.375,11.859,13.083c4.943,4.108,10.33,6.279,15.578,6.279c9.275-0.004,17.248-6.794,20.826-17.799 c0.153-0.998,0.651-2.319,1.179-3.717c0.233-0.619,0.473-1.254,0.716-1.979c0.044-0.292,0.084-0.583,0.125-0.876l0.151-1.042h-0.02 c0.087-0.777,0.146-1.492,0.183-2.191C247.607,170.534,247.583,170.003,247.536,169.486z M241.29,162.112v-0.074l0.003,0.075 C241.292,162.112,241.291,162.112,241.29,162.112z M265.663,149.448c-1.412,0.739-3.028,0.568-4.114-0.435 c-1.209-1.134-2.509-2.226-3.864-3.25c-2.86-2.247-6.904-3.215-10.324-2.469c-1.818,0.397-4.294,1.468-5.762,4.319 c-0.59,0.832-0.859,1.954-1.12,3.039c-0.519,2.157-1.105,4.6-4.097,4.6c-0.023,0-0.046,0-0.069,0l-0.111-0.014 c-2.104-0.508-3.32-1.826-3.516-3.811c-0.459-4.659,5.082-12.17,8.438-13.722c3.938-2.297,9.165-2.793,14.308-1.34 c5.36,1.516,9.926,4.965,12.21,9.225l0.055,0.167C267.905,147.243,267.107,148.692,265.663,149.448z M194.938,164.8 c-0.058,1.406-0.935,2.787-2.182,3.434c-1.144,0.593-2.409,0.511-3.56-0.23c-2.199-1.336-4.599-2.679-7.17-3.404 c-2.777-0.519-5.275-0.043-7.378,1.419c-2.962,2.06-5.171,6.192-6.06,11.337l-0.021,0.121l-0.074,0.097 c-0.663,0.869-1.691,1.344-2.802,1.344c-0.403,0-0.816-0.062-1.227-0.191c-1.513-0.474-2.533-1.727-2.598-3.191 c0.112-7.405,3.995-13.606,10.387-16.618c6.795-3.204,14.838-2.142,20.993,2.77C194.389,162.416,194.99,163.521,194.938,164.8z"
              fill="#3E4677"/>
    </g>
</svg>