<svg xmlns="http://www.w3.org/2000/svg" xmlns:xlink="http://www.w3.org/1999/xlink" height="481.1"
     preserveAspectRatio="xMidYMid meet" version="1.0" viewBox="-0.5 -2.4 376.9 481.1" width="376.9"
     zoomAndPan="magnify">
    <g id="change1_1">
        <path d="M38.756,40.509l-0.116,0.049c-1.375,0.386-2.916-0.117-3.828-1.207c-1.25,3.501-7.699,6.886-9.714,7.871 c-3.806,1.86-8.545,3.507-11.502,3.507c-0.688,0-1.278-0.089-1.739-0.285c-4.594-0.512-9.085-3.612-10.942-7.561 c-1.426-3.034-1.179-6.272,0.694-9.125c0.71-2.072,4.09-4.627,7.022-6.344c-4.425-4.398-8.43-11.907-7.799-18.274 C1.191,5.527,2.933,2.728,6.011,0.82c8.528-3.181,17.25,3.368,20.903,11.479c2.179-3.55,6.511-5.994,10.803-5.911 c3.608,0.065,6.381,1.906,7.809,5.184l0.017,0.043C48.202,19.695,46.175,36.197,38.756,40.509z"
              fill="#FFA953"/>
    </g>
    <g id="change2_1">
        <path d="M366.188,359.118c-10.878,37.616-36.003,72.031-68.928,94.413c-19.166,12.441-41.715,19.986-67.03,22.432 c-5.855,0.565-11.86,0.847-17.957,0.847c-17.26,0-35.29-2.25-53.029-6.663c-1.364-0.34-2.722-0.69-4.072-1.05 c-30.588-8.13-59.657-23.732-81.851-43.935c-24.949-22.709-40.368-50.304-44.589-79.802c-5.91-44.225,6.926-91.486,35.217-129.69 c0.189-0.915,0.683-1.924,1.469-3.002c0.493-1.784,1.356-3.585,2.711-5.659c3.076-4.999,5.932-8.881,8.979-12.205 c1.271-1.112,2.482-2.219,3.698-3.328c2.599-2.373,5.287-4.826,8.183-6.967l0.086-0.051c1.557-0.726,2.642-2.044,3.791-3.439 c0.666-0.808,1.354-1.644,2.144-2.358l0.106-0.074c1.458-0.749,2.568-0.563,3.243-0.276c0.681,0.29,1.239,0.826,1.597,1.514 c12.351-9.512,25.518-17.343,39.143-23.277c4.105-1.966,8.429-3.817,12.871-5.512l-0.19-0.015l3.497-1.213 c1.299-0.467,2.61-0.928,3.927-1.369c2.211-0.708,4.613-1.423,7.567-2.25l0.829-0.259c0.748-0.234,1.494-0.477,2.241-0.719 c1.698-0.551,3.454-1.121,5.214-1.584l0.732-0.195c2.337-0.621,4.753-1.263,7.149-1.836c2.925-0.699,5.852-1.376,8.783-2.041 c1.799-0.408,3.7-0.771,5.812-1.11c1.163-0.064,2.275-0.115,3.389-0.159l1.347-0.292c0.687-0.104,1.314-0.039,1.896,0.188 c36.346-0.963,70.778,6.117,99.538,20.468c17.254,8.988,32.758,23.341,46.086,42.664c16.432,22.241,25.438,50.672,26.035,82.2 C376.397,310.977,373.157,336.414,366.188,359.118z"
              fill="#FDD4D2"/>
    </g>
    <g id="change3_1">
        <path d="M32.338,283.919l0.049-0.346l-0.003,0v-0.102l0.019-0.031l0.02-0.14c0.052-0.271,0.089-0.511,0.127-0.754 l0.392-2.407c0.436-1.995,0.86-3.748,1.303-5.389c0.573-2.129,1.142-4.212,1.787-6.269l1.207-3.855 c0.214-0.688,0.467-1.369,0.72-2.049l0.382-1.016c0.083-0.193,0.167-0.386,0.232-0.583l1.2-2.942l0.002,0.001 c1.556-3.601,3.224-7.428,4.997-11.171c0.492-1.043,0.989-2.083,1.486-3.123l0.932-1.952c0.407-0.856,0.813-1.713,1.228-2.569 l0.145-0.298l0.331,0.017c3.352,0.167,6.811-0.224,10.153-0.603c1.179-0.134,2.355-0.268,3.524-0.377 c10.532-1.543,21.082-4.496,31.284-7.352c3.429-0.96,6.974-1.953,10.451-2.872c14.784-4.229,29.608-9.274,43.943-14.153 c4.058-1.381,8.116-2.762,12.178-4.127c2.103-0.723,4.208-1.461,6.314-2.201c8.958-3.145,18.221-6.397,27.646-8.439l0.092-0.02 l0.093,0.015c2.235,0.359,3.547,1.264,3.897,2.688c0.706,2.86-2.812,6.824-5.287,9.116c32.666-9.804,60.121-18.72,87.201-29.967 c9.532-4.218,20.345-9.002,30.451-14.34c0.588-0.938,1.649-1.57,2.808-1.662c1.124-0.094,2.168,0.352,2.852,1.212 c4.808,4.104,8.645,7.611,12.009,10.969c2.658,2.884,5.548,5.523,8.025,7.727c1.213,1.001,1.571,2.497,0.94,3.921 c0.09,1.177-0.458,2.248-1.518,2.958c-4.189,2.93-8.987,5.683-15.091,8.659c-28.172,14.95-58.581,26.142-87.989,36.965 c-14.865,5.471-30.236,11.129-45.127,17.201c-26.928,9.304-54.827,15.11-76.127,19.13c-5.889,1.15-11.878,2.421-17.669,3.648 c-18.435,3.909-37.498,7.952-56.653,8.859c-0.231,0.05-0.548,0.079-0.875,0.079c-0.003,0-0.007,0-0.01,0 c-1.567,0-3.08-0.724-3.949-1.89L32.338,283.919z M69.13,196.883l0.122,0.014l0.115-0.044 c64.875-24.887,134.986-37.01,201.232-47.292c1.163-0.168,2.065-0.792,2.539-1.757l0.228-0.461l-0.468-0.214 c-0.423-0.193-0.849-0.384-1.286-0.577c-1.604-0.657-3.371-1.267-5.417-1.868c-0.207-0.055-0.415-0.106-0.624-0.157l-0.409-0.11 c-0.675-0.171-1.351-0.337-2.027-0.503l-0.534-0.131c-1.457-0.359-2.884-0.716-4.365-1.147c-1.351-0.242-2.697-0.503-4.045-0.765 c-2.58-0.5-5.247-1.018-7.886-1.383c-17.344-3.009-35.973-4.01-60.375-3.242c-1.13,0-2.1,0.446-2.732,1.257 c-0.562,0.722-0.819,1.667-0.729,2.613c-3.005,0.238-6.21,0.516-10.297,0.895c-3.118,0.312-6.28,0.704-9.338,1.083 c-1.722,0.214-3.444,0.427-5.208,0.635c-0.554,0.113-1.214,0.177-1.912,0.244c-2.431,0.234-5.726,0.553-6.01,3.665 c-0.333,0.074-0.676,0.131-1.034,0.191c-1.042,0.174-2.121,0.354-3.075,0.992c-0.851,0.611-1.381,1.63-1.419,2.726 c-0.027,0.774,0.186,1.504,0.597,2.1c-6.739,1.861-13.689,4.142-21.251,6.976c-0.583,0.273-1.23,0.491-1.917,0.722 c-1.751,0.587-3.56,1.195-4.562,2.826c-5.066,1.565-10.415,3.399-16.311,5.593c-2.587,0.764-5.777,2.124-6.277,4.262 c-0.225,0.96,0.104,1.95,0.979,2.95c-1.728,0.794-2.599,2.554-2.444,4.083c-7.597,2.562-15.252,5.333-22.661,8.014l-0.625,0.226 c-2.485,0.276-3.84,2.341-3.855,4.161C65.832,195.308,67.121,196.652,69.13,196.883z M375.048,269.179 c-0.048-1.035-0.102-2.071-0.155-3.106l-0.035-0.645h0l-0.001-0.01l-0.006-0.112h0.001l-0.002-0.012l-0.002-0.042 c-0.283-4.466-0.632-8.104-1.1-11.465c-0.21-1.259-0.434-2.517-0.677-3.831c-0.823-2.713-1.685-5.414-2.546-8.115 c-0.997-3.127-2.027-6.36-2.985-9.577l-0.392-1.149c-0.245-0.724-0.49-1.45-0.767-2.208c-0.194-0.423-0.392-0.845-0.601-1.268 c-1.074-2.075-2.082-3.928-3.082-5.666l-0.963-1.642l-0.383,0.125c-2.304,0.754-5.171,2.842-7.476,4.52 c-1.242,0.905-2.314,1.686-3.136,2.15c-57.774,37.94-128.066,64.666-208.919,79.433c-9.019,1.54-18.157,3.339-26.994,5.078 c-18.465,3.634-37.559,7.392-56.601,8.998c-9.753,0.672-19.837,1.364-29.82,0.171l-0.52-0.062l-0.229,3.021l-0.006,0l0,0.017 c0,0.001,0,0.002,0,0.003l-0.007,0.143c-0.003,0.055-0.007,0.11-0.011,0.165v0.002c0,0,0,0.001,0,0.002l0.002,0 c-0.112,1.821-0.194,3.477-0.249,5.089c0.396,10.52,1.272,18.47,2.852,25.813l0.037,0.125l-0.233-0.228l0.758,2.023l0.011,0.436 h0.135c0.998,3.128,2.069,6.438,3.255,9.687l0.115,0.316l0.336,0.013c7.282,0.272,16.887,0.595,26.595,0.668 c2.545,0.049,5.191,0.074,7.865,0.074c38.881,0,77.562-5.338,114.943-15.86c19.479-4.452,38.068-12.227,56.047-19.746 c2.734-1.144,5.471-2.287,8.21-3.421c-0.134,0.112-0.267,0.225-0.398,0.336c-2.051,1.731-3.988,3.366-5.176,3.891l-0.144,0.096 c-1.228,1.173-3.502,2.722-6.134,4.515c-7.449,5.073-16.719,11.387-14.248,16.848c1.56,2.75,4.705,2.27,7.234,1.883 c0.673-0.103,1.309-0.2,1.908-0.242c10.864-1.134,20.753-5.872,30.316-10.455c1.946-0.933,3.89-1.863,5.819-2.756 c39.865-16.512,73.458-44.925,105.944-72.402l1.621-1.371L375.048,269.179z M222.284,184.822c-0.907,0.346-1.867,0.642-2.883,0.955 c-2.933,0.905-5.964,1.841-7.986,4.075c-1.546,0.686-2.447,2.21-2.305,3.915c0.142,1.687,1.3,3.019,2.938,3.389 c0.447,0.116,1.032,0.171,1.723,0.171c5.236,0,16.5-3.194,19.25-7.485c0.99-1.546,0.868-3.155-0.385-4.687 C229.579,182.032,225.363,183.645,222.284,184.822z M194.687,365.128c0.48,0.252,1.186,0.366,2.044,0.366 c4.311,0,12.487-2.891,15.58-5.908c1.852-1.807,1.617-3.253,1.131-4.07c-0.458-1.229-1.246-2.073-2.343-2.51 c-3.205-1.269-8.308,1.243-12.035,3.08c-1.017,0.501-1.895,0.934-2.573,1.21l-2.698,1.103c-1.758,0.659-2.328,2.37-2.113,3.774 C191.89,363.544,192.899,364.97,194.687,365.128z M68.795,383.027c6.891,0,13.629-1.327,20.158-2.613h0.001 c0.249-0.05,0.514-0.099,0.79-0.15c2.159-0.4,4.847-0.898,5.996-2.645c0.522-0.794,0.66-1.759,0.404-2.888 c-0.473-1.759-2.068-2.768-4.74-3c-1.386-0.966-3.14-0.805-4.692-0.662c-0.485,0.044-0.962,0.089-1.453,0.099 c-6.694,0.632-13.672,1.693-21.284,3.238c-1.402,0.139-2.714,0.949-3.424,2.114c-0.611,1.002-0.71,2.151-0.272,3.254 c1.239,2.797,4.627,3.049,7.135,3.235C67.875,383.021,68.335,383.027,68.795,383.027z M366.724,333.253 c-1.429,1.45-2.907,2.948-4.73,4.053c-3.994,2.202-7.988,4.44-11.989,6.684c-20.326,11.394-41.344,23.175-63.707,30.722 c-53.821,19.992-111.447,30.473-155.631,37.368c-17.488,2.461-40.455,5.079-62.929,3.491c-1.147-0.248-2.212,0.015-2.998,0.743 l-0.359,0.333l0.998,1.119c1.573,1.769,3.143,3.541,4.732,5.358l2.243,2.133c0.799,0.741,1.607,1.47,2.409,2.208 c-0.129,0.09-0.219,0.233-0.219,0.402c0,0.276,0.224,0.5,0.5,0.5c0.185,0,0.34-0.105,0.426-0.254c0.13,0.119,0.26,0.238,0.39,0.357 c-0.171,0.079-0.292,0.25-0.292,0.451c0,0.113,0.044,0.212,0.107,0.296l0.122,0.244h0.309v-0.001 c0.218-0.001,0.398-0.142,0.466-0.336c1.124,1.03,2.241,2.069,3.371,3.09l0.182,0.105c0.256,0.082,0.477,0.215,0.657,0.396 c0.487,0.49,1.033,0.974,1.725,1.527c2.95,2.282,6.067,4.3,8.728,5.973c1.585,0.998,3.218,1.971,4.797,2.911 c1.392,0.828,2.783,1.657,4.163,2.514l0.439,0.269c0.521,0.246,1.041,0.489,1.561,0.731l0.131,0.062l0.144-0.019 c6.81-0.869,13.669-0.969,18.882-0.953c13.734,0.22,27.563-1.48,40.945-3.119c3.763-0.46,7.522-0.921,11.308-1.345 c5.104-0.826,10.318-1.556,15.361-2.262c11.148-1.56,22.676-3.174,33.8-5.938c30.393-7.531,58.121-18.304,82.405-32.014 c5.777-3.094,11.724-6.124,17.474-9.055c11.124-5.668,22.626-11.529,33.557-18.203c0.708-0.646,1.985-1.333,3.338-2.062 c1.124-0.605,2.286-1.231,3.321-1.931l0.116-0.078l0.059-0.126c0.548-1.186,1.076-2.379,1.597-3.587 c1.595-3.92,2.894-7.509,3.974-10.982c0.368-1.287,0.729-2.576,1.087-3.879c0.197-0.798,0.388-1.598,0.576-2.396 c0.042-0.177,0.106-0.349,0.192-0.511l0.042-0.106c0.281-1.065,0.557-2.132,0.837-3.251l0.138-0.957 c0.409-2.846,0.832-5.789,1.191-8.688c0.246-1.959,0.459-4.006,0.631-6.084l0.069-0.832l-0.767,0.332 C370.245,329.681,368.455,331.497,366.724,333.253z M323.61,428.841c-4.024,2.02-8.283,4.062-13.016,6.239 c-0.783,0.038-1.531,0.325-2.121,0.814c-0.407,0.106-0.796,0.285-1.169,0.541l-0.483,0.362 c-13.884,6.239-28.953,12.173-44.758,17.629c-16.159,4.38-32.403,7.913-44.727,10.497c-2.513,0.407-5.024,0.831-7.535,1.254 c-8.094,1.364-16.462,2.774-24.858,3.648c-0.959,0.3-2.975,0.382-5.108,0.469c-2.982,0.121-6.361,0.258-8.762,0.983l-1.597,0.482 l1.599,0.476c1.554,0.462,3.111,0.9,4.724,1.345c0.776,0.137,1.554,0.273,2.343,0.416c1.41,0.218,2.813,0.452,4.215,0.697 c0.972,0.173,1.94,0.377,2.907,0.581l1.341,0.279c1.177,0.243,2.354,0.463,3.539,0.671l0.073,0.014l0.582-0.078 c0.179,0.091,0.363,0.176,0.559,0.251l0.105,0.027c3.449,0.518,6.891,0.938,10.132,1.327c2.632,0.253,4.957,0.442,7.112,0.577 c4.759,0.248,9.075,0.368,13.194,0.368c22.497,0,39.554-3.743,53.681-11.78c2.81-1.601,5.817-3.356,9.465-5.528 c0.229-0.136,0.438-0.291,0.566-0.409c1.568-0.941,3.183-1.955,4.793-3.007c3.317-2.089,5.857-3.743,8.236-5.363 c0.785-0.536,1.557-1.089,2.328-1.643l0.687-0.499c0.799-0.402,1.666-1.018,2.695-1.909c1.309-0.955,2.612-1.917,3.916-2.878 l0.991-0.731c0.521-0.386,0.928-0.898,1.185-1.489c0.595-0.447,1.211-0.926,1.759-1.422l1.383-0.624l0.167-0.118 c1.196-1.104,2.376-2.222,3.544-3.359c0.962-0.938,1.908-1.888,2.854-2.838c0.873-0.877,1.746-1.754,2.63-2.619 c1.094-1.066,2.19-2.132,3.287-3.189l0.703-0.679l-0.961-0.174C325.082,428.319,324.321,428.454,323.61,428.841z"
              fill="#FBACA7"/>
    </g>
    <g id="change4_1">
        <path d="M209.273,147.747l1.293,0.876l-2.018,0.079l-0.061-0.998l0.568-0.051L209.273,147.747z M196.977,287.184 c-4.609-1.227-9.184,0.048-12.547,3.498c-3.419,3.506-4.835,8.467-3.609,12.639c1.127,3.835,4.377,6.554,9.128,7.648 c1.036,0.293,2.065,0.438,3.072,0.438c2.816,0,5.466-1.134,7.668-3.326c3.58-3.563,5.196-9.233,3.93-13.786 C203.611,290.674,200.897,288.148,196.977,287.184z M282.676,258.456c-7.184-0.687-11.414,7.577-12.55,10.14 c-1.212,2.901-0.945,5.922,0.77,8.734c2.218,3.639,6.604,6.317,10.966,6.666c8.318-0.204,12.817-6.673,12.963-12.957 C294.958,265.214,291.254,259.065,282.676,258.456z M197.851,142.355l-0.682-0.703c-0.754-0.776-1.512-1.549-2.278-2.314 l0.018-0.002l-0.737-0.725c-0.71-0.697-1.436-1.375-2.176-2.042l-2.99-2.588c-7.81-5.297-15.607-10.616-23.407-15.934 C125.742,90.869,84.529,62.764,42.243,37.899l-0.101-0.045c-1.061-0.34-2.475-1.33-3.971-2.378c-3.284-2.3-7.367-5.16-9.737-2.146 c-0.616,0.341-1.407,1.06-1.875,2.572l-0.034,0.108l0.017,0.112c1.873,12.801,3.715,25.856,5.496,38.481 c7.166,50.787,14.576,103.303,26.062,154.108l0.285,1.258l1.338-2.342c0.361-0.761,0.734-1.518,1.118-2.266 c0.199-0.385,0.394-0.772,0.589-1.16c0.408-0.812,0.817-1.625,1.261-2.412c0.255-0.449,0.505-0.901,0.755-1.355 c0.463-0.841,0.942-1.71,1.45-2.532l2.426-3.914c0.498-0.804,1.055-1.601,1.593-2.371c0.247-0.353,0.493-0.705,0.735-1.059 c0.601-0.879,1.265-1.741,1.908-2.574l0.458-0.595c0.822-1.071,1.585-1.991,2.333-2.812c1.579-1.735,3.269-3.573,5.052-5.297 l0.454-0.439c1.573-1.752,3.372-3.566,5.499-5.545l1.113-1.032c1.086-1.007,2.172-2.013,3.255-3.024l0.349-0.326 c0.479-0.449,0.957-0.896,1.441-1.339c0.858-0.792,1.831-1.688,2.966-2.266l0.1-0.067c0.665-0.571,1.276-1.059,1.876-1.495 c0.101-0.075,0.212-0.139,0.351-0.202l0.109-0.067c0.076-0.061,0.155-0.118,0.238-0.179l1.576-1.183 c1.622-1.221,3.298-2.483,4.995-3.646c0.569-0.391,1.137-0.785,1.705-1.179c1.702-1.182,3.462-2.405,5.242-3.52l4.366-2.734 c0.405-0.252,0.825-0.485,1.307-0.75l2.129-1.582c2.485-1.847,5.073-3.547,7.051-4.821c0.803-0.519,1.63-1.005,2.455-1.491 c0.395-0.232,0.789-0.464,1.178-0.698c0.714-0.426,1.432-0.842,2.15-1.258l0.904-0.525l0.169-0.143 c1.203-1.108,2.601-1.899,4.08-2.736l0.679-0.386c0.91-0.524,1.87-1.013,2.798-1.487c0.408-0.208,0.817-0.417,1.223-0.628 c0.839-0.439,1.733-0.835,2.598-1.217c0.401-0.178,0.802-0.355,1.2-0.537c1.049-0.485,2.135-0.926,3.185-1.354l0.222-0.09 c0.484-0.196,0.973-0.38,1.461-0.564l0.601-0.23l0.683-0.18c0.817,0.552,1.849,0.736,2.847,0.507c0.865,0.57,1.946,0.738,2.886,0.45 c3.861-1.182,7.063-2.115,10.089-2.94c9.474-2.804,19.169-4.322,29.949-5.88L197.851,142.355z"
              fill="#3E4677"/>
    </g>
    <g id="change5_1">
        <path d="M49.017,96.255c-3.001,4.411-6.105,8.971-9.416,13.277c-0.3,0.368-0.638,0.815-1.01,1.31l-1.104,1.455 l-0.201-1.123c-0.283-1.582-0.553-3.165-0.822-4.746l-0.377-2.206c-0.959-5.604-1.789-11.206-2.475-15.947l-0.286-1.958 c-0.578-3.966-1.156-7.932-1.7-11.901L31.6,74.219l0.116-0.162c3.236-4.528,6.626-9.055,9.906-13.433 c1.729-2.309,3.46-4.62,5.177-6.941c2.238-3.059,4.597-6.104,6.633-8.717l0.266-0.341l1.529,0.869 c1.416,0.803,2.831,1.605,4.232,2.432c1.821,1.073,3.667,2.123,5.486,3.121c1.843,1.011,3.641,2.077,5.001,2.893 c1.74,1.104,3.46,2.22,5.179,3.335l0.648,0.42c0.428,0.278,0.857,0.553,1.287,0.828l0.438,0.28l-0.297,0.427 c-0.726,1.043-1.58,2.039-2.405,3.001c-0.946,1.103-1.839,2.145-2.564,3.258l-0.023,0.032c-1.569,2.035-3.141,4.066-4.713,6.099 c-5.183,6.698-10.542,13.624-15.676,20.531C50.888,93.505,49.953,94.88,49.017,96.255z M122.545,88.215l-1.035-0.869l0.002-0.002 c-0.308-0.259-0.616-0.517-0.926-0.773l-3.385-2.154c-1.055-0.671-2.106-1.348-3.149-2.037l0,0l-0.147-0.097l0,0.001l-0.018-0.012 l0,0l0,0l-0.037-0.025l-0.001,0.002l-0.067-0.048c-1.515-0.987-3.034-1.965-4.576-2.917c-1.118-0.692-2.257-1.356-3.396-2.019 l-1.143-0.667c-2.525-1.474-4.898-3.14-7.558-5.034c-0.51-0.292-1.019-0.587-1.48-0.856l-0.526-0.278l-0.244,0.374 c-0.774,1.187-1.527,2.39-2.28,3.593c-1.316,2.103-2.677,4.277-4.132,6.32c-5.319,7.799-10.814,15.673-16.128,23.288 c-10.083,14.448-20.51,29.388-30.188,44.474l-0.102,0.159l0.028,0.187c0.304,2.001,0.581,4.006,0.85,6.01 c0.04,0.295,0.079,0.59,0.123,0.888c0.466,3.079,0.977,6.38,1.552,9.663c0.321,1.857,0.636,3.715,0.95,5.574 c0.6,3.547,1.22,7.215,1.882,10.812c0.2,1.101,0.412,2.201,0.631,3.305c0.285,1.38,0.603,2.752,0.92,4.124l0.019,0.08l-0.011,0.02 l0.043,0.19c0.121,0.532,0.247,1.061,0.378,1.617c0.164,0.682,0.334,1.364,0.512,2.042l0.074,0.232 c0.408,1.556,0.829,3.076,1.25,4.523l0.334,1.148l0.582-1.044c3.427-6.149,6.973-12.365,10.402-18.377 c2.323-4.072,4.646-8.146,6.948-12.223c15.206-25.879,32.958-52.397,52.765-78.815L122.545,88.215z M171.269,121.336 c-0.664-0.522-1.325-1.051-1.986-1.579c-0.746-0.597-1.493-1.194-2.247-1.783l-5.599-3.398l-0.288-0.172 c-0.044-0.022-0.084-0.051-0.142-0.088l-2.962-1.792c-2.684-1.619-5.366-3.237-8.032-4.879l-1.532-0.955 c-0.446-0.279-0.892-0.557-1.335-0.838l-0.304-0.193l-0.279,0.226c-0.272,0.221-0.517,0.492-0.751,0.849 c-5.852,10.991-11.982,22.065-17.392,31.838c-6.816,12.446-12.543,23.646-17.506,34.241l-0.76,1.623l2.296-1.532 c0.618-0.414,1.258-0.795,1.896-1.176l2.315-1.403c1.243-0.758,2.486-1.517,3.747-2.247l0.252-0.147 c0.387-0.225,0.774-0.451,1.167-0.665l5.56-3.038c0.609-0.34,1.22-0.682,1.848-0.988l5.167-2.55c0.767-0.378,1.561-0.769,2.359-1.11 l0.004-0.002l0-0.002l0.538-0.23c2.363-1.014,4.808-2.062,7.249-2.993l2.538-0.968l0.046-0.11c0.069-0.004,0.139-0.008,0.209-0.011 l0.157-0.032c1.792-0.683,3.375-1.264,4.838-1.776l5.023-1.746c0.689-0.241,1.389-0.45,2.09-0.657l0.203-0.06l1.662-3.157 l0.48-0.986c1.005-2.077,2.045-4.226,3.192-6.258c0.604-1.075,1.22-2.151,1.864-3.255c0.585-1.25,1.175-2.502,1.769-3.752 l0.134-0.283c1.014-2.138,2.062-4.35,3.236-6.481l0.09-0.161c0.533-0.964,1.076-1.918,1.632-2.868l0.223-0.38l-0.349-0.269 C172.811,122.544,172.039,121.942,171.269,121.336z M270.932,291.106c-0.067-0.542-0.266-1.036-0.589-1.469l-0.07-0.094 l-0.104-0.053c-0.299-0.151-0.603-0.29-0.938-0.437c-0.209-0.076-0.421-0.148-0.634-0.222l-0.358-0.122l-0.1,0.006 c-0.728,0.046-1.488,0.117-2.452,0.235l-0.529,0.122l-0.101,0.101c-0.057,0.057-0.113,0.117-0.169,0.181 c-0.649,0.098-1.293,0.295-1.917,0.485c-0.604,0.186-1.174,0.36-1.776,0.453l-1.521,0.382c-4.678,1.178-9.515,2.396-14.295,3.666 c-2.677,0.713-5.348,1.453-8.018,2.192c-2.815,0.78-5.63,1.56-8.389,2.296c-0.812,0.109-1.577,0.458-2.167,0.985 c-1.303,0.493-2.188,1.65-2.267,3.067c2.138,16.18,5.367,40.632,25.909,45.421c0.4,0.032,0.793,0.045,1.177,0.045 c4.12,0,7.702-1.725,10.646-5.127C272.082,331.886,272.753,303.689,270.932,291.106z"
              fill="#A16B9F"/>
    </g>
</svg>