<svg xmlns="http://www.w3.org/2000/svg" xmlns:xlink="http://www.w3.org/1999/xlink" height="467.2"
     preserveAspectRatio="xMidYMid meet" version="1.0" viewBox="0.0 -0.6 366.3 467.2" width="366.3"
     zoomAndPan="magnify">
    <g id="change1_1">
        <path d="M359.105,239.1c0.011-1.55-0.672-2.805-1.923-3.532c-1.382-0.803-3.245-0.797-4.637,0.011 c-1.266,0.735-1.954,1.989-1.94,3.537c0.256,10.822,0.062,22.268-0.592,34.972c-2.331-0.665-4.902,1.16-6.418,2.28 c-2.466-0.17-4.721,1.131-6.901,2.387c-1.307,0.752-2.656,1.529-3.994,1.941c-3.737-0.688-7.258,0.885-10.668,2.404 c-1.451,0.646-2.823,1.258-4.207,1.704c-6.916,0.755-13.692,2.385-20.144,4.844c-7.714-2.405-22.882,6.182-28.352,9.873 c-6.187-1.091-12.559,1.174-18.215,3.223c-3.267-2.248-7.179-1.665-10.969-1.098c-1.529,0.229-2.977,0.445-4.366,0.479 c-7.616-3.21-16.621-0.314-23.912,2.076c-1.505-4.309-6.288-6.385-10.427-6.181c-9.407,0.965-15.804,8.821-21.447,15.752 c-1.233,1.515-2.401,2.948-3.586,4.306c-0.392,0.045-0.785,0.094-1.17,0.151c-0.78,0.106-1.58,0.236-2.383,0.389 c-4.053-3.29-11.256-1.772-17.063-0.548c-1.697,0.357-3.301,0.695-4.711,0.889c-5.535,1.407-10.437,3.408-14.594,5.966 c-2.253,1.579-4.386,3.073-7.231,3.152c-2.522-4.076-7.771-4.39-12.412-4.668c-1.07-0.063-2.08-0.124-3.019-0.229 c-5.851-0.603-14.041,0.18-17.874,4.368c-1.736,1.897-2.398,4.299-1.972,7.146c-4.045,0.362-8.197,0.37-12.218,0.378 c-4.668,0.01-9.491,0.019-14.176,0.581c-2.695-4.159-6.691-6.662-10.558-9.084c-4.433-2.775-8.622-5.399-11.114-10.327 c0.658-2.812-0.447-4.254-1.176-4.868c-1.224-1.03-3.068-1.225-4.697-0.495c-1.43,0.641-2.421,1.883-2.787,3.437 c-0.941-0.876-2.232-1.309-3.512-1.097c-1.531,0.377-2.576,1.191-3.104,2.42c-1.744,4.053,2.538,11.593,5.978,17.651 c1.304,2.296,2.43,4.279,2.906,5.574c9.75,17.613,20.733,34.088,29.214,46.477c12.558,18.097,26.378,35.285,41.836,54.266 c0.086,0.175,0.176,0.349,0.296,0.521l0.099,0.135c3.742,5.128,7.611,10.431,11.921,15.19l1.791,2.239 c0.373,0.465,0.798,0.85,1.266,1.144c0.238,0.336,0.472,0.66,0.695,0.97c0.286,0.396,0.554,0.768,0.789,1.108 c0.25,0.355,0.551,0.668,0.92,0.953c2.468,4.053,14.792,4.166,23.809,4.249c3.162,0.029,5.893,0.054,7.258,0.274 c4.04,0.111,8.011,0.168,11.927,0.168c38.938-0.001,71.795-5.545,100.109-16.859c20.354-6.92,40.053-16.734,58.553-29.169 l0.141-0.144c0.162-0.251,0.384-0.465,0.639-0.618c1.083-0.64,2.142-1.302,3.221-1.983l0.539-0.376 c1.144-0.836,2.061-1.534,2.885-2.196c1.001-0.802,1.979-1.65,2.925-2.472l0.144-0.125c1.896-1.739,3.773-3.531,5.742-5.479 l0.946-1.005l0.02-0.163c0.258-2.221,0.509-4.441,0.756-6.661c0.282-2.516,0.481-4.617,0.627-6.613 c0.063-0.866,0.099-1.736,0.134-2.606c0.046-1.14,0.094-2.318,0.209-3.47c0.024-0.264,0.102-0.519,0.23-0.758l0.059-0.195 c1.375-16.253,2.789-32.503,4.207-48.756c0.429-4.867,0.876-9.734,1.322-14.603C357.245,295.087,359.829,266.938,359.105,239.1z M43.11,327.447c-0.328-0.638-0.652-1.273-0.972-1.907c0.38,0.418,0.78,0.839,1.199,1.261 C43.249,327.012,43.173,327.227,43.11,327.447z M111.224,333.956c-0.592-0.246-1.226-0.391-1.845-0.423 c-0.327-0.058-0.691-0.086-1.114-0.086c-0.554,0-1.116,0.054-1.66,0.105l-0.117,0.011c-1.463,0.145-2.853,0.285-3.902-0.537 c3.345-1.938,7.598-1.598,11.716-1.263c0.539,0.043,1.065,0.086,1.582,0.123C114.335,332.625,112.795,333.33,111.224,333.956z M203.823,307.869c-4.303,2.406-8.186,5.266-11.546,8.505c-1.083,0.046-2.281,0.104-3.501,0.206 c0.631-0.669,1.278-1.401,1.951-2.162c3.211-3.634,6.852-7.752,11.125-7.752c0.631,0,1.273,0.093,1.911,0.276 c0.018,0.023,0.034,0.051,0.048,0.081C203.909,307.229,203.911,307.559,203.823,307.869z"
              fill="#3E4677"/>
    </g>
    <g id="change2_1">
        <path d="M364.87,256.242c-0.052,1.373-0.134,2.524-0.251,3.578c-0.142,1.054-0.331,2.086-0.565,3.078 c-0.268,1.019-0.588,2.014-0.973,3.045l0.007,0.003l-0.001,0.003l-0.032,0.077l-0.004,0.114l-0.001,0.001v0.002l-0.004,0.004 l-0.1,0.138c-0.551,1.351-1.217,2.736-1.957,4.073c-0.953,1.639-2.052,3.298-3.362,5.081c-0.797,1.061-1.625,2.079-2.258,2.848 c-0.518,0.445-0.979,0.816-1.442,1.182l-0.131,0.073c-25.378,9.674-52.612,18.696-83.257,27.582 c-68.268,18.517-124.559,28.42-177.161,31.167c-1.316-0.082-3.924-0.1-7.226-0.122c-12.041-0.081-34.416-0.231-42.995-3.799 c-1.214-0.02-2.277-0.541-3.004-1.475c-8.406-10.712-14.965-19.993-19.656-30.466c-16.955-31.943-9.771-86.2,0.75-114.515 C39.653,137.031,84.048,95.67,137.104,79.977c26.622-8.468,66.346-15.458,104.363-0.643c27.655,10.67,52.761,27.133,72.602,47.609 c21.155,21.833,35.764,47.849,42.246,75.234c3.787,14.936,6.389,29.861,7.73,44.35C364.337,249.673,364.616,252.941,364.87,256.242z M19.809,114.186c3.724,3.458,8.031,4.856,12.144,4.856c3.682,0,7.208-1.121,10.016-2.889c7.014-4.415,9.957-12.373,7.493-20.291 c-3.265-9.282-16.362-12.941-25.515-9.874c-4.952,2.42-8.509,7.65-9.281,13.647C13.931,105.337,15.854,110.775,19.809,114.186z"
              fill="#FBACA7"/>
    </g>
    <g id="change3_1">
        <path d="M271.824,324.515L271.824,324.515L271.824,324.515L271.824,324.515z M271.88,324.8l-0.057-0.284 l-0.036,0.008L271.88,324.8z M271.998,324.989c0.004-0.001,0.008-0.002,0.012-0.003 C272.005,324.987,272.002,324.988,271.998,324.989l-0.109-0.488l-0.064,0.014l0.134,0.482c-0.012,0.002-0.024,0.005-0.036,0.008 c0.012-0.003,0.024-0.005,0.036-0.008l0.134,0.482l-0.017-0.1l0.032,0.097L271.998,324.989z M0,241.94l0.796,3.361l0.397-3.929 l-0.978-0.188L0,241.94z M366.256,254.136c-0.601-6.211-1.463-12.898-2.637-20.447l-0.001-0.004 c-0.254-1.558-0.503-3.119-0.753-4.683c-1.692-10.588-3.442-21.537-6.692-31.939c-0.573-1.461-1.104-2.97-1.617-4.429 c-0.373-1.059-0.746-2.119-1.142-3.181c-0.067-0.171-0.135-0.338-0.214-0.526c-0.153-0.33-0.311-0.66-0.471-0.988l0.003-0.001 c-0.858-1.72-1.681-3.453-2.504-5.188l-0.556-1.168l-0.146-0.078c-12.912-6.812-26.384-10.764-40.058-11.749 c-13.707-0.544-27.49-0.193-39.649,0.117l-0.394,0.01c-51.19,1.295-95.393,2.411-131.376-47.877 c-6.826-10.268-14.478-22.312-18.892-35.325l-0.171-0.504l-0.493,0.203c-2.11,0.869-4.207,1.768-6.303,2.666l-0.3,0.129 l-0.005-0.011l-1.142,0.536c-1.948,0.914-3.962,1.858-5.919,2.84c-2.404,1.202-4.957,2.509-8.035,4.113 c-0.639,0.333-1.277,0.67-1.945,1.03l-0.242,0.155c-1.493,0.958-2.988,1.917-4.461,2.905c-1.317,0.883-2.63,1.77-3.943,2.657 l-0.397,0.268l0.251,0.408c0.036,0.058,0.072,0.116,0.127,0.195c2.603,3.391,4.602,6.261,6.284,9.024 c19.041,32.896,42.737,73.837,83.921,90.145c14.06,5.533,29.266,6.339,43.972,7.119c4.095,0.217,8.329,0.442,12.457,0.766 c39.681,3.096,80.901,20.524,122.541,51.817c0.359,0.237,0.722,0.474,1.139,0.729c0.121,0.058,0.235,0.129,0.387,0.244 c0.809,0.498,1.627,0.979,2.443,1.457l1.244,0.733c0.446,0.269,0.896,0.534,1.345,0.8l0.412,0.243l0.358-0.554 c0.344-0.609,0.672-1.222,0.996-1.873c0.471-1.095,0.89-2.213,1.287-3.433c0.423-1.457,0.743-2.804,0.979-4.135 c0.06-0.412,0.115-0.825,0.158-1.235l0.037-0.35c0.016-0.151,0.031-0.305,0.055-0.511c0.007-0.336,0.019-0.679,0.06-1.013 l0.007-0.054L366.256,254.136z M171.557,76.813c0.158,0.266,0.308,0.535,0.458,0.804l0.016,0.026 c9.057,14.141,34.045,46.877,70.425,45.506c4.48-0.393,8.654-0.825,12.691-1.243c17.412-1.802,31.168-3.224,46.217,1.214 c0.835,0.175,1.682,0.409,2.501,0.635l0.405,0.112c2.016,0.559,4.156,1.232,6.738,2.12c0.5,0.17,0.994,0.346,1.488,0.528 l1.403,0.517l-0.811-1.257c-0.64-0.994-1.287-1.98-1.957-2.958c-0.729-1.065-1.495-2.098-2.287-3.157 c-0.458-0.587-0.912-1.178-1.366-1.768c-0.736-0.957-1.473-1.914-2.224-2.858l-0.523-0.662c-0.408-0.518-0.817-1.038-1.269-1.566 l-1.74-1.763c-2.738-2.27-5.476-4.415-8.125-6.369c-32.181-25.089-61.85-35.055-105.878-35.541c-2.053,0.211-4.179,0.482-6.5,0.827 c-2.051,0.308-4.482,0.694-6.955,1.229c-1.166,0.255-2.319,0.53-3.475,0.824c-0.381,0.095-0.767,0.202-1.148,0.313l-0.615,0.18 l1.198,2.037C170.67,75.299,171.115,76.052,171.557,76.813z M280.578,304.625l0.731-0.196l-0.467-0.596 c-7.398-9.439-15.564-19.008-24.967-29.253c-19.022-20.663-44.433-35.744-71.59-42.471c-0.379-0.061-0.78-0.061-1.222,0 c-7.406-1.548-15.144-2.251-22.627-2.932c-16.335-1.485-33.228-3.021-47.129-13.538c-25.466-17.601-41.984-45.05-53.562-67.051 c-0.353-0.503-0.701-1.015-1.038-1.53l-0.338-0.514c-0.382-0.579-0.766-1.158-1.119-1.757c-0.152-0.256-0.309-0.511-0.466-0.767 c-0.323-0.525-0.647-1.052-0.932-1.594l-1.301-2.476c-0.266-0.506-0.501-1.031-0.737-1.555c-0.118-0.262-0.236-0.524-0.356-0.78 c-0.239-0.521-0.463-1.05-0.679-1.578l-0.306-0.749l-0.533,0.608c-0.718,0.82-1.428,1.644-2.122,2.483l-4.192,5.034 c-0.413,0.488-0.826,0.976-1.218,1.484l-5.813,7.547c-0.427,0.558-0.833,1.134-1.237,1.709l-1.902,2.671 c-0.936,1.444-1.859,2.899-2.78,4.379c-0.829,1.451-1.768,3.095-2.596,4.772l-1.157,2.336c-0.917,1.852-1.835,3.705-2.749,5.559 l-0.011-0.005l-3.629,8.008c-0.723,1.595-1.412,3.234-2.078,4.82c-0.336,0.799-0.671,1.597-1.012,2.392 c-0.38,0.881-0.72,1.782-1.06,2.681c-0.162,0.43-0.324,0.858-0.49,1.283l-0.038,0.096c-0.384,0.978-0.768,1.953-1.113,2.944 c-0.2,0.568-0.399,1.136-0.595,1.707l-0.067,0.198l0.519,1.038c0.616,1.227,1.199,2.386,1.57,3.383 c18.101,33.488,56.743,88.366,115.589,88.36c2.006-0.001,4.044-0.064,6.097-0.195c37.148-4.701,68.81,3.01,99.646,24.258 l0.204,0.141l0.235-0.078c0.55-0.18,1.038-0.179,1.491,0.003l0.258,0.115l0.171-0.044c0.849-0.221,1.699-0.438,2.551-0.651 c4.199-1.058,8.531-2.057,12.919-2.979c0.533-0.164,1.066-0.327,1.6-0.483c0.939-0.275,1.87-0.573,2.802-0.872l1.18-0.376 c1.597-0.5,3.194-0.949,4.693-1.367l4.739-1.317l0.002,0.006l6.173-1.746C279.204,304.995,279.89,304.809,280.578,304.625z M138.872,423.98c-1.231-1.654-2.461-3.309-3.682-4.969l-0.004-0.006c-8.043-10.633-15.896-21.682-23.49-32.367 c-3.446-4.849-6.895-9.701-10.384-14.549c-3.49-4.658-6.998-9.303-10.506-13.947c-2.947-3.901-5.894-7.803-8.83-11.712l-0.156-0.208 l-0.26,0.008c-0.9,0.029-1.801,0.055-2.702,0.08c-0.902,0.024-1.803,0.05-2.705,0.079c-1.238,0.04-2.476,0.078-3.715,0.113 l-0.963,0.027l0.577,0.772c23.348,31.234,50.797,68.324,77.359,106.587l0.084,0.121l0.137,0.057c0.728,0.299,1.431,0.45,2.089,0.45 c1.586,0,2.869-0.873,3.521-2.394c0.857-2.002,0.367-4.55-1.19-6.217C149.488,438.254,144.091,430.998,138.872,423.98z M76.376,339.211l-0.004-0.008c0.657,0.046,1.314,0.086,1.971,0.114l0.733,0.031c4.34-0.01,8.75-0.136,13.016-0.258l3.455-0.097 c3.313-0.091,6.627-0.207,9.94-0.324l3.821-0.133c0.869-0.03,1.737-0.072,2.605-0.114l0.581-0.028l0.006,0.013l4.263-0.217 c1.856-0.096,3.713-0.191,5.583-0.275l9.886-0.704c1.712-0.117,3.483-0.238,5.224-0.447l5.858-0.699l0.556-0.102 c0.16-0.029,0.327-0.04,0.576-0.034l3.742-0.446c1.609-0.194,3.162-0.491,4.904-0.838l0.28-0.074 c1.374-0.496,2.748-0.984,4.122-1.468l4.958-1.761l-0.885-0.55c-7.417-4.604-13.914-7.691-20.444-9.712 c-11.172-3.564-22.981-4.737-34.401-5.871c-3.161-0.313-6.429-0.639-9.63-1.009c-17.308-1.902-35.451-4.591-50.327-14.516 c-19.811-14.126-30.337-34.859-35.679-49.766l-0.834-2.326l-0.136,2.468c-0.019,0.337-0.033,0.673-0.048,1.007l-0.207,4.138 l-0.004,3.539c0,0.291-0.003,0.583-0.007,0.875c-0.007,0.662-0.015,1.326,0.015,1.989c0.031,0.637,0.058,1.273,0.085,1.911 c0.067,1.594,0.137,3.241,0.272,4.864l0.105,1.258l0.027,0.134c2.631,18.415,10.342,37.505,24.261,60.061 c0.068,3.781,4.746,4.676,8.514,5.396c1.15,0.22,2.236,0.428,3.105,0.703c1.459,0.332,2.96,0.648,4.502,0.947 c2.083,0.227,4.162,0.449,6.244,0.668c2.545,0.269,5.311,0.53,8.448,0.797l0.284,0.032c2.424,0.205,4.851,0.394,7.279,0.571 L76.376,339.211z M183.055,435.834c-1.345-2.111-2.736-4.294-3.997-6.471l-0.005-0.01c-15.597-25.698-34.071-55.939-52.831-85.395 l-0.162-0.255l-0.301,0.025c-0.881,0.073-1.762,0.145-2.678,0.218c-1.876,0.283-3.755,0.561-5.633,0.835l-0.765,0.112l0.415,0.651 c25.624,40.207,46.444,74.033,65.521,106.451c0.588,2.241,2.42,3.042,3.951,3.042c1.377,0,2.695-0.595,3.524-1.592 c0.762-0.915,1.042-2.062,0.785-3.411C188.904,445.013,185.93,440.347,183.055,435.834z M219.429,430.428 c-1.795-3.613-3.589-7.228-5.343-10.858l-0.001-0.002c-8.67-17.705-17.642-35.621-26.318-52.948 c-5.042-10.067-10.083-20.135-15.095-30.217l-0.176-0.354l-5.622,1.312c-0.756,0.177-1.509,0.354-2.263,0.522l-0.622,0.141 l0.284,0.57c5.009,10.064,10.037,20.119,15.064,30.174c13.326,26.649,27.105,54.206,40.283,81.484 c0.689,1.547,2.008,2.435,3.617,2.435c1.555,0,3.091-0.834,3.914-2.125c0.742-1.163,0.81-2.535,0.191-3.864 C224.795,441.232,222.067,435.739,219.429,430.428z M250.24,414.635c-0.634-2.082-1.269-4.164-1.896-6.247v-0.002 c-3.749-12.226-6.953-24.389-10.613-38.9c-3.691-13.415-7.419-26.131-11.365-39.594l-1.79-6.108 c-0.062-0.172-0.13-0.334-0.203-0.488l-0.169-0.352l-0.382,0.077c-2.366,0.48-4.734,0.963-7.101,1.448l-0.37,0.076l-0.028,0.377 c-0.044,0.592,0.05,1.201,0.269,1.786c5.14,16.579,9.766,33.773,14.239,50.401c5.955,22.135,12.112,45.022,19.539,66.651l0.08,0.233 l0.233,0.079c0.956,0.319,1.814,0.481,2.553,0.481c1.235,0,2.182-0.44,2.812-1.308c1.384-1.906,1.127-5.823-0.759-11.624 C253.682,425.938,251.932,420.192,250.24,414.635z M281.072,311.242c-1.416-0.786-3.298-0.743-4.684,0.108 c-1.239,0.763-1.889,2.026-1.828,3.569c1.259,20.562,0.772,41.512,0.303,61.771c-0.429,18.453-0.871,37.535,0.002,56.289 c0.014,1.554,0.719,2.799,1.985,3.506c0.669,0.373,1.446,0.559,2.226,0.559c0.844,0,1.69-0.218,2.406-0.65 c1.253-0.758,1.922-2.024,1.882-3.561c-0.048-5.053-0.112-10.105-0.177-15.157c-0.123-9.721-0.251-19.771-0.257-29.662 c-0.061-8.798,0.249-17.752,0.548-26.412c0.532-15.365,1.081-31.256-0.416-46.876C283.046,313.183,282.339,311.946,281.072,311.242z M324.13,295.308l-0.062-0.007l-0.062,0.009c-4.674,0.671-4.46,5.245-4.272,9.281c0.078,1.665,0.151,3.238-0.117,4.527 c-0.198,4.901-0.584,9.989-1.145,15.114c-2.035,16.392-3.796,33.088-5.499,49.234c-0.414,3.934-0.829,7.868-1.247,11.794 c-0.446,3.663-0.796,7.396-1.133,11.007c-0.452,4.833-0.919,9.83-1.617,14.668l-0.091,0.39c-0.377,1.593-0.803,3.398,0.583,4.895 l0.078,0.068c1.349,0.956,2.56,1.436,3.617,1.436c0.479,0,0.926-0.099,1.341-0.295c3.001-1.423,3.422-7.533,3.76-12.443 c0.112-1.643,0.21-3.061,0.396-4.056c0.734-7.334,1.53-14.783,2.3-21.987c0.975-9.118,1.981-18.546,2.872-27.83 c0.461-4.337,1.013-8.744,1.546-13.007c1.169-9.336,2.377-18.989,2.712-28.642c-0.162-1.181,0.001-2.737,0.174-4.386 C328.695,300.968,329.23,295.853,324.13,295.308z M230.368,56.615c1.424,0.295,2.801,0.441,4.12,0.441 c4.587,0,8.477-1.763,11.198-5.146c3.848-4.78,4.685-12.254,2.036-18.177c-2.48-5.546-7.357-8.804-13.745-9.187 c-3.177-2.485-7.646-1.028-13.288,4.334c-4.476,4.188-6.049,10.162-4.206,15.98C218.456,51.093,223.905,55.705,230.368,56.615z"
              fill="#A16B9F"/>
    </g>
    <g id="change4_1">
        <path d="M159.256,263.757c-0.154,3.698-2.843,7.541-6.395,9.138c-1.137,0.512-2.285,0.765-3.412,0.765 c-1.796,0-3.538-0.644-5.097-1.915c-4.452-3.374-4.056-7.793-2.197-10.8c2.448-3.959,7.981-6.572,13-4.092l0.021,0.011 C157.929,258.389,159.378,260.837,159.256,263.757z M203.61,259.591c-0.822-0.755-1.921-1.063-3.259-0.922l-0.036,0.005 c-3.526,0.64-3.592,3.866-3.661,7.283c-0.097,4.745-0.205,10.123-8.906,11.301c-9.564,0.138-12.525-3.766-14.678-6.596 c-1.448-1.901-2.698-3.548-5.406-2.911c-2.118,0.731-2.775,2.136-2.954,3.186c-0.452,2.653,1.642,6.174,3.811,7.888 c4.076,3.791,9.583,6.205,15.474,6.794c1.008,0.175,2.02,0.261,3.028,0.261c4.34,0,8.596-1.595,12.014-4.57 c4.223-3.675,6.54-8.904,6.359-14.32C205.458,264.055,205.284,261.128,203.61,259.591z M219.932,242.036 c-3.185-2.588-7.352-1.79-10.665-0.793c-2.64,1.026-4.362,3.461-4.725,6.679c-0.41,3.642,1.093,7.291,3.707,9.06 c1.797,1.439,3.774,2.174,5.771,2.174c1.07,0,2.146-0.211,3.201-0.637c3.344-1.348,5.902-4.668,6.367-8.261 C224.006,247.029,222.708,244.11,219.932,242.036z M127.51,100.176c-2.021-5.751-3.986-11.631-5.887-17.318 c-3.471-10.384-7.06-21.122-11.129-31.498c-0.321-2.223-1.602-4.34-3.275-5.406c-1.265-0.806-2.7-0.995-4.171-0.537 c-1.627,0.59-2.746,1.582-3.324,2.947c-1.535,3.625,0.997,9.263,3.23,14.236c1.242,2.766,2.415,5.378,2.705,7.291l2.042,6.125 c5.474,16.431,11.133,33.421,17.793,49.741c0.765,1.856,2.209,3.01,4.066,3.25c0.23,0.03,0.463,0.044,0.696,0.044 c1.842,0,3.717-0.905,4.83-2.379c1.141-1.509,1.333-3.355,0.549-5.185C132.864,114.536,130.131,107.367,127.51,100.176z M245.361,131.993c-0.776-5.933-1.333-11.854-1.773-16.855c-0.465-6.244-0.76-12.647-1.045-18.839 c-0.508-11.022-1.033-22.42-2.537-33.533c-0.118-0.639-0.193-1.355-0.273-2.114c-0.344-3.257-0.771-7.31-5.141-7.401 c-2.575,0-4.75,2.175-4.744,4.824c1.913,12.804,2.566,25.922,3.197,38.609c0.598,12.012,1.217,24.433,2.901,36.592 c0.16,1.23,0.81,2.336,1.83,3.114c0.847,0.645,1.878,0.993,2.903,0.993c0.207,0,0.415-0.014,0.62-0.043 C243.883,136.989,245.706,134.591,245.361,131.993z M66.39,154.196c-6.416-10.84-13.049-22.048-19.204-33.274l-0.003-0.006 c-0.382-0.676-0.737-1.497-1.113-2.366c-1.414-3.268-3.173-7.335-7.675-5.638c-2.373,1.004-3.53,3.855-2.518,6.245 c5.977,12.582,13.272,24.733,20.327,36.484c3.514,5.853,7.147,11.904,10.57,17.932c0.87,1.497,2.238,2.32,3.854,2.32 c0.01,0,0.021,0,0.032,0c1.784-0.012,3.572-1.066,4.449-2.624c0.799-1.418,0.751-3.016-0.13-4.494 C72.136,163.905,69.263,159.051,66.39,154.196z"/>
    </g>
    <g id="change5_1">
        <path d="M116.879,36.431c3.106,3.736,8.702,10.537,7.542,15.379c-0.417,1.736-1.655,3.059-3.681,3.932l-0.163,0.04 c-3.96,0.278-7.622-1.521-11.17-3.26c-1.517-0.743-3.08-1.509-4.618-2.081c-2.045,6.013-5.341,15.63-12.574,15.631 c-0.747,0-1.533-0.102-2.367-0.321c-5.307-2.096-5.081-8.663-4.946-12.586c0.193-1.255,0.245-2.602,0.301-4.028 c0.059-1.526,0.12-3.099,0.354-4.596c-8.555-1.786-14.862-6.138-14.746-10.226c0.072-2.541,2.501-5.885,13.574-7.5 C82.18,15.117,83.63,7.212,88.293,5.623c4.67-1.594,10.913,3.784,15.953,13.715c5.106-0.949,10.118-1.807,15.214-2.009 c0.013,0,0.026,0,0.039,0c2.189,0,3.906,1.022,4.856,2.88c1.145,2.24,0.86,5.289-0.694,7.414l-0.011,0.014 c-0.533,0.679-1.122,1.632-1.746,2.642C120.48,32.587,118.881,35.177,116.879,36.431z M53.594,36.082 c2.643,0,4.29-2.004,4.577-4.151c0.3-2.235-0.815-4.849-3.97-5.304l-0.017-0.002c-4.52-0.498-9.338-0.983-14.172-0.983 c-2.575,0-4.75,2.175-4.75,4.75s2.175,4.75,4.749,4.75c4.443,0.012,8.941,0.483,12.901,0.898 C53.147,36.068,53.374,36.082,53.594,36.082z M55.375,49.813c-0.819-3.036-3.951-3.831-6.69-3.274 c-2.943,0.599-5.698,2.822-5.268,5.912c0.251,1.782,1.321,3.094,3.012,3.694c0.675,0.24,1.42,0.354,2.184,0.354 c1.925,0,3.975-0.725,5.347-2.001C55.346,53.207,55.849,51.544,55.375,49.813z M65.533,61.648l-0.031-0.02 c-2.242-1.312-5.092-0.568-6.512,1.73c-0.417,0.83-1.052,1.767-1.724,2.76c-2.352,3.473-5.278,7.795-0.852,10.849 c0.714,0.419,1.541,0.634,2.385,0.634c0.456,0,0.917-0.062,1.368-0.19c1.218-0.345,2.196-1.113,2.775-2.208 c0.418-1.018,1.18-2.147,1.988-3.343C67.114,68.627,69.831,64.602,65.533,61.648z M151.782,39.587l-0.048-0.006l-0.049,0.003 c-1.237,0.071-2.971-0.168-4.804-0.424c-3.912-0.547-8.344-1.165-10.776,0.774c-1.009,0.804-1.587,1.988-1.722,3.562 c0,2.575,2.176,4.75,4.751,4.75c2.906-0.012,5.879,0.263,8.745,0.523c0.881,0.08,1.762,0.16,2.619,0.23 c0.247,0.033,0.487,0.048,0.719,0.048c2.621,0,4.253-1.997,4.541-4.146C156.068,42.571,154.803,39.996,151.782,39.587z M141.169,27.042c0-2.575-2.175-4.75-4.75-4.75s-4.75,2.175-4.75,4.75s2.175,4.75,4.75,4.75S141.169,29.617,141.169,27.042z M136.617,11.969c0.77-0.583,1.788-1.089,2.867-1.625c2.947-1.465,6.616-3.289,5.021-7.506l-0.017-0.039 c-0.663-1.385-1.607-2.268-2.807-2.622c-2.721-0.801-6.13,1.288-8.62,2.814l-0.771,0.47c-2.435,1.563-6.113,3.926-6.502,6.9 c-0.167,1.279,0.296,2.527,1.389,3.724c0.999,1.012,2.023,1.403,3.036,1.403c2.072,0,4.088-1.64,5.704-2.955 C136.159,12.337,136.396,12.144,136.617,11.969z"
              fill="#FFA953"/>
    </g>
</svg>