<svg xmlns="http://www.w3.org/2000/svg" xmlns:xlink="http://www.w3.org/1999/xlink" height="496.7"
     preserveAspectRatio="xMidYMid meet" version="1.0" viewBox="-0.5 0.0 454.7 496.7" width="454.7"
     zoomAndPan="magnify">
    <g id="change1_1">
        <path d="M398.049,299.875l-1.875,0.343c-2.385,0.435-4.259,2.807-4.178,5.286c0.028,0.863,0.265,1.677,0.702,2.419 l0.061,0.104l0.05,0.71c0.02,0.262,0.039,0.522,0.052,0.78c0.093,2.468,0.137,4.906,0.174,7.811 c0.009,0.815-0.042,1.638-0.092,2.433c-0.025,0.403-0.051,0.806-0.067,1.207c-0.055,1.119-0.104,2.237-0.154,3.352l0.035,0.004 l-0.855,9.157c-0.171,1.835-0.441,3.682-0.703,5.469l-0.23,1.593c-0.096,0.686-0.187,1.372-0.277,2.06 c-0.215,1.635-0.438,3.326-0.731,4.982l-0.266,1.511c-0.491,2.8-0.983,5.602-1.479,8.399c-0.784,4.461-1.588,8.918-2.393,13.376 c-1.294,7.172-2.632,14.588-3.859,21.898c-0.33,1.956-0.652,3.914-0.976,5.872c-0.646,3.92-1.314,7.974-2.033,11.953l-2.029,11.206 c-0.179,0.981-0.35,1.965-0.521,2.948c-0.277,1.599-0.556,3.198-0.865,4.789l-0.05,0.247c-0.021,0.096-0.032,0.154-0.042,0.212 l-0.028,0.141l-0.307-0.025l0.3,0.058c-0.753,3.696-1.501,7.388-2.25,11.088c-2.079,10.249-4.421,20.901-6.963,31.66l-0.059,0.248 l-0.234,0.098c-41.382,17.312-100.06,23.479-141.175,23.479c-2.164,0-4.285-0.019-6.364-0.052 c-34.235-0.969-64.037-5.528-91.117-13.94c-2.229-0.911-5.205-1.848-8.355-2.838c-5.854-1.842-12.49-3.93-17.296-6.688l-0.149-0.085 l-0.065-0.159c-0.347-0.849-0.69-1.699-1.026-2.554c-0.396-1.002-0.805-2.004-1.213-3.005c-0.807-1.979-1.641-4.025-2.375-6.068 l-0.539-1.505c-1.046-2.921-2.092-5.844-3.142-8.766c-0.696-1.941-1.312-3.939-1.907-5.872l-0.392-1.267 c-0.292-0.938-0.593-1.873-0.895-2.811c-0.615-1.915-1.252-3.895-1.803-5.864l-2.937-10.491c-1.474-5.256-2.858-10.627-4.196-15.822 l-0.703-2.727c-3.014-11.698-5.537-23.71-7.977-35.326l-0.316-1.504c-1.881-8.934-3.709-18.031-5.477-26.828l-0.896-4.458 l0.769,0.192c2.366,0.595,4.644,1.817,6.847,3c1.749,0.938,3.556,1.908,5.338,2.515c11.817,5.586,24.78,9.695,40.848,12.953 c5.048,1.005,10.173,2.12,15.129,3.197c17.086,3.717,34.755,7.56,52.565,7.624c29.73,0.377,63.424,0.806,95.799-5.718 c3.22-3.132,7.7-4.46,12.034-5.745c2.149-0.637,4.372-1.296,6.353-2.161c2.415-0.632,4.829-1.499,7.163-2.337 c4.928-1.769,10.008-3.602,15.171-3.339c1.678-0.434,4.46-1.383,7.674-2.479c10.041-3.425,23.712-8.092,27.694-5.661 c3.172-1.445,6.278-3.05,8.951-4.446c1.325-0.747,3.062-1.738,4.791-2.807c-0.166-1.421,0.264-2.757,1.252-3.881 c1.518-1.728,4.327-2.857,6.921-2.771c1.978-1.219,4.216-1.824,6.382-2.411l0.408-0.111c0.484-3.707,0.906-7.479,1.315-11.13 c0.355-3.179,0.711-6.357,1.11-9.532c0.35-2.522,2.776-4.363,5.282-4.016c0.304,0.044,0.591,0.112,0.858,0.205L398.049,299.875z"
              fill="#FBACA7"/>
    </g>
    <g id="change2_1">
        <path d="M127.35,457.999c1.118,4.774,2.51,10.717,0.002,12.861c-0.599,0.512-1.359,0.769-2.292,0.769 c-0.967,0-2.12-0.275-3.473-0.825l-0.207-0.084l-0.076-0.21c-4.556-12.669-6.625-26.672-8.625-40.213 c-1.033-6.991-2.102-14.221-3.496-21.121c-0.833-5.147-1.649-10.277-2.466-15.406c-1.921-12.071-3.909-24.553-6.04-36.802 c-0.059-1.976-0.571-4.049-1.115-6.243c-1.116-4.511-2.27-9.175,0.61-12.77l0.168-0.136c2.053-1.02,3.67-1.171,4.942-0.464 c2.431,1.35,2.825,5.419,3.205,9.354c0.189,1.954,0.368,3.801,0.793,5.033c2.568,14.499,4.905,29.205,7.165,43.426l0.963,6.057 c2.781,17.489,5.656,35.573,9.194,53.231C126.739,455.391,127.023,456.599,127.35,457.999z M169.289,438.07l0.001-0.018 l-0.001-0.019c-0.214-6.128-0.377-12.367-0.536-18.4c-0.569-21.706-1.158-44.152-4.202-66.04c-0.335-2.901-2.766-4.083-4.892-3.946 c-2.164,0.137-4.479,1.628-4.443,4.643c2.989,22.092,3.617,44.746,4.225,66.654c0.453,16.331,0.921,33.218,2.362,49.767 c0.14,1.84,1.426,3.316,3.358,3.852c0.47,0.13,0.94,0.193,1.398,0.193c1.46,0,2.798-0.643,3.619-1.802l0.084-0.2 c1.18-6.506,0.485-13.496-0.187-20.256C169.601,447.72,169.11,442.78,169.289,438.07z M218.478,474.372 c-1.055-11.339-2.146-23.063-2.253-34.717c-0.033-23.824-0.069-50.828-1.619-77.152c0.015-1.713-0.739-3.1-2.123-3.904 c-1.526-0.889-3.583-0.887-5.118,0.006c-1.393,0.809-2.153,2.193-2.138,3.929c1.168,16.622,1.277,33.569,1.382,49.96 c0.135,21.091,0.274,42.899,2.675,64.268c0.209,1.694,1.134,2.965,2.603,3.577c0.595,0.248,1.244,0.368,1.897,0.368 c1.135,0,2.284-0.363,3.178-1.054c1.282-0.99,1.857-2.468,1.623-4.136L218.478,474.372z M271.752,355.799 c0.009-1.71-0.748-3.093-2.133-3.895c-1.529-0.886-3.586-0.881-5.119,0.013c-1.391,0.811-2.146,2.194-2.129,3.913 c0.874,19.863,0.396,40.067-0.066,59.606c-0.505,21.339-1.027,43.403,0.208,65.101c0.125,2.661,2.141,4.667,4.689,4.667 c1.271,0,2.525-0.553,3.444-1.516c0.858-0.9,1.301-2.036,1.246-3.196c-0.07-1.631-0.145-3.261-0.219-4.892 c-0.322-7.076-0.656-14.395-0.628-21.593c0.072-11.06,0.327-22.306,0.574-33.181C272.103,399.52,272.603,377.486,271.752,355.799z M323.143,342.398c-1.537-0.885-3.596-0.873-5.121,0.025c-1.379,0.812-2.125,2.193-2.102,3.892l0.001,0.016 c1.093,24.362-0.479,49.103-2.001,73.028c-1.052,16.542-2.14,33.646-2.339,50.497c-0.022,1.71,0.722,3.095,2.095,3.9 c0.762,0.446,1.657,0.67,2.557,0.67c0.896,0,1.794-0.222,2.564-0.666c1.404-0.809,2.173-2.194,2.164-3.883 c0.493-15.918,0.99-28.104,1.613-39.52c0.354-7.199,0.82-14.521,1.271-21.603c1.303-20.462,2.65-41.621,1.456-62.446 C325.308,344.589,324.542,343.201,323.143,342.398z M370.9,326.612c-1.394-1.082-3.434-1.354-5.071-0.678 c-1.488,0.615-2.426,1.882-2.641,3.568l-0.001,0.01c-1.583,14.542-3.694,29.286-5.735,43.545 c-4.146,28.967-8.434,58.919-8.531,88.762c-0.02,1.711,0.729,3.097,2.106,3.902c0.762,0.444,1.657,0.667,2.555,0.667 c0.896,0,1.796-0.223,2.566-0.667c1.399-0.81,2.164-2.194,2.153-3.886c0.278-11.398,0.684-24.656,1.979-37.764 c1.663-16.175,4.012-32.541,6.284-48.368c2.11-14.708,4.294-29.916,5.921-44.931C372.729,329.073,372.166,327.595,370.9,326.612z M106.866,309.418c0.197,0.384,0.4,0.763,0.608,1.136c1.277,2.303,2.766,4.482,4.413,6.466c0.99,1.289,2.265,1.801,3.505,1.801 c0.996,0,1.969-0.33,2.754-0.852c1.692-1.124,2.904-3.391,1.726-5.806c3.472-4.481,0.948-10.376-1.088-15.131 c-0.307-0.716-0.604-1.408-0.874-2.084l-0.068-0.155c-1.243-2.832-2.945-6.711-5.866-7.824c-1.073-0.408-2.217-0.397-3.406,0.032 c-0.755-2.091-2.225-4.411-4.306-5.168c-1.134-0.411-2.295-0.307-3.456,0.314c-0.263-2.888-2.232-4.625-5.309-4.662 c-0.034-0.001-0.066-0.001-0.1-0.001c-3.935,0-8.521,2.827-8.831,6.632c-0.937,5.827,1.655,11.544,3.941,16.587l0.141,0.307 c1.064,2.966,2.857,4.979,5.049,5.67c1.95,0.614,4.129,0.184,6.325-1.244C103.285,307.247,104.725,308.957,106.866,309.418z M146.36,173.294c-0.28-1.542-0.987-2.782-2.051-3.606c0.149-2.257,0.143-7.023-2.336-8.71c-1.209-0.822-2.798-0.803-4.728,0.059 c-0.422-0.421-0.918-0.755-1.46-0.983c-0.021-0.588-0.094-1.138-0.221-1.673c-0.256-1.068-0.962-2.032-1.95-2.673 c-0.277-0.949-0.836-1.767-1.688-2.416c-1.855-0.959-3.54-1.055-5.013-0.285c-3.772,1.972-5.138,8.964-5.89,14.758 c-1.094,3.69-2.2,12.411,1.367,15.812c1.493,1.424,3.57,1.709,6.175,0.852c0.653,0.332,1.372,0.524,2.141,0.571 c0.575,0.035,1.173-0.023,1.744-0.171c1.005,0.511,2.143,0.63,3.208,0.356c0.281,1.649,1.553,2.994,3.334,3.484 c0.466,0.128,0.931,0.19,1.385,0.19c1.459,0,2.792-0.642,3.603-1.793c1.079-1.433,1.007-3.102,0.938-4.716 c-0.033-0.771-0.064-1.5,0.023-2.198C146.199,178.285,146.769,175.547,146.36,173.294z M267.971,255.924l0.004-0.01 c1.228-2.461,0.219-5.259-1.412-6.75c-1.57-1.435-3.567-1.667-5.374-0.634c-2.566-0.31-4.834,0.622-6.247,2.562 c-1.512,2.077-1.784,5-0.68,7.273c1.123,2.31,3.412,3.644,6.451,3.756c0.055,0.001,0.108,0.002,0.163,0.002 C264.722,262.124,266.674,258.4,267.971,255.924z M217.429,54.073c-3.834-1.715-6.969,0.52-8.376,3.51 c-1.641,3.486-1.21,8.247,2.795,10.189c1.063,0.596,2.149,0.893,3.218,0.893c1.315,0,2.605-0.45,3.79-1.345 c2.683-2.026,4.158-5.857,3.43-8.913C221.736,56.098,220.012,54.56,217.429,54.073z M340.434,110.75 c-1.607-3.952-6.062-5.198-8.698-5.595c-4.275,0.191-5.375,3.537-6.344,6.488c-0.215,0.653-0.437,1.328-0.684,1.945l-0.03,0.111 c-0.248,1.646-0.716,3.549-1.211,5.563c-2.013,8.192-4.518,18.388,5.294,21.535c0.682,0.191,1.355,0.282,2.02,0.282 c5.529,0,10.296-6.291,12.593-12.787C345.833,121.34,345.856,113.27,340.434,110.75z M412.83,234.196 c-0.979-1.467-2.523-2.227-4.33-2.134c-0.285-0.138-0.594-0.25-0.915-0.333c0.25-3.301-1.618-5.188-3.515-5.863 c-2.39-0.852-5.783-0.13-7.73,2.86c-0.89,0.288-1.781,0.674-2.654,1.149c-9.82,0.387-18.487,9.306-18.339,18.841 c-2.792,2.884-5.129,8.059-4.043,12.169c0.651,2.468,2.461,4.174,5.242,4.937c0.765,0.19,1.538,0.285,2.321,0.285 c3.571,0,7.357-1.981,11.5-6.002c0.522-0.132,1.05-0.258,1.58-0.384c3.991-0.951,8.116-1.934,10.684-5.579 c5.691,0.118,7.761-5.81,9.441-10.586c0.365-1.036,0.709-2.015,1.054-2.84C414.166,238.637,414.047,236.016,412.83,234.196z"
              fill="#FDD4D2"/>
    </g>
    <g id="change3_1">
        <path d="M212.22,59.068l0.012,0.034l-0.95,0.312l-0.05-0.179l0.01-0.001l-0.015-0.044l0.006-0.001l-0.009-0.042 l0.49-0.1l0,0l0,0l0.49-0.1l0.023,0.117L212.22,59.068z M97.607,295.401l-0.288,0.004l-0.216,0.299v0.193l0.495,0.014l0,0l0,0 l0.009,0.49h0.5l0.005-0.519h-0.505V295.401z M335.859,117.149h0.505v0.495h0.5v-0.282l0.711-0.728l-1.711,0.005L335.859,117.149z M400.466,240.793v0.377l-0.102,0.102l-0.051,0.07l-0.003-0.002l-0.124,0.205l0.118,0.058l-0.111-0.068l0.427,0.26l0,0l0.291,0.102 l0.151,0.092l-0.032-0.035l0.06,0.029l0.341-0.517l0.009,0.002l0.003-0.011h0.001l0.008-0.023l2.412-3.66l-3.02,3.02h-0.378V240.793 z M133.31,173.233l-0.075,0.123l0.345,0.308l-0.428-0.171l0.439,0.181l0.249,0.452l-0.208-0.415l0.334,0.326l0.602-1.393 l-1.176,0.588L133.31,173.233z M129.577,169.898l-0.271,0.002v0.5h0.504v0.496l0.5-0.01l-0.004-1.798L129.577,169.898z M450.972,272.291c-1.396,5.944-3.771,12.036-7.25,18.597c-5.402,12.684-14.275,24.908-24.964,34.383 c-21.975,19.496-54.479,32.105-89.188,34.601c-24.307,8.157-51.574,12.538-85.801,13.784c-56.92-0.341-122.316-3.077-178.426-31.407 c-0.157-0.005-0.315-0.02-0.476-0.039c-14.829-2.377-28.461-10.396-39.44-23.192c-10.229-11.923-17.066-26.863-19.25-42.069 c-5.931-30.145,9.236-63.178,37.746-82.175c14.109-10.393,31.138-16.203,49.281-16.816c-4.517-8.01-7.533-16.859-8.735-25.648 c-3.125-39.994,56.887-55.817,75.354-59.715c6.129-1.286,12.646-2.331,20.448-3.277c-0.948-1.592-1.815-3.306-2.584-5.106 c-5.853-14.447,5.116-28.526,18.582-36.074c6.11-3.586,13.1-6.34,19.859-9.003c14.601-5.753,29.698-11.702,37.219-26.468 c1.395-2.842,2.658-5.716,3.754-8.537c0.786-1.849,2.394-2.903,4.315-2.827c2.037,0.079,3.886,1.396,4.495,3.204 c0.151,0.248,0.303,0.617,0.424,1.042l0.067,0.246c0.27,0.471,0.455,0.982,0.553,1.52c0.306,0.792,0.615,1.582,0.926,2.372 c1.208,3.08,2.457,6.265,3.455,9.49c5.202,15.72,7.25,33.27,6.085,52.162c9.015,0.964,18.056,3.029,20.952,3.941 c36.479,10.002,61.369,31.203,70.07,59.69c5.521,14.271,6.522,28.243,2.836,39.417c0.438-0.034,0.875-0.067,1.312-0.099 c28.156-3.699,56.144,12.228,71.297,40.578c4.27,6.952,6.953,14.648,7.961,22.85c0.515,2.338,0.8,4.875,1.03,6.914 c0.104,0.926,0.196,1.745,0.293,2.392l0.002,0.01C454.249,255.323,453.508,263.823,450.972,272.291z M101.626,294.321 c0.082-1.679-0.214-3.481-0.854-5.215c-0.437-1.197-1.055-2.507-2.333-3.155c-0.952-0.481-1.862-0.735-2.807-0.708 c-0.093-0.005-0.146-0.01-0.199-0.01l-0.655-0.01c-0.203,0-0.406,0.007-0.6,0.043c-0.754,0.144-1.384,0.43-1.87,0.851 c-1.25,1.088-2.109,2.668-2.416,4.449c-0.249,1.452-0.298,3.557,0.882,5.329c1.057,1.588,2.496,2.745,4.053,3.259 c0.79,0.262,1.707,0.541,2.617,0.541c0.89-0.013,1.602-0.229,2.239-0.661C101.154,298.028,101.551,295.916,101.626,294.321z M117.466,305.325c-0.023-0.701-0.34-1.448-0.871-2.049l-0.101-0.113l-0.021-0.151c-0.107-0.8-0.812-1.381-1.674-1.381 c-0.57,0-1.089,0.197-1.54,0.585l-0.091,0.062c-0.547,0.291-0.917,0.877-0.967,1.528l-0.023,0.116 c-0.117,0.359-0.189,0.738-0.21,1.096c-0.066,1.128,0.491,2.284,1.386,2.879c0.873,0.578,1.864,0.659,2.659,0.232l0.002-0.001 C116.96,307.631,117.502,306.583,117.466,305.325z M138.446,165.532c-1.786-1.585-3.891-2.364-6.625-2.452l-0.133-0.504l0,0 l0.002,0.5c-0.984,0.004-1.943,0.339-2.773,0.97l-0.132,0.072c-0.093,0.034-0.188,0.068-0.277,0.106 c-1.811,0.768-3.312,2.204-4.343,4.156c-1.206,2.283-1.312,4.82-0.291,6.959c0.995,2.091,3.097,3.599,5.918,4.246 c2.706,0.624,5.634-0.028,7.61-1.657c1.697-1.394,2.851-3.54,3.166-5.887C140.911,169.492,140.097,166.998,138.446,165.532z M216.221,58.224c-0.265-0.219-0.586-0.353-0.954-0.396l-0.198-0.023l-0.127-0.153c-0.226-0.271-0.507-0.452-0.836-0.537 c-0.301-0.079-0.56-0.115-0.816-0.115c-0.198,0-0.398,0.022-0.613,0.068c-0.415,0.091-0.886,0.349-1.199,0.658 c-0.863,0.854-1.32,1.776-1.357,2.741c-0.038,0.969,0.535,1.965,1.425,2.48c0.433,0.25,0.902,0.377,1.396,0.377 c1.565,0,3.048-1.267,3.705-2.519C217.136,59.863,216.969,58.85,216.221,58.224z M262.165,254.001 c-0.265-0.737-0.882-1.189-1.543-1.189c-0.011,0-0.021,0-0.03,0c-0.03,0-0.06,0-0.091,0.003c-0.276,0.023-0.552,0.044-0.827,0.063 l-0.478,0.035c-0.996,0.074-1.832,0.541-2.294,1.281c-0.479,0.774-0.749,2.008,0.075,2.929c0.716,0.806,1.924,1.073,2.971,0.771 c0.957-0.278,1.796-0.99,2.304-1.952C262.558,255.359,262.525,254.616,262.165,254.001z M330.521,129.953 c-0.021-0.283-0.115-0.567-0.27-0.83l-0.068-0.115l-0.001-0.134c-0.004-0.393-0.15-0.776-0.402-1.052 c-0.272-0.303-0.625-0.472-1.111-0.534c-0.089-0.011-0.182-0.02-0.273-0.02c-0.654,0-1.119,0.333-1.394,0.611 c-0.507,0.514-0.803,1.27-0.791,2.02l-0.011,0.151c-0.014,0.461,0.087,0.785,0.368,1.248c0.054,0.087,0.113,0.164,0.183,0.232 c0.183,0.219,0.345,0.367,0.515,0.479c0.616,0.405,1.45,0.447,2.101,0.1C330.148,131.69,330.601,130.843,330.521,129.953z M339.901,114.353c-0.766-1.893-2.27-3.587-4.234-4.774c-0.617-0.377-1.551-0.843-2.503-0.926c-0.239-0.053-0.407-0.088-0.575-0.119 c-0.179-0.032-0.365-0.048-0.555-0.048c-0.69,0-1.405,0.213-1.963,0.585c-1.64,1.096-2.471,3.458-1.932,5.494 c0.575,2.183,2.034,4.065,4.108,5.301c2.042,1.208,4.299,1.478,5.806,0.659C340.098,119.417,340.716,116.353,339.901,114.353z M385.186,252.047c-0.38-0.785-0.977-1.343-1.826-1.701c-0.276-0.117-0.582-0.177-0.909-0.177c-0.386,0-0.781,0.079-1.176,0.236 l-0.153,0.034c-0.193,0.012-0.373,0.05-0.55,0.115c-0.747,0.279-1.282,0.71-1.591,1.279c-0.459,0.845-0.549,1.757-0.255,2.571 c0.439,1.228,1.717,2.083,3.107,2.083c0.384,0,0.774-0.075,1.129-0.217c0.856-0.345,1.618-1.04,1.986-1.814 C385.406,253.481,385.486,252.67,385.186,252.047z M406.467,240.113c-0.12-1.179-0.349-2.134-0.742-3.097 c-0.323-0.788-0.96-1.617-1.839-2.397c-1.224-1.076-2.921-1.716-4.778-1.801c-0.505-0.02-1.01,0.021-1.496,0.125l-0.102,0.022 l-0.103-0.021c-0.365-0.074-0.734-0.112-1.098-0.112c-1.241,0-2.418,0.431-3.314,1.214c-2.823,2.48-3.489,6.916-1.55,10.315 c1.457,2.563,4.372,4.219,7.427,4.219c0.669,0,1.331-0.081,1.969-0.242c1.832-0.462,3.435-1.748,4.511-3.619l0,0 C406.18,243.283,406.607,241.518,406.467,240.113z"
              fill="#3E4677"/>
    </g>
    <g id="change4_1">
        <path d="M377.972,295.623l-0.046-0.148v-0.68l-0.093,0.186l0.006-1.002l-0.207,0.62l-0.503-0.914l-0.139-0.212 c-0.263-0.374-0.539-0.732-0.851-1.095c-0.222-0.235-0.451-0.46-0.684-0.684c-0.015-0.026-0.03-0.052-0.05-0.074l0.007-0.008 l-0.048-0.041l-0.003,0.004l0,0l0.003-0.004l-0.012-0.01l-0.004,0.005c-0.025-0.021-0.053-0.039-0.082-0.055l-0.064-0.059 l-0.353-0.019c-13.444-0.795-26.857-2.592-38.205-4.244c-5.636-0.82-11.342-1.799-16.86-2.745l-2.607-0.447 c-4.231-0.721-8.517-1.593-12.66-2.437c-1.682-0.342-3.364-0.685-5.048-1.018c-1.379-0.272-2.776-0.614-4.129-0.945 c-0.64-0.157-1.279-0.313-1.92-0.464l-9.185-2.146c-1.225-0.289-2.464-0.632-3.662-0.964c-0.513-0.143-1.024-0.284-1.537-0.422 l-9.151-2.474c-1.419-0.387-2.853-0.841-4.24-1.281c-0.713-0.226-1.426-0.451-2.146-0.672l-13.452-3.854 c-1.548-0.444-3.109-1.011-4.619-1.559c-0.775-0.281-1.55-0.562-2.325-0.828l-13.256-4.563c-1.218-0.413-2.477-0.84-3.682-1.329 c-2.858-1.161-5.714-2.324-8.569-3.487c-4.051-1.65-8.1-3.301-12.155-4.941c-1.554-0.629-3.099-1.356-4.594-2.06l-0.152-0.072 c-2.238-1.048-4.474-2.1-6.712-3.152l-4.88-2.293c-0.616-0.284-1.236-0.563-1.857-0.844c-1.851-0.835-3.764-1.698-5.565-2.669 l-8.676-4.663h0.128l-1.661-0.831v-0.192h-0.365c-0.052-0.024-0.104-0.052-0.156-0.081l-0.125-0.068 c-2.109-1.132-4.21-2.261-6.32-3.389l-0.85-0.447c-0.743-0.388-1.511-0.789-2.225-1.226l-11.409-7.036 c-1.599-0.977-3.193-1.959-4.788-2.941c-0.241-0.148-0.486-0.293-0.732-0.439c-0.554-0.328-1.125-0.667-1.644-1.039l-16.654-11.883 c-2.216-1.583-4.363-3.374-6.44-5.105l-1.234-1.027c-3.413-2.829-6.89-5.911-10.335-9.16c-4.748-4.483-8.492-8.338-11.784-12.133 l-4.247-4.904l-0.192-0.022c-0.662-0.078-1.325-0.143-2.017-0.198c-0.962-0.03-1.925-0.044-2.889-0.058l-0.717-0.01l0.113,0.322 c-1.157,0-2.29,0.032-3.326,0.096c-5.779-0.732-38.535,7.806-42.407,17.125c-0.882,1.61-0.731,3.392,0.432,4.91 c48.521,56.814,116.807,97.609,192.272,114.871c1.359,0.613,2.861,1.068,4.314,1.509c1.131,0.343,2.198,0.667,3.068,1.036 c5.981,1.969,11.441,3.418,16.696,4.432c6.053,1.126,12.577,2.174,19.051,2.174c5.86,0,11.679-0.858,17.067-3.295 c2.681-1.827,4.173-4.003,4.438-6.465c0.29-2.713-0.944-5.749-3.58-8.836c3.748,0.441,7.192,0.824,10.491,1.166l0.073,0.008 l0.071-0.014c0.817-0.154,1.657-0.113,2.435,0.118c0.249,0.075,0.5,0.146,0.837,0.233c15.933,1.584,32.274,2.707,48.631,3.336 c0.563-0.043,1.363-0.063,2.46-0.066l0.336-0.052c2.753-0.505,5.288-1.125,7.764-1.9c1.848-0.644,3.523-1.333,5.127-2.11 l0.382-0.192c0.846-0.471,1.592-0.917,2.303-1.382l0.232-0.172c0.426-0.344,0.837-0.694,1.261-1.081l0.071,0.058 c0.113-0.132,0.22-0.271,0.321-0.413l-0.002-0.002l0.012-0.014c0.039-0.052,0.071-0.097,0.104-0.149l-0.005-0.004 c0.016-0.018,0.027-0.03,0.044-0.05l0.251-0.476l0.03,0.021l0.1-0.138v-0.036c0.004-0.007,0.008-0.015,0.012-0.022l0.095-0.179 v-0.25l0.109-0.516c0-0.089-0.005-0.178-0.016-0.318C378.003,295.846,377.985,295.737,377.972,295.623z M171.003,234.357 C171.003,234.356,171.003,234.356,171.003,234.357L171.003,234.357C171.003,234.356,171.003,234.356,171.003,234.357 L171.003,234.357z M171.003,234.356l0.009-0.016L171.003,234.356L171.003,234.356z M171.012,234.361 c-0.001-0.001-0.002-0.001-0.003-0.002l0.014-0.019L171.012,234.361z M301.234,318.999c-1.094-3.55,1.287-5.752,3.658-6.559 c3.089-1.052,7.02-0.16,8.255,3.149l0.004,0.011c0.753,2.17,0.436,4.193-0.896,5.698c-1.181,1.335-3.061,2.104-4.97,2.104 c-0.486,0-0.975-0.05-1.454-0.152C303.597,322.769,301.922,321.219,301.234,318.999z M408.469,298.126 c-0.229,3.633-4.003,7.682-9.052,7.683c-1.93,0-3.815-0.597-5.604-1.773c-2.266-1.345-3.61-3.376-3.769-5.708 c-0.164-2.436,0.971-4.931,2.962-6.51l0.121-0.096l0.154-0.012c2.026-0.187,4.084-0.484,6.146-0.885l0.149-0.028l0.14,0.059 c0.379,0.158,0.759,0.356,1.13,0.588C405.844,292.109,408.692,294.601,408.469,298.126z M346.065,353.928 c0.211,5.277-5.309,5.887-9.743,6.377c-0.859,0.095-1.701,0.188-2.485,0.308c-8.07,2.175-17.683,4.688-27.383,6.763 c-23.263,5.225-50.88,10.566-79.294,10.566c-1.008,0-2.016-0.004-3.024-0.019c-8.863-0.155-17.468-0.801-25.578-1.917 c-2.95-0.171-5.411-0.465-7.704-0.922c-28.947-1.118-58.238-6.385-86.981-15.646c-7.079-2.229-13.52-4.302-19.688-6.333 c-17.41-3.164-32.582-9.098-45.029-17.62c-7.611-5.334-14.648-12.638-20.923-21.712c-0.438-0.732-1.149-1.794-1.974-3.024 c-0.584-0.872-1.238-1.848-1.92-2.893c-0.424-0.429-0.773-0.952-1.036-1.558l-0.064-0.163c-0.759-1.206-1.459-2.369-2.081-3.458 c-6.1-9.693-9.765-19.79-10.881-29.991c-0.735-7.41-0.363-17.845,5.583-25.509c1.246-1.548,3.066-2.147,4.873-1.609 c1.838,0.546,3.261,2.147,3.517,3.931l0.041,0.044c0.468,0.499,0.88,0.951,1.294,1.404c0.842,0.923,1.713,1.878,2.617,2.753 l0.121,0.119c67.089,75.579,177.447,114.572,288.013,101.766c6.861-0.747,13.473-1.836,19.035-2.801l4.728-0.879l3.045-0.819 c0.682-0.177,1.343-0.217,1.973-0.113c1.883-0.35,3.761-0.7,5.64-1.055h0.002c1.144-0.212,2.327,0.074,3.337,0.802 C345.174,351.501,345.893,352.671,346.065,353.928z M301.127,163.496l-0.007-0.003l-0.003-0.001 C301.117,163.492,301.12,163.493,301.127,163.496z M410.257,190.328c0.291,1.186,0.121,2.458-0.478,3.523 c-3.924,6.282-9.334,10.59-15.246,12.15c-22.272,4.889-46.579,5.609-72.262,2.145l-3.82-0.763l-0.003,0.017 c-0.13-0.032-0.26-0.059-0.39-0.085l-0.478-0.136l-0.001,0.002l-3.331-0.835h0.036l-0.445-0.112h0.002l-7.388-1.873 c-9.785-3.241-18.573-6.169-27.386-9.288c-2.703-0.952-5.69,0.431-6.659,3.086c-0.468,1.277-0.393,2.739,0.207,4.012 c0.594,1.261,1.615,2.201,2.877,2.646c8.138,2.879,16.302,5.611,23.912,8.135l0.799,0.266c1.042,0.348,2.084,0.695,3.134,1.006 l0.373,0.111l-0.016,0.389c-0.127,3.112-2.892,5.741-6.037,5.741c-0.066,0-0.131,0-0.196-0.006 c-70.451-8.15-136.991-47.861-178.062-106.248l-0.055-0.005l-0.254-0.382c-0.088-0.141-0.175-0.282-0.26-0.425l-0.842-1.368 c-0.787-1.279-1.56-2.562-2.332-3.849l-0.071-0.119v-0.427l2.056-1.136c1.239-0.346,2.509-0.797,3.879-1.379 c0.407-0.171,0.809-0.346,1.205-0.53c1.477-0.675,2.952-1.427,4.38-2.154l0.632-0.322c0.332-0.158,0.635-0.303,0.942-0.438 c0.175-0.077,0.336-0.162,0.498-0.256l1.929-0.684c4.468-1.563,9.087-3.18,13.679-4.64c5.383-1.881,11.155-3.515,17.141-4.852 l0.273-0.061l0.195,0.201c1.96,2.024,3.628,3.665,5.247,5.162c2.582,2.385,5.168,4.77,7.75,7.151l0.167,0.154 c0.994,0.916,2.068,1.773,3.107,2.602l9.638,7.706c2.89,2.306,6.051,4.649,9.665,7.165c10.878,7.565,22.41,14.46,34.323,20.524 c-10.394-9.508-14.533-16.887-12.643-22.5l0.062-0.125c1.227-1.775,2.712-2.774,4.415-2.97c3.954-0.455,8.289,3.478,11.772,6.637 c1.058,0.96,2.058,1.867,2.914,2.527c3.882,3.492,7.737,7.079,11.465,10.547l1.4,1.302c0.876,0.612,1.807,1.264,2.746,1.9 c0.717,0.485,1.431,0.977,2.146,1.469c1.731,1.193,3.522,2.427,5.334,3.542l8.711,5.365c0.532,0.326,1.088,0.619,1.644,0.912 l8.909,4.797c0.752,0.409,1.578,0.753,2.378,1.087c0.185,0.077,0.366,0.155,0.549,0.232l0.005-0.012l0.478,0.215v0.001 c0.031,0.013,0.064,0.028,0.095,0.04l0.322,0.147l2.33,1.051c0.691,0.312,1.361,0.611,2.033,0.907l0.852,0.371 c0.477,0.207,0.954,0.409,1.433,0.61l0.976,0.403c0.535,0.217,1.073,0.424,1.614,0.629l0.64,0.246 c0.848,0.311,1.694,0.628,2.541,0.944c1.202,0.449,2.403,0.898,3.609,1.332l0.098,0.037c0.004,0.001,0.027,0.01,0.051,0.022 c2.467,1.026,4.997,1.891,6.922,2.527c0.439,0.145,0.88,0.296,1.32,0.447c0.876,0.3,1.783,0.611,2.679,0.872l1.989,0.58 c2.235,0.655,4.547,1.333,6.841,1.903c1.727,0.429,3.446,0.852,5.173,1.25c1.646,0.379,3.013,0.671,4.302,0.918l1.078,0.208 c1.463,0.281,2.925,0.562,4.389,0.84c0.868,0.166,1.783,0.26,2.669,0.351c0.443,0.045,0.885,0.09,1.322,0.145 c0.519,0.062,1.04,0.135,1.562,0.209c0.983,0.138,2.001,0.281,2.991,0.345c1.765,0.117,3.521,0.229,5.28,0.342 c3.345,0.22,6.638,0.284,9.998,0.335c2.466,0.034,4.908-0.082,7.302-0.204c0.679-0.035,1.357-0.069,2.036-0.1 c1.063-0.047,2.156-0.199,3.214-0.347c0.497-0.069,0.993-0.138,1.486-0.197c2.451-0.29,4.907-0.675,7.195-1.049 c1.041-0.167,2.002-0.625,2.781-1.325l0.182-0.163l0.239,0.042c7.888,1.394,16.937,3.592,24.244,9.328 c0.8,0.616,1.347,1.364,1.621,2.221C411.209,185.222,411.313,188.26,410.257,190.328z M203.021,105.428 c-0.725-2.06-0.373-4.326,0.877-5.637c1.155-1.211,2.936-1.536,5.02-0.916c3.712,1.238,4.982,4.237,4.598,6.502 c-0.415,2.441-2.593,4.004-5.565,4.004c-0.041,0-0.082,0-0.123-0.001l-0.059-0.004C205.562,109.082,203.787,107.605,203.021,105.428 z M21.336,242.854c0.098-1.333,0.763-2.447,1.976-3.314c1.07-1.988,2.493-3.085,4.23-3.262c5.443-0.554,12.408,8,17.024,13.657 c1.015,1.244,1.891,2.318,2.531,3.012c0.393,0.503,0.842,1.053,1.339,1.66c3.099,3.791,7.783,9.521,6.362,13.237 c-0.615,1.608-2.294,2.638-4.989,3.059l-0.11,0.017l-0.106-0.03c-4.251-1.232-7.711-4.3-11.058-7.267 c-1.197-1.062-2.327-2.063-3.496-2.99l-0.059-0.054c-0.625-0.685-1.66-1.646-2.857-2.759 C27.693,253.701,20.995,247.476,21.336,242.854z M59.81,279.119c-0.47-2.107,0.443-4.615,3.54-5.47 c2.85-0.664,5.304,0.002,6.749,1.829c1.143,1.444,1.388,3.367,0.625,4.898c-0.821,1.65-2.649,2.576-5.033,2.53 c-0.344,0.056-0.676,0.083-0.995,0.083C62.05,282.99,60.264,281.157,59.81,279.119z M237.852,68.125L237.852,68.125 c2.47,0.482,5.014,0.749,7.474,1.008c0.724,0.076,1.447,0.152,2.176,0.234c16.625,1.641,32.734,6.649,44.914,10.831 c0.45,0.152,0.926,0.228,1.405,0.228c0.728,0,1.464-0.174,2.137-0.515c1.133-0.574,1.995-1.574,2.364-2.742 c0.788-2.441-0.57-5.087-3.026-5.899c-5.38-1.78-9.759-3.197-13.785-4.46c-0.216-0.066-0.433-0.127-0.65-0.189l-0.07-0.021 c1.545-9.222-2.142-26.692-4.5-36.364l-0.12-0.488c-0.804-3.275-1.691-6.63-2.564-9.697c-1.013-3.749-1.946-7.111-2.886-10.357 l-1.861-3.443c-0.041-0.075-0.088-0.149-0.135-0.222l-0.077-0.124c-0.174-0.292-0.349-0.584-0.535-0.869l-0.845-1.268 c-0.309-0.407-0.628-0.812-0.948-1.218c-0.491-0.624-0.986-1.251-1.502-1.958L264.226,0l-0.27,0.062 c-1.938,0.447-3.388,1.949-3.606,3.737c-2.135,17.307-5.359,43.45-21.982,54.047c-1.294,0.32-2.395,1.183-3.041,2.384 c-0.61,0.606-1.022,1.421-1.226,2.432C233.632,65.175,235.315,67.626,237.852,68.125z M275.793,30.298L275.793,30.298 L275.793,30.298L275.793,30.298z"
              fill="#A16B9F"/>
    </g>
    <g id="change5_1">
        <path d="M191.695,289.386c0.906,3.713-2.167,8.886-4.316,11.273c-2.288,2.268-5.655,3.479-9.49,3.479 c-0.849,0-1.72-0.059-2.608-0.18c-8.688-1.054-17.879-8.75-17.166-18.109l0.02-0.107c1.056-3.47,3.522-4.304,5.312-3.96 c2.295,0.438,4.46,2.807,4.206,6.499c1.456,3.799,6.742,6.949,10.741,6.38c1.812-0.257,4.027-1.386,4.293-5.305 c0.314-1.26,1.079-2.252,2.167-2.884c1.105-0.642,2.424-0.819,3.62-0.492l0.043,0.015 C190.234,286.641,191.303,287.782,191.695,289.386z M278.483,288.805l-0.08-0.017c-3.774-0.431-4.579,2.137-5.283,4.409 c-0.46,1.485-0.896,2.894-2.039,3.667l-0.192,0.069c-3.554,1.273-7.666-1.244-9.099-4.225c-0.156-0.54-0.267-1.118-0.373-1.678 c-0.402-2.112-0.858-4.507-4.072-4.957l-0.056-0.008l-0.056,0.005c-3.555,0.301-5.522,2.309-5.4,5.508 c0.235,6.166,7.786,14.796,14.923,14.906c0.872,0.238,1.739,0.348,2.592,0.348c6.105,0,11.466-5.643,12.805-10.384 C283.232,292.626,281.86,289.769,278.483,288.805z M241.662,296.884c-4.897-0.232-9.875-0.331-14.689-0.427 c-7.834-0.156-15.935-0.317-23.922-1.061c-2.872,0.023-4.341,2.072-4.553,4.145c-2.234,2.873-0.645,7.511,0.636,11.248 c0.432,1.259,0.839,2.448,1.067,3.473c2.243,7.051,7.839,19.354,20.113,22.521c2.237,0.647,4.356,0.971,6.349,0.971 c3.324,0,6.299-0.899,8.89-2.695c8.343-5.784,11.057-19.559,11.862-30.073c0.225-1.84-0.49-3.047-1.191-3.767 C246.072,299.108,244.61,296.907,241.662,296.884z"
              fill="#010F29"/>
    </g>
</svg>