<svg xmlns="http://www.w3.org/2000/svg" xmlns:xlink="http://www.w3.org/1999/xlink" preserveAspectRatio="xMidYMid meet"
     version="1.0" viewBox="-0.0 -0.1 477.4 457.1" zoomAndPan="magnify" style="fill: rgb(0, 0, 0);">
    <g id="__id292_sfe7usortu">
        <path d="M277,338.3c0-0.4-0.3-0.8-0.7-0.9c-43.2-15.8-72.2-57.3-72.2-103.3c0-46,29-87.5,72.2-103.3 c0.4-0.1,0.7-0.5,0.7-0.9c0-0.4-0.3-0.8-0.7-0.9c-12.3-4.5-25.3-6.8-38.5-6.8c-61.8,0-112,50.2-112,112c0,61.8,50.2,112,112,112 c13.2,0,26.2-2.3,38.5-6.8C276.7,339.1,277,338.7,277,338.3z M237.8,344c-60.7,0-110-49.4-110-110c0-60.7,49.3-110,110-110 c12.1,0,23.9,1.9,35.2,5.8c-42.5,16.8-70.9,58.3-70.9,104.2c0,45.9,28.4,87.5,70.9,104.2C261.7,342.1,249.9,344,237.8,344z M273.7,232.7c0.1,0.5,0.5,0.9,1,0.9s0.9-0.4,1-0.9l2.2-19.4l16.8-2.5c0.5-0.1,0.9-0.5,0.9-1s-0.4-0.9-0.9-1l-16.8-2.5l-2.2-19.3 c-0.1-0.5-0.5-0.9-1-0.9s-0.9,0.4-1,0.9l-2.2,19.3l-16.8,2.5c-0.5,0.1-0.9,0.5-0.9,1s0.4,0.9,0.9,1l16.8,2.4L273.7,232.7z M272.6,208.3c0.4-0.1,0.8-0.4,0.8-0.9l1.3-11.2l1.3,11.2c0.1,0.5,0.4,0.8,0.8,0.9l10.8,1.6l-10.8,1.6c-0.4,0.1-0.8,0.4-0.8,0.9 l-1.3,11.3l-1.3-11.3c-0.1-0.5-0.4-0.8-0.9-0.9l-10.8-1.6L272.6,208.3z M303.1,298.2c0.1,0.5,0.5,0.9,1,0.9s0.9-0.4,1-0.9l1.3-12 l10.3-1.5c0.5-0.1,0.9-0.5,0.9-1s-0.4-0.9-0.9-1l-10.3-1.5l-1.3-11.9c-0.1-0.5-0.5-0.9-1-0.9s-0.9,0.4-1,0.9l-1.3,11.9l-10.3,1.6 c-0.5,0.1-0.9,0.5-0.9,1s0.4,0.9,0.9,1l10.3,1.5L303.1,298.2z M302.8,283.1c0.4-0.1,0.8-0.4,0.8-0.9l0.4-3.8l0.4,3.8 c0.1,0.5,0.4,0.8,0.8,0.9l4.4,0.6l-4.4,0.6c-0.4,0.1-0.8,0.4-0.8,0.9l-0.4,3.9l-0.4-3.9c-0.1-0.5-0.4-0.8-0.9-0.9l-4.4-0.6 L302.8,283.1z M257.3,249.5l-5,4.9l2.8,6.4l-6.2-3.3l-5.2,4.7l1.2-6.9l-6-3.5l6.9-1l1.5-6.8l3.1,6.3L257.3,249.5z M323.3,221 l-4.7,2.7l4.7,2.7c0.5,0.3,0.6,0.9,0.4,1.4c-0.2,0.3-0.5,0.5-0.9,0.5c-0.2,0-0.3,0-0.5-0.1l-4.7-2.7v5.5c0,0.6-0.4,1-1,1s-1-0.4-1-1 v-5.5l-4.7,2.7c-0.2,0.1-0.3,0.1-0.5,0.1c-0.3,0-0.7-0.2-0.9-0.5c-0.3-0.5-0.1-1.1,0.4-1.4l4.7-2.7l-4.7-2.7 c-0.5-0.3-0.6-0.9-0.4-1.4c0.3-0.5,0.9-0.6,1.4-0.4l4.7,2.7v-5.5c0-0.6,0.4-1,1-1s1,0.4,1,1v5.5l4.7-2.7c0.5-0.3,1.1-0.1,1.4,0.4 C324,220.1,323.8,220.8,323.3,221z M265.7,155.9c0-2.6-2.1-4.7-4.7-4.7s-4.7,2.1-4.7,4.7s2.1,4.7,4.7,4.7S265.7,158.5,265.7,155.9z M258.3,155.9c0-1.5,1.2-2.7,2.7-2.7c1.5,0,2.7,1.2,2.7,2.7c0,1.5-1.2,2.7-2.7,2.7C259.5,158.6,258.3,157.4,258.3,155.9z M313.5,178.4c1.7,0,3.1,1.4,3.1,3.1s-1.4,3.1-3.1,3.1s-3.1-1.4-3.1-3.1S311.7,178.4,313.5,178.4z M260,307.2c0,3,2.5,5.5,5.5,5.5 s5.5-2.5,5.5-5.5s-2.5-5.5-5.5-5.5S260,304.2,260,307.2z M269,307.2c0,1.9-1.6,3.5-3.5,3.5s-3.5-1.6-3.5-3.5s1.6-3.5,3.5-3.5 S269,305.3,269,307.2z M218,23c3.6,0,6.5-2.9,6.5-6.5S221.6,10,218,10s-6.5,2.9-6.5,6.5S214.5,23,218,23z M218,12 c2.5,0,4.5,2,4.5,4.5c0,2.5-2,4.5-4.5,4.5c-2.5,0-4.5-2-4.5-4.5C213.6,14,215.6,12,218,12z M383.4,69.1c3.4,0,6.2-2.8,6.2-6.2 c0-3.4-2.8-6.2-6.2-6.2s-6.2,2.8-6.2,6.2C377.1,66.3,379.9,69.1,383.4,69.1z M383.4,58.7c2.3,0,4.2,1.9,4.2,4.2 c0,2.3-1.9,4.2-4.2,4.2s-4.2-1.9-4.2-4.2C379.1,60.6,381,58.7,383.4,58.7z M434.7,310.7c-3.4,0-6.2,2.8-6.2,6.2 c0,3.4,2.8,6.2,6.2,6.2c3.4,0,6.2-2.8,6.2-6.2C441,313.5,438.2,310.7,434.7,310.7z M434.7,321.2c-2.3,0-4.2-1.9-4.2-4.2 c0-2.3,1.9-4.2,4.2-4.2c2.3,0,4.2,1.9,4.2,4.2C439,319.3,437.1,321.2,434.7,321.2z M346.3,403c-3.4,0-6.2,2.8-6.2,6.2 s2.8,6.2,6.2,6.2s6.2-2.8,6.2-6.2S349.7,403,346.3,403z M346.3,413.5c-2.3,0-4.2-1.9-4.2-4.2s1.9-4.2,4.2-4.2c2.3,0,4.2,1.9,4.2,4.2 S348.6,413.5,346.3,413.5z M125.1,397.3c-3.6,0-6.5,2.9-6.5,6.5s2.9,6.5,6.5,6.5c3.6,0,6.5-2.9,6.5-6.5S128.7,397.3,125.1,397.3z M125.1,408.3c-2.5,0-4.5-2-4.5-4.5c0-2.5,2-4.5,4.5-4.5c2.5,0,4.5,2,4.5,4.5C129.6,406.2,127.6,408.3,125.1,408.3z M38.7,329.5 c0,3.5,2.9,6.4,6.4,6.4s6.4-2.9,6.4-6.4s-2.9-6.4-6.4-6.4S38.7,326,38.7,329.5z M49.5,329.5c0,2.4-2,4.4-4.4,4.4 c-2.4,0-4.4-2-4.4-4.4s2-4.4,4.4-4.4C47.5,325.1,49.5,327.1,49.5,329.5z M49,131.8c2.7,0,4.9-2.2,4.9-4.9S51.7,122,49,122 s-4.9,2.2-4.9,4.9S46.3,131.8,49,131.8z M49,124c1.6,0,2.9,1.3,2.9,2.9s-1.3,2.9-2.9,2.9c-1.6,0-2.9-1.3-2.9-2.9S47.4,124,49,124z M236.5,60.2V45c0-0.6,0.4-1,1-1s1,0.4,1,1v15.2c0,0.6-0.4,1-1,1S236.5,60.7,236.5,60.2z M236.5,110V69.4c0-0.6,0.4-1,1-1s1,0.4,1,1 V110c0,0.6-0.4,1-1,1S236.5,110.6,236.5,110z M250.8,64.8l0.4-4.7c0-0.6,0.5-1,1.1-0.9c0.5,0,1,0.5,0.9,1.1l-0.4,4.7 c0,0.5-0.5,0.9-1,0.9c0,0-0.1,0-0.1,0C251.2,65.9,250.8,65.4,250.8,64.8z M247,110.4l2.1-25.1c0-0.6,0.5-1,1.1-0.9 c0.6,0,1,0.5,0.9,1.1l-2.1,25.1c0,0.5-0.5,0.9-1,0.9c0,0-0.1,0-0.1,0C247.4,111.4,247,110.9,247,110.4z M272.9,55.2l3.7-16.2 c0.1-0.5,0.7-0.9,1.2-0.8c0.5,0.1,0.9,0.7,0.8,1.2l-3.7,16.2c-0.1,0.5-0.5,0.8-1,0.8c-0.1,0-0.1,0-0.2,0 C273.1,56.3,272.8,55.8,272.9,55.2z M270.3,66.9l1-4.5c0.1-0.5,0.7-0.9,1.2-0.8c0.5,0.1,0.9,0.7,0.8,1.2l-1,4.5 c-0.1,0.5-0.5,0.8-1,0.8c-0.1,0-0.1,0-0.2,0C270.5,67.9,270.1,67.4,270.3,66.9z M266.7,82.4l1.8-8c0.1-0.5,0.7-0.9,1.2-0.8 c0.5,0.1,0.9,0.7,0.8,1.2l-1.8,8c-0.1,0.5-0.5,0.8-1,0.8c-0.1,0-0.1,0-0.2,0C266.9,83.5,266.6,82.9,266.7,82.4z M260,112l4.4-19.5 c0.1-0.5,0.7-0.9,1.2-0.8c0.5,0.1,0.9,0.7,0.8,1.2l-4.4,19.5c-0.1,0.5-0.5,0.8-1,0.8c-0.1,0-0.1,0-0.2,0 C260.2,113.1,259.9,112.6,260,112z M291.7,44.7l3.5-12.3c0.2-0.5,0.7-0.8,1.2-0.7c0.5,0.2,0.8,0.7,0.7,1.2l-3.5,12.3 c-0.1,0.4-0.5,0.7-1,0.7c-0.1,0-0.2,0-0.3,0C291.9,45.8,291.6,45.2,291.7,44.7z M283.5,73.6l5.1-18c0.2-0.5,0.7-0.8,1.2-0.7 c0.5,0.2,0.8,0.7,0.7,1.2l-5.1,18c-0.1,0.4-0.5,0.7-1,0.7c-0.1,0-0.2,0-0.3,0C283.6,74.7,283.3,74.1,283.5,73.6z M271.7,114.8 l8.9-31.3c0.2-0.5,0.7-0.8,1.2-0.7c0.5,0.2,0.8,0.7,0.7,1.2l-8.9,31.3c-0.1,0.4-0.5,0.7-1,0.7c-0.1,0-0.2,0-0.3,0 C271.9,115.9,271.6,115.3,271.7,114.8z M320.6,34.7l8.7-20.8c0.2-0.5,0.8-0.7,1.3-0.5c0.5,0.2,0.7,0.8,0.5,1.3l-8.7,20.8 c-0.2,0.4-0.5,0.6-0.9,0.6c-0.1,0-0.3,0-0.4-0.1C320.6,35.8,320.4,35.2,320.6,34.7z M315.9,45.9l1.5-3.7c0.2-0.5,0.8-0.7,1.3-0.5 c0.5,0.2,0.7,0.8,0.5,1.3l-1.5,3.7c-0.2,0.4-0.5,0.6-0.9,0.6c-0.1,0-0.3,0-0.4-0.1C315.9,47,315.7,46.5,315.9,45.9z M295.5,94.7 l16-38.3c0.2-0.5,0.8-0.7,1.3-0.5s0.7,0.8,0.5,1.3l-16,38.3c-0.2,0.4-0.5,0.6-0.9,0.6c-0.1,0-0.3,0-0.4-0.1 C295.5,95.8,295.2,95.2,295.5,94.7z M285.1,119.5l5.7-13.6c0.2-0.5,0.8-0.7,1.3-0.5c0.5,0.2,0.7,0.8,0.5,1.3l-5.7,13.6 c-0.2,0.4-0.5,0.6-0.9,0.6c-0.1,0-0.3,0-0.4-0.1C285.1,120.6,284.9,120,285.1,119.5z M311.6,98.7l2.3-4.1c0.3-0.5,0.9-0.6,1.4-0.4 c0.5,0.3,0.6,0.9,0.4,1.4l-2.3,4.1c-0.2,0.3-0.5,0.5-0.9,0.5c-0.2,0-0.3,0-0.5-0.1C311.5,99.8,311.3,99.1,311.6,98.7z M309.3,106.7 l-11,19.2c-0.2,0.3-0.5,0.5-0.9,0.5c-0.2,0-0.3,0-0.5-0.1c-0.5-0.3-0.6-0.9-0.4-1.4l11-19.2c0.3-0.5,0.9-0.6,1.4-0.4 C309.4,105.6,309.6,106.2,309.3,106.7z M337.5,91.8c-0.5-0.3-0.6-0.9-0.3-1.4l7.8-11.3c0.3-0.5,0.9-0.6,1.4-0.3 c0.5,0.3,0.6,0.9,0.3,1.4l-7.8,11.3c-0.2,0.3-0.5,0.4-0.8,0.4C337.9,91.9,337.7,91.9,337.5,91.8z M331.5,100.4 c0.5,0.3,0.6,0.9,0.3,1.4L320.6,118c-0.2,0.3-0.5,0.4-0.8,0.4c-0.2,0-0.4-0.1-0.6-0.2c-0.5-0.3-0.6-0.9-0.3-1.4l11.2-16.2 C330.5,100.2,331.1,100.1,331.5,100.4z M314.8,124.6c0.5,0.3,0.6,0.9,0.3,1.4l-5.1,7.3c-0.2,0.3-0.5,0.4-0.8,0.4 c-0.2,0-0.4-0.1-0.6-0.2c-0.5-0.3-0.6-0.9-0.3-1.4l5.1-7.3C313.7,124.4,314.3,124.3,314.8,124.6z M317.6,139.3l18.7-21.2 c0.4-0.4,1-0.5,1.4-0.1c0.4,0.4,0.5,1,0.1,1.4l-18.7,21.2c-0.2,0.2-0.5,0.3-0.8,0.3c-0.2,0-0.5-0.1-0.7-0.2 C317.3,140.4,317.2,139.8,317.6,139.3z M376.9,105.4c-0.4-0.4-0.3-1,0.1-1.4l3.8-3.5c0.4-0.4,1-0.3,1.4,0.1c0.4,0.4,0.3,1-0.1,1.4 l-3.8,3.5c-0.2,0.2-0.4,0.3-0.7,0.3C377.3,105.7,377.1,105.6,376.9,105.4z M366.4,113.6l4.5-4.1c0.4-0.4,1-0.3,1.4,0.1 c0.4,0.4,0.3,1-0.1,1.4l-4.5,4.1c-0.2,0.2-0.4,0.3-0.7,0.3c-0.3,0-0.5-0.1-0.7-0.3C365.9,114.6,366,114,366.4,113.6z M358.4,122.3 c-0.4-0.4-0.3-1,0.1-1.4l3.1-2.9c0.4-0.4,1-0.3,1.4,0.1c0.4,0.4,0.3,1-0.1,1.4l-3.1,2.9c-0.2,0.2-0.4,0.3-0.7,0.3 C358.8,122.6,358.6,122.5,358.4,122.3z M327.8,149l24.8-22.7c0.4-0.4,1-0.3,1.4,0.1c0.4,0.4,0.3,1-0.1,1.4l-24.8,22.7 c-0.2,0.2-0.4,0.3-0.7,0.3c-0.3,0-0.5-0.1-0.7-0.3C327.3,150,327.4,149.4,327.8,149z M381.5,121.3l20.4-15.9 c0.4-0.3,1.1-0.3,1.4,0.2s0.3,1.1-0.2,1.4l-20.4,15.9c-0.2,0.1-0.4,0.2-0.6,0.2c-0.3,0-0.6-0.1-0.8-0.4 C381,122.3,381.1,121.6,381.5,121.3z M352.3,144L373,128c0.4-0.3,1.1-0.3,1.4,0.2c0.3,0.4,0.3,1.1-0.2,1.4l-20.7,16.1 c-0.2,0.1-0.4,0.2-0.6,0.2c-0.3,0-0.6-0.1-0.8-0.4C351.8,145,351.9,144.4,352.3,144z M345,151c0.3,0.4,0.3,1.1-0.2,1.4l-8.5,6.6 c-0.2,0.1-0.4,0.2-0.6,0.2c-0.3,0-0.6-0.1-0.8-0.4c-0.3-0.4-0.3-1.1,0.2-1.4l8.5-6.6C344,150.5,344.6,150.6,345,151z M435.3,112.9 c-0.3-0.5-0.1-1.1,0.3-1.4l5.9-3.7c0.5-0.3,1.1-0.1,1.4,0.3c0.3,0.5,0.1,1.1-0.3,1.4l-5.9,3.7c-0.2,0.1-0.3,0.2-0.5,0.2 C435.8,113.3,435.5,113.2,435.3,112.9z M408.5,129.6c-0.3-0.5-0.1-1.1,0.3-1.4l17.6-11c0.5-0.3,1.1-0.1,1.4,0.3 c0.3,0.5,0.1,1.1-0.3,1.4l-17.6,11c-0.2,0.1-0.3,0.2-0.5,0.2C409,130.1,408.7,129.9,408.5,129.6z M401,134.3 c0.3,0.5,0.1,1.1-0.3,1.4l-20.2,12.6c-0.2,0.1-0.3,0.2-0.5,0.2c-0.3,0-0.7-0.2-0.8-0.5c-0.3-0.5-0.1-1.1,0.3-1.4l20.2-12.6 C400.1,133.6,400.7,133.8,401,134.3z M372.3,152.2c0.3,0.5,0.1,1.1-0.3,1.4l-27.7,17.3c-0.2,0.1-0.3,0.2-0.5,0.2 c-0.3,0-0.7-0.2-0.8-0.5c-0.3-0.5-0.1-1.1,0.3-1.4l27.7-17.3C371.3,151.6,372,151.7,372.3,152.2z M369.9,172.5l13.4-6.2 c0.5-0.2,1.1,0,1.3,0.5c0.2,0.5,0,1.1-0.5,1.3l-13.4,6.2c-0.1,0.1-0.3,0.1-0.4,0.1c-0.4,0-0.7-0.2-0.9-0.6 C369.2,173.3,369.4,172.7,369.9,172.5z M362.7,178l-11.9,5.5c-0.1,0.1-0.3,0.1-0.4,0.1c-0.4,0-0.7-0.2-0.9-0.6 c-0.2-0.5,0-1.1,0.5-1.3l11.9-5.5c0.5-0.2,1.1,0,1.3,0.5C363.4,177.2,363.2,177.8,362.7,178z M418.3,173.8l-25.1,8.4 c-0.1,0-0.2,0.1-0.3,0.1c-0.4,0-0.8-0.3-0.9-0.7c-0.2-0.5,0.1-1.1,0.6-1.3l25.1-8.4c0.5-0.2,1.1,0.1,1.3,0.6 C419.1,173.1,418.8,173.7,418.3,173.8z M354,194.4c-0.2-0.5,0.1-1.1,0.6-1.3l29.9-10c0.5-0.2,1.1,0.1,1.3,0.6 c0.2,0.5-0.1,1.1-0.6,1.3l-29.9,10c-0.1,0-0.2,0.1-0.3,0.1C354.5,195.1,354.1,194.8,354,194.4z M385.1,199l-26.6,7.6 c-0.1,0-0.2,0-0.3,0c-0.4,0-0.8-0.3-1-0.7c-0.2-0.5,0.2-1.1,0.7-1.2l26.6-7.6c0.5-0.2,1.1,0.2,1.2,0.7 C385.9,198.3,385.6,198.9,385.1,199z M428,212.4c-0.1-0.5,0.3-1,0.9-1.1l4.2-0.5c0.5-0.1,1,0.3,1.1,0.9c0.1,0.5-0.3,1-0.9,1.1 l-4.2,0.5c0,0-0.1,0-0.1,0C428.5,213.3,428.1,212.9,428,212.4z M419.1,214.4l-15.3,1.8c0,0-0.1,0-0.1,0c-0.5,0-0.9-0.4-1-0.9 c-0.1-0.5,0.3-1,0.9-1.1l15.3-1.8c0.5-0.1,1,0.3,1.1,0.9C420,213.9,419.6,214.4,419.1,214.4z M395.7,216.1c0.1,0.5-0.3,1-0.9,1.1 l-4.8,0.6c0,0-0.1,0-0.1,0c-0.5,0-0.9-0.4-1-0.9c-0.1-0.5,0.3-1,0.9-1.1l4.8-0.6C395.2,215.2,395.7,215.6,395.7,216.1z M360.7,221.2 c-0.5,0-0.9-0.4-1-0.9c-0.1-0.5,0.3-1,0.9-1.1l20.7-2.4c0.5-0.1,1,0.3,1.1,0.9c0.1,0.5-0.3,1-0.9,1.1l-20.7,2.4 C360.8,221.2,360.8,221.2,360.7,221.2z M415.8,228.8c0-0.6,0.4-1,1-1l25.3-0.7c0.5,0,1,0.4,1,1c0,0.6-0.4,1-1,1l-25.3,0.7 c0,0,0,0,0,0C416.3,229.7,415.8,229.3,415.8,228.8z M408.1,230l-16.5,0.4c0,0,0,0,0,0c-0.5,0-1-0.4-1-1c0-0.6,0.4-1,1-1l16.5-0.4 c0,0,0,0,0,0c0.5,0,1,0.4,1,1C409.1,229.5,408.7,230,408.1,230z M382.6,230.6l-21.1,0.6c0,0,0,0,0,0c-0.5,0-1-0.4-1-1 c0-0.6,0.4-1,1-1l21.1-0.6c0,0,0,0,0,0c0.5,0,1,0.4,1,1C383.6,230.2,383.1,230.6,382.6,230.6z M477.3,252.9c0,0.5-0.5,0.9-1,0.9 c0,0-0.1,0-0.1,0l-5.9-0.4c-0.6,0-1-0.5-0.9-1.1c0-0.6,0.5-1,1.1-0.9l5.9,0.4C477,251.9,477.4,252.4,477.3,252.9z M462.1,251.8 c0,0.5-0.5,0.9-1,0.9c0,0-0.1,0-0.1,0l-44.3-3.3c-0.6,0-1-0.5-0.9-1.1c0-0.6,0.5-1,1.1-0.9l44.3,3.3 C461.7,250.7,462.1,251.2,462.1,251.8z M406.4,248.6l-30.9-2.3c-0.6,0-1-0.5-0.9-1.1c0-0.6,0.5-1,1.1-0.9l30.9,2.3 c0.6,0,1,0.5,0.9,1.1C407.5,248.2,407,248.6,406.4,248.6C406.5,248.6,406.4,248.6,406.4,248.6z M360.1,244.1c0-0.6,0.5-1,1.1-0.9 l6,0.4c0.6,0,1,0.5,0.9,1.1c0,0.5-0.5,0.9-1,0.9c0,0-0.1,0-0.1,0l-6-0.4C360.5,245.1,360,244.6,360.1,244.1z M387,265.2 c-0.5-0.1-0.9-0.7-0.7-1.2s0.7-0.9,1.2-0.7l9.8,2.3c0.5,0.1,0.9,0.7,0.7,1.2c-0.1,0.5-0.5,0.8-1,0.8c-0.1,0-0.2,0-0.2,0L387,265.2z M376.2,262.6l-17.2-4.1c-0.5-0.1-0.9-0.7-0.7-1.2s0.7-0.9,1.2-0.7l17.2,4.1c0.5,0.1,0.9,0.7,0.7,1.2c-0.1,0.5-0.5,0.8-1,0.8 C376.3,262.7,376.3,262.7,376.2,262.6z M414.9,290.6l-6.5-2.2c-0.5-0.2-0.8-0.7-0.6-1.3c0.2-0.5,0.7-0.8,1.3-0.6l6.5,2.2 c0.5,0.2,0.8,0.7,0.6,1.3c-0.1,0.4-0.5,0.7-0.9,0.7C415.1,290.6,415,290.6,414.9,290.6z M369.8,274.1c0.2-0.5,0.7-0.8,1.3-0.6 l27.4,9.4c0.5,0.2,0.8,0.7,0.6,1.3c-0.1,0.4-0.5,0.7-0.9,0.7c-0.1,0-0.2,0-0.3-0.1l-27.4-9.4C369.9,275.1,369.6,274.6,369.8,274.1z M355.4,269.1c0.2-0.5,0.7-0.8,1.3-0.6l5.9,2c0.5,0.2,0.8,0.7,0.6,1.3c-0.1,0.4-0.5,0.7-0.9,0.7c-0.1,0-0.2,0-0.3-0.1l-5.9-2 C355.5,270.2,355.2,269.6,355.4,269.1z M378.9,293.9l-27.4-11.2c-0.5-0.2-0.8-0.8-0.5-1.3c0.2-0.5,0.8-0.8,1.3-0.5l27.4,11.2 c0.5,0.2,0.8,0.8,0.5,1.3c-0.2,0.4-0.5,0.6-0.9,0.6C379.2,294,379,294,378.9,293.9z M408.8,331.3l-30.9-18.4 c-0.5-0.3-0.6-0.9-0.3-1.4c0.3-0.5,0.9-0.6,1.4-0.3l30.9,18.4c0.5,0.3,0.6,0.9,0.3,1.4c-0.2,0.3-0.5,0.5-0.9,0.5 C409.1,331.4,409,331.4,408.8,331.3z M347.1,292.1l22.8,13.6c0.5,0.3,0.6,0.9,0.3,1.4c-0.2,0.3-0.5,0.5-0.9,0.5 c-0.2,0-0.4,0-0.5-0.1l-22.8-13.6c-0.5-0.3-0.6-0.9-0.3-1.4C346,292,346.6,291.9,347.1,292.1z M397.8,344.4 c-0.5-0.3-0.6-0.9-0.3-1.4c0.3-0.5,0.9-0.6,1.4-0.3l12.2,8.4c0.5,0.3,0.6,0.9,0.3,1.4c-0.2,0.3-0.5,0.4-0.8,0.4 c-0.2,0-0.4-0.1-0.6-0.2L397.8,344.4z M387.2,334.7l4,2.7c0.5,0.3,0.6,0.9,0.3,1.4c-0.2,0.3-0.5,0.4-0.8,0.4c-0.2,0-0.4-0.1-0.6-0.2 l-4-2.7c-0.5-0.3-0.6-0.9-0.3-1.4C386.2,334.5,386.8,334.4,387.2,334.7z M375.8,329.3l-36.2-24.9c-0.5-0.3-0.6-0.9-0.3-1.4 c0.3-0.5,0.9-0.6,1.4-0.3l36.2,24.9c0.5,0.3,0.6,0.9,0.3,1.4c-0.2,0.3-0.5,0.4-0.8,0.4C376.2,329.4,376,329.4,375.8,329.3z M421,389.3c0.4,0.4,0.5,1,0.1,1.4c-0.2,0.2-0.5,0.3-0.8,0.3c-0.2,0-0.5-0.1-0.7-0.2l-12.9-11.2c-0.4-0.4-0.5-1-0.1-1.4 c0.4-0.4,1-0.5,1.4-0.1L421,389.3z M398.3,369.6c0.4,0.4,0.5,1,0.1,1.4c-0.2,0.2-0.5,0.3-0.8,0.3c-0.2,0-0.5-0.1-0.7-0.2l-25.1-21.8 c-0.4-0.4-0.5-1-0.1-1.4c0.4-0.4,1-0.5,1.4-0.1L398.3,369.6z M365.1,340.9c0.4,0.4,0.5,1,0.1,1.4c-0.2,0.2-0.5,0.3-0.8,0.3 c-0.2,0-0.5-0.1-0.7-0.2l-20.2-17.5c-0.4-0.4-0.5-1-0.1-1.4c0.4-0.4,1-0.5,1.4-0.1L365.1,340.9z M331.7,314.6 c-0.4-0.4-0.5-1-0.1-1.4c0.4-0.4,1-0.5,1.4-0.1l4.7,4.1c0.4,0.4,0.5,1,0.1,1.4c-0.2,0.2-0.5,0.3-0.8,0.3c-0.2,0-0.5-0.1-0.7-0.2 L331.7,314.6z M337.1,341.8c-0.4-0.4-0.3-1,0.1-1.4c0.4-0.4,1-0.3,1.4,0.1l8.8,9.8c0.4,0.4,0.3,1-0.1,1.4c-0.2,0.2-0.4,0.3-0.7,0.3 c-0.3,0-0.5-0.1-0.7-0.3L337.1,341.8z M333.1,334.4c0.4,0.4,0.3,1-0.1,1.4c-0.2,0.2-0.4,0.3-0.7,0.3c-0.3,0-0.5-0.1-0.7-0.3 l-9.7-10.9c-0.4-0.4-0.3-1,0.1-1.4c0.4-0.4,1-0.3,1.4,0.1L333.1,334.4z M354.5,384c0.3,0.4,0.3,1.1-0.2,1.4 c-0.2,0.1-0.4,0.2-0.6,0.2c-0.3,0-0.6-0.1-0.8-0.4l-4.2-5.5c-0.3-0.4-0.3-1.1,0.2-1.4c0.4-0.3,1.1-0.3,1.4,0.2L354.5,384z M343.4,372.8l-7.4-9.6c-0.3-0.4-0.3-1.1,0.2-1.4c0.4-0.3,1.1-0.3,1.4,0.2l7.4,9.6c0.3,0.4,0.3,1.1-0.2,1.4 c-0.2,0.1-0.4,0.2-0.6,0.2C343.9,373.2,343.6,373.1,343.4,372.8z M329.1,354.4l-16.7-21.6c-0.3-0.4-0.3-1.1,0.2-1.4 c0.4-0.3,1.1-0.3,1.4,0.2l16.7,21.6c0.3,0.4,0.3,1.1-0.2,1.4c-0.2,0.1-0.4,0.2-0.6,0.2C329.6,354.8,329.3,354.7,329.1,354.4z M316.1,363l-13.8-23.3c-0.3-0.5-0.1-1.1,0.3-1.4c0.5-0.3,1.1-0.1,1.4,0.3l13.8,23.3c0.3,0.5,0.1,1.1-0.3,1.4 c-0.2,0.1-0.3,0.1-0.5,0.1C316.7,363.5,316.3,363.3,316.1,363z M320.6,410.4c0.2,0.5,0,1.1-0.5,1.3c-0.1,0.1-0.3,0.1-0.4,0.1 c-0.4,0-0.8-0.2-0.9-0.6l-8.3-18.9c-0.2-0.5,0-1.1,0.5-1.3c0.5-0.2,1.1,0,1.3,0.5L320.6,410.4z M307.3,380.2l1.8,4 c0.2,0.5,0,1.1-0.5,1.3c-0.1,0.1-0.3,0.1-0.4,0.1c-0.4,0-0.8-0.2-0.9-0.6l-1.8-4c-0.2-0.5,0-1.1,0.5-1.3 C306.5,379.4,307.1,379.7,307.3,380.2z M303.7,374.4c-0.1,0.1-0.3,0.1-0.4,0.1c-0.4,0-0.8-0.2-0.9-0.6l-6.1-13.8 c-0.2-0.5,0-1.1,0.5-1.3c0.5-0.2,1.1,0,1.3,0.5l6.1,13.8C304.4,373.6,304.2,374.2,303.7,374.4z M290.2,346.2c-0.2-0.5,0-1.1,0.5-1.3 c0.5-0.2,1.1,0,1.3,0.5l2.7,6.1c0.2,0.5,0,1.1-0.5,1.3c-0.1,0.1-0.3,0.1-0.4,0.1c-0.4,0-0.8-0.2-0.9-0.6L290.2,346.2z M309.8,424 c0.2,0.5-0.1,1.1-0.6,1.3c-0.1,0-0.2,0.1-0.4,0.1c-0.4,0-0.8-0.2-0.9-0.6l-4.4-11.3c-0.2-0.5,0.1-1.1,0.6-1.3 c0.5-0.2,1.1,0.1,1.3,0.6L309.8,424z M302.4,404.9c0.2,0.5-0.1,1.1-0.6,1.3c-0.1,0-0.2,0.1-0.4,0.1c-0.4,0-0.8-0.2-0.9-0.6l-12.8-33 c-0.2-0.5,0.1-1.1,0.6-1.3c0.5-0.2,1.1,0.1,1.3,0.6L302.4,404.9z M286.7,364c0.2,0.5-0.1,1.1-0.6,1.3c-0.1,0-0.2,0.1-0.4,0.1 c-0.4,0-0.8-0.2-0.9-0.6l-5.4-14c-0.2-0.5,0.1-1.1,0.6-1.3c0.5-0.2,1.1,0.1,1.3,0.6L286.7,364z M293.1,455.8 c0.1,0.5-0.2,1.1-0.7,1.2c-0.1,0-0.2,0-0.2,0c-0.5,0-0.9-0.3-1-0.8l-4.2-17c-0.1-0.5,0.2-1.1,0.7-1.2c0.5-0.1,1.1,0.2,1.2,0.7 L293.1,455.8z M285.9,426.3c0.1,0.5-0.2,1.1-0.7,1.2c-0.1,0-0.2,0-0.2,0c-0.5,0-0.9-0.3-1-0.8l-4.9-19.9c-0.1-0.5,0.2-1.1,0.7-1.2 c0.5-0.1,1.1,0.2,1.2,0.7L285.9,426.3z M278.9,397.5c0.1,0.5-0.2,1.1-0.7,1.2c-0.1,0-0.2,0-0.2,0c-0.5,0-0.9-0.3-1-0.8l-0.8-3.4 c-0.1-0.5,0.2-1.1,0.7-1.2c0.5-0.1,1.1,0.2,1.2,0.7L278.9,397.5z M275.5,388c-0.1,0-0.2,0-0.2,0c-0.5,0-0.9-0.3-1-0.8l-8-32.6 c-0.1-0.5,0.2-1.1,0.7-1.2c0.5-0.1,1.1,0.2,1.2,0.7l8,32.6C276.4,387.3,276.1,387.9,275.5,388z M257.9,378.9l1.2,14.3 c0,0.6-0.4,1-0.9,1.1c0,0-0.1,0-0.1,0c-0.5,0-1-0.4-1-0.9l-1.2-14.3c0-0.6,0.4-1,0.9-1.1C257.4,377.9,257.8,378.3,257.9,378.9z M256.1,370.4c-0.5,0-1-0.4-1-0.9l-1.1-13.1c0-0.6,0.4-1,0.9-1.1c0.6-0.1,1,0.4,1.1,0.9l1.1,13.1 C257.1,369.9,256.7,370.4,256.1,370.4C256.1,370.4,256.1,370.4,256.1,370.4z M243,413.8l0.2,9.4c0,0.6-0.4,1-1,1c0,0,0,0,0,0 c-0.5,0-1-0.4-1-1l-0.2-9.4c0-0.6,0.4-1,1-1C242.6,412.8,243,413.3,243,413.8z M240.8,404l-0.7-30.5c0-0.6,0.4-1,1-1 c0.5,0,1,0.4,1,1l0.7,30.5c0,0.6-0.4,1-1,1c0,0,0,0,0,0C241.2,405,240.8,404.6,240.8,404z M239.9,364.7l-0.1-6.7c0-0.6,0.4-1,1-1 c0.6,0,1,0.4,1,1l0.1,6.7c0,0.6-0.4,1-1,1c0,0,0,0,0,0C240.4,365.7,240,365.3,239.9,364.7z M229.9,358l-2.1,24.9 c0,0.5-0.5,0.9-1,0.9c0,0-0.1,0-0.1,0c-0.6,0-1-0.5-0.9-1.1l2.1-24.9c0-0.6,0.5-1,1.1-0.9C229.6,357,230,357.5,229.9,358z M204.3,413.3l-3.6,16.1c-0.1,0.5-0.5,0.8-1,0.8c-0.1,0-0.1,0-0.2,0c-0.5-0.1-0.9-0.7-0.8-1.2l3.6-16.1c0.1-0.5,0.7-0.9,1.2-0.8 S204.5,412.8,204.3,413.3z M209,392.3l-2.9,13.2c-0.1,0.5-0.5,0.8-1,0.8c-0.1,0-0.1,0-0.2,0c-0.5-0.1-0.9-0.7-0.8-1.2l2.9-13.2 c0.1-0.5,0.7-0.9,1.2-0.8C208.8,391.2,209.2,391.7,209,392.3z M217,356.6l-5.7,25.3c-0.1,0.5-0.5,0.8-1,0.8c-0.1,0-0.1,0-0.2,0 c-0.5-0.1-0.9-0.7-0.8-1.2l5.7-25.3c0.1-0.5,0.7-0.9,1.2-0.8C216.8,355.5,217.1,356,217,356.6z M188.3,413l-4.9,17.9 c-0.1,0.4-0.5,0.7-1,0.7c-0.1,0-0.2,0-0.3,0c-0.5-0.1-0.8-0.7-0.7-1.2l4.9-17.9c0.1-0.5,0.7-0.8,1.2-0.7 C188.2,411.9,188.5,412.5,188.3,413z M194.1,392.3l-3.1,11.4c-0.1,0.4-0.5,0.7-1,0.7c-0.1,0-0.2,0-0.3,0c-0.5-0.1-0.8-0.7-0.7-1.2 l3.1-11.4c0.1-0.5,0.7-0.8,1.2-0.7C193.9,391.2,194.2,391.7,194.1,392.3z M197.4,380.3l-1.1,4.1c-0.1,0.4-0.5,0.7-1,0.7 c-0.1,0-0.2,0-0.3,0c-0.5-0.1-0.8-0.7-0.7-1.2l1.1-4.1c0.1-0.5,0.7-0.8,1.2-0.7C197.2,379.2,197.5,379.7,197.4,380.3z M198.8,375.1 c-0.1,0.4-0.5,0.7-1,0.7c-0.1,0-0.2,0-0.3,0c-0.5-0.1-0.8-0.7-0.7-1.2l5.9-21.4c0.1-0.5,0.7-0.8,1.2-0.7c0.5,0.1,0.8,0.7,0.7,1.2 L198.8,375.1z M159.9,427.5l-5.3,13.1c-0.2,0.4-0.5,0.6-0.9,0.6c-0.1,0-0.3,0-0.4-0.1c-0.5-0.2-0.8-0.8-0.6-1.3l5.3-13.1 c0.2-0.5,0.8-0.8,1.3-0.6C159.9,426.4,160.1,426.9,159.9,427.5z M173.8,393.1l-10.5,26c-0.2,0.4-0.5,0.6-0.9,0.6 c-0.1,0-0.3,0-0.4-0.1c-0.5-0.2-0.8-0.8-0.6-1.3l10.5-26c0.2-0.5,0.8-0.8,1.3-0.6C173.8,392,174,392.6,173.8,393.1z M187.2,360.1 L176,387.7c-0.2,0.4-0.5,0.6-0.9,0.6c-0.1,0-0.3,0-0.4-0.1c-0.5-0.2-0.8-0.8-0.6-1.3l11.2-27.7c0.2-0.5,0.8-0.8,1.3-0.6 C187.2,359,187.5,359.5,187.2,360.1z M189.2,353.7c-0.1,0-0.3,0-0.4-0.1c-0.5-0.2-0.8-0.8-0.6-1.3l1.6-3.8c0.2-0.5,0.8-0.8,1.3-0.6 c0.5,0.2,0.8,0.8,0.6,1.3l-1.6,3.8C189.9,353.5,189.5,353.7,189.2,353.7z M161.3,374.4c-0.2,0-0.3,0-0.5-0.1 c-0.5-0.3-0.6-0.9-0.4-1.4l7.5-12.8c0.3-0.5,0.9-0.6,1.4-0.4c0.5,0.3,0.6,0.9,0.4,1.4l-7.5,12.8C162,374.2,161.6,374.4,161.3,374.4z M171.7,355.6c-0.5-0.3-0.6-0.9-0.4-1.4l6.7-11.4c0.3-0.5,0.9-0.6,1.4-0.4c0.5,0.3,0.6,0.9,0.4,1.4l-6.7,11.4 c-0.2,0.3-0.5,0.5-0.9,0.5C172,355.7,171.8,355.7,171.7,355.6z M143.2,371.9c0.4,0.3,0.5,1,0.2,1.4l-9.6,13.1 c-0.2,0.3-0.5,0.4-0.8,0.4c-0.2,0-0.4-0.1-0.6-0.2c-0.4-0.3-0.5-1-0.2-1.4l9.6-13.1C142.1,371.7,142.7,371.6,143.2,371.9z M163.8,345.6l-16.2,22.1c-0.2,0.3-0.5,0.4-0.8,0.4c-0.2,0-0.4-0.1-0.6-0.2c-0.4-0.3-0.5-1-0.2-1.4l16.2-22.1c0.3-0.4,1-0.5,1.4-0.2 C164,344.5,164.1,345.2,163.8,345.6z M167.4,340.1c-0.2,0-0.4-0.1-0.6-0.2c-0.4-0.3-0.5-1-0.2-1.4l1.4-1.9c0.3-0.4,1-0.5,1.4-0.2 c0.4,0.3,0.5,1,0.2,1.4l-1.4,1.9C168,339.9,167.7,340.1,167.4,340.1z M140,348.2l17.4-19.6c0.4-0.4,1-0.5,1.4-0.1s0.5,1,0.1,1.4 l-17.4,19.6c-0.2,0.2-0.5,0.3-0.7,0.3c-0.2,0-0.5-0.1-0.7-0.3C139.7,349.2,139.7,348.6,140,348.2z M83.5,377.4 c0.4,0.4,0.3,1-0.1,1.4l-2.9,2.6c-0.2,0.2-0.4,0.3-0.7,0.3c-0.3,0-0.5-0.1-0.7-0.3c-0.4-0.4-0.3-1,0.1-1.4l2.9-2.6 C82.5,377,83.1,377,83.5,377.4z M102.3,360.2c0.4,0.4,0.3,1-0.1,1.4l-7.8,7.2c-0.2,0.2-0.4,0.3-0.7,0.3c-0.3,0-0.5-0.1-0.7-0.3 c-0.4-0.4-0.3-1,0.1-1.4l7.8-7.2C101.3,359.8,101.9,359.8,102.3,360.2z M126.8,339.1l-17.1,15.7c-0.2,0.2-0.4,0.3-0.7,0.3 c-0.3,0-0.5-0.1-0.7-0.3c-0.4-0.4-0.3-1,0.1-1.4l17.1-15.7c0.4-0.4,1-0.3,1.4,0.1C127.2,338.1,127.2,338.7,126.8,339.1z M132.2,332.7c-0.4-0.4-0.3-1,0.1-1.4l14.2-13.1c0.4-0.4,1-0.3,1.4,0.1c0.4,0.4,0.3,1-0.1,1.4l-14.2,13.1c-0.2,0.2-0.4,0.3-0.7,0.3 C132.7,333,132.4,332.9,132.2,332.7z M76.1,355.3c0.3,0.5,0.2,1.1-0.3,1.4l-3,2.1c-0.2,0.1-0.4,0.2-0.6,0.2c-0.3,0-0.6-0.2-0.8-0.4 c-0.3-0.5-0.2-1.1,0.3-1.4l3-2.1C75.2,354.8,75.8,354.9,76.1,355.3z M82.3,351c-0.3-0.5-0.2-1.1,0.3-1.4l17-11.8 c0.5-0.3,1.1-0.2,1.4,0.3c0.3,0.5,0.2,1.1-0.3,1.4l-17,11.8c-0.2,0.1-0.4,0.2-0.6,0.2C82.8,351.4,82.5,351.3,82.3,351z M108,334.2 c-0.3,0-0.6-0.2-0.8-0.4c-0.3-0.5-0.2-1.1,0.3-1.4l20.5-14.2c0.5-0.3,1.1-0.2,1.4,0.3c0.3,0.5,0.2,1.1-0.3,1.4L108.6,334 C108.4,334.1,108.2,334.2,108,334.2z M135.5,315.1c-0.3,0-0.6-0.2-0.8-0.4c-0.3-0.5-0.2-1.1,0.3-1.4l4.7-3.3 c0.5-0.3,1.1-0.2,1.4,0.3c0.3,0.5,0.2,1.1-0.3,1.4l-4.7,3.3C135.9,315.1,135.7,315.1,135.5,315.1z M41.1,355.9 c0.3,0.5,0.1,1.1-0.3,1.4l-5,3c-0.2,0.1-0.3,0.1-0.5,0.1c-0.3,0-0.7-0.2-0.9-0.5c-0.3-0.5-0.1-1.1,0.3-1.4l5-3 C40.2,355.3,40.8,355.4,41.1,355.9z M78.6,334.5L46.2,354c-0.2,0.1-0.3,0.1-0.5,0.1c-0.3,0-0.7-0.2-0.9-0.5 c-0.3-0.5-0.1-1.1,0.3-1.4l32.4-19.5c0.5-0.3,1.1-0.1,1.4,0.3C79.2,333.6,79.1,334.2,78.6,334.5z M106.8,317.6l-18.5,11.1 c-0.2,0.1-0.3,0.1-0.5,0.1c-0.3,0-0.7-0.2-0.9-0.5c-0.3-0.5-0.1-1.1,0.3-1.4l18.5-11.1c0.5-0.3,1.1-0.1,1.4,0.3 C107.4,316.7,107.2,317.3,106.8,317.6z M113,311.5l19.4-11.7c0.5-0.3,1.1-0.1,1.4,0.3c0.3,0.5,0.1,1.1-0.3,1.4L114,313.2 c-0.2,0.1-0.3,0.1-0.5,0.1c-0.3,0-0.7-0.2-0.9-0.5C112.4,312.4,112.5,311.8,113,311.5z M106.4,299.6l-20.8,9.7 c-0.1,0.1-0.3,0.1-0.4,0.1c-0.4,0-0.7-0.2-0.9-0.6c-0.2-0.5,0-1.1,0.5-1.3l20.8-9.7c0.5-0.2,1.1,0,1.3,0.5 C107.1,298.8,106.9,299.4,106.4,299.6z M127.7,288.6c0.2,0.5,0,1.1-0.5,1.3l-13.3,6.2c-0.1,0.1-0.3,0.1-0.4,0.1 c-0.4,0-0.7-0.2-0.9-0.6c-0.2-0.5,0-1.1,0.5-1.3l13.3-6.2C126.9,287.8,127.5,288.1,127.7,288.6z M76.1,292.7l-17.5,6.1 c-0.1,0-0.2,0.1-0.3,0.1c-0.4,0-0.8-0.3-0.9-0.7c-0.2-0.5,0.1-1.1,0.6-1.3l17.5-6.1c0.5-0.2,1.1,0.1,1.3,0.6 C76.9,292,76.7,292.5,76.1,292.7z M101,283c0.2,0.5-0.1,1.1-0.6,1.3l-16.8,5.8c-0.1,0-0.2,0.1-0.3,0.1c-0.4,0-0.8-0.3-0.9-0.7 c-0.2-0.5,0.1-1.1,0.6-1.3l16.8-5.8C100.2,282.2,100.8,282.5,101,283z M107.6,281.7c-0.4,0-0.8-0.3-0.9-0.7 c-0.2-0.5,0.1-1.1,0.6-1.3l13.3-4.6c0.5-0.2,1.1,0.1,1.3,0.6c0.2,0.5-0.1,1.1-0.6,1.3l-13.3,4.6 C107.8,281.7,107.7,281.7,107.6,281.7z M117.5,265.1L88,273.2c-0.1,0-0.2,0-0.3,0c-0.4,0-0.8-0.3-1-0.7c-0.1-0.5,0.2-1.1,0.7-1.2 l29.5-8.1c0.5-0.1,1.1,0.2,1.2,0.7C118.3,264.4,118,265,117.5,265.1z M56.3,257.6l-13.6,1.7c0,0-0.1,0-0.1,0c-0.5,0-0.9-0.4-1-0.9 c-0.1-0.5,0.3-1,0.9-1.1l13.6-1.7c0.6-0.1,1,0.3,1.1,0.9C57.3,257,56.9,257.5,56.3,257.6z M102.6,251.7l-38,4.8c0,0-0.1,0-0.1,0 c-0.5,0-0.9-0.4-1-0.9c-0.1-0.5,0.3-1,0.9-1.1l38-4.8c0.6-0.1,1,0.3,1.1,0.9S103.1,251.7,102.6,251.7z M114.3,248.2 c0.5-0.1,1,0.3,1.1,0.9s-0.3,1-0.9,1.1l-4.4,0.6c0,0-0.1,0-0.1,0c-0.5,0-0.9-0.4-1-0.9c-0.1-0.5,0.3-1,0.9-1.1L114.3,248.2z M44.8,242.1l-16.1,0.7c0,0,0,0,0,0c-0.5,0-1-0.4-1-1c0-0.6,0.4-1,1-1l16.1-0.7c0.5,0,1,0.4,1,1S45.4,242.1,44.8,242.1z M64,241.3 l-9.8,0.4c0,0,0,0,0,0c-0.5,0-1-0.4-1-1c0-0.6,0.4-1,1-1l9.8-0.4c0.6,0,1,0.4,1,1C65,240.8,64.6,241.2,64,241.3z M76.6,238.7 l36.9-1.7c0.5,0,1,0.4,1,1c0,0.6-0.4,1-1,1l-36.9,1.7c0,0,0,0,0,0c-0.5,0-1-0.4-1-1C75.6,239.2,76.1,238.7,76.6,238.7z M27.1,217.2 c-0.1,0.5-0.5,0.9-1,0.9c0,0-0.1,0-0.1,0l-25.1-2.5c-0.5-0.1-0.9-0.5-0.9-1.1s0.5-0.9,1.1-0.9l25.1,2.5 C26.7,216.2,27.1,216.6,27.1,217.2z M31.9,217.7c0.1-0.5,0.5-0.9,1.1-0.9l5.6,0.6c0.5,0.1,0.9,0.5,0.9,1.1c-0.1,0.5-0.5,0.9-1,0.9 c0,0-0.1,0-0.1,0l-5.6-0.6C32.2,218.7,31.8,218.2,31.9,217.7z M47.1,218.2l31.6,3.2c0.5,0.1,0.9,0.5,0.9,1.1c-0.1,0.5-0.5,0.9-1,0.9 c0,0-0.1,0-0.1,0l-31.6-3.2c-0.5-0.1-0.9-0.5-0.9-1.1C46.1,218.6,46.5,218.2,47.1,218.2z M91.3,222.7c0.5,0.1,1,0.5,0.9,1.1 c-0.1,0.5-0.5,0.9-1,0.9c0,0-0.1,0-0.1,0l-3.5-0.4c-0.5-0.1-1-0.5-0.9-1.1c0.1-0.5,0.5-1,1.1-0.9L91.3,222.7z M99.9,224.6 c0.1-0.5,0.5-0.9,1.1-0.9l12.9,1.3c0.5,0.1,0.9,0.5,0.9,1.1c-0.1,0.5-0.5,0.9-1,0.9c0,0-0.1,0-0.1,0l-12.9-1.3 C100.2,225.6,99.8,225.1,99.9,224.6z M80.4,203.9c-0.1,0.5-0.5,0.8-1,0.8c-0.1,0-0.1,0-0.2,0L68,202.2c-0.5-0.1-0.9-0.7-0.8-1.2 c0.1-0.5,0.7-0.9,1.2-0.8l11.2,2.4C80.2,202.8,80.5,203.3,80.4,203.9z M115.3,212.5l-28-6.1c-0.5-0.1-0.9-0.7-0.8-1.2 c0.1-0.5,0.7-0.9,1.2-0.8l28,6.1c0.5,0.1,0.9,0.7,0.8,1.2c-0.1,0.5-0.5,0.8-1,0.8C115.5,212.5,115.4,212.5,115.3,212.5z M54,177.9 c0.2-0.5,0.7-0.8,1.3-0.7l22.7,7.2c0.5,0.2,0.8,0.7,0.7,1.3c-0.1,0.4-0.5,0.7-1,0.7c-0.1,0-0.2,0-0.3,0l-22.7-7.2 C54.1,179,53.8,178.4,54,177.9z M86.4,187.2l14.3,4.6c0.5,0.2,0.8,0.7,0.7,1.3c-0.1,0.4-0.5,0.7-1,0.7c-0.1,0-0.2,0-0.3,0l-14.3-4.6 c-0.5-0.2-0.8-0.7-0.7-1.3C85.3,187.3,85.9,187,86.4,187.2z M118.4,199.4l-8.7-2.8c-0.5-0.2-0.8-0.7-0.6-1.3 c0.2-0.5,0.7-0.8,1.3-0.6l8.7,2.8c0.5,0.2,0.8,0.7,0.6,1.3c-0.1,0.4-0.5,0.7-1,0.7C118.6,199.5,118.5,199.4,118.4,199.4z M121.8,189.2l-22.9-10.1c-0.5-0.2-0.7-0.8-0.5-1.3c0.2-0.5,0.8-0.7,1.3-0.5l22.9,10.1c0.5,0.2,0.7,0.8,0.5,1.3 c-0.2,0.4-0.5,0.6-0.9,0.6C122.1,189.3,121.9,189.3,121.8,189.2z M65,137.9c0.3-0.5,0.9-0.6,1.4-0.4l14.5,8.2 c0.5,0.3,0.7,0.9,0.4,1.4c-0.2,0.3-0.5,0.5-0.9,0.5c-0.2,0-0.3,0-0.5-0.1l-14.5-8.2C64.9,139,64.8,138.4,65,137.9z M117.6,167.6 c-0.2,0.3-0.5,0.5-0.9,0.5c-0.2,0-0.3,0-0.5-0.1l-26.5-15c-0.5-0.3-0.7-0.9-0.4-1.4c0.3-0.5,0.9-0.7,1.4-0.4l26.5,15 C117.7,166.5,117.9,167.1,117.6,167.6z M128.5,174.9l-4.8-2.7c-0.5-0.3-0.7-0.9-0.4-1.4c0.3-0.5,0.9-0.6,1.4-0.4l4.8,2.7 c0.5,0.3,0.7,0.9,0.4,1.4c-0.2,0.3-0.5,0.5-0.9,0.5C128.8,175,128.6,175,128.5,174.9z M66.1,118.2c0.3-0.5,0.9-0.6,1.4-0.3l3.7,2.4 c0.5,0.3,0.6,0.9,0.3,1.4c-0.2,0.3-0.5,0.5-0.8,0.5c-0.2,0-0.4-0.1-0.5-0.2l-3.7-2.4C66,119.3,65.8,118.7,66.1,118.2z M77.6,124.5 l24.2,15.7c0.5,0.3,0.6,0.9,0.3,1.4c-0.2,0.3-0.5,0.5-0.8,0.5c-0.2,0-0.4-0.1-0.5-0.2l-24.2-15.7c-0.5-0.3-0.6-0.9-0.3-1.4 C76.6,124.3,77.2,124.2,77.6,124.5z M135,164.3l-25.9-16.9c-0.5-0.3-0.6-0.9-0.3-1.4c0.3-0.5,0.9-0.6,1.4-0.3l25.9,16.9 c0.5,0.3,0.6,0.9,0.3,1.4c-0.2,0.3-0.5,0.5-0.8,0.5C135.4,164.4,135.2,164.4,135,164.3z M56.2,80.4c-0.4-0.4-0.5-1-0.1-1.4 c0.4-0.4,1-0.5,1.4-0.1l6.6,5.6c0.4,0.4,0.5,1,0.1,1.4c-0.2,0.2-0.5,0.4-0.8,0.4c-0.2,0-0.5-0.1-0.6-0.2L56.2,80.4z M68.5,90.9 c-0.4-0.4-0.5-1-0.1-1.4c0.4-0.4,1-0.5,1.4-0.1l17.9,15.2c0.4,0.4,0.5,1,0.1,1.4c-0.2,0.2-0.5,0.4-0.8,0.4c-0.2,0-0.5-0.1-0.6-0.2 L68.5,90.9z M91,110c-0.4-0.4-0.5-1-0.1-1.4c0.4-0.4,1-0.5,1.4-0.1l4.7,4c0.4,0.4,0.5,1,0.1,1.4c-0.2,0.2-0.5,0.4-0.8,0.4 c-0.2,0-0.5-0.1-0.6-0.2L91,110z M102.2,119.5c-0.4-0.4-0.5-1-0.1-1.4c0.4-0.4,1-0.5,1.4-0.1l15.8,13.4c0.4,0.4,0.5,1,0.1,1.4 c-0.2,0.2-0.5,0.4-0.8,0.4c-0.2,0-0.5-0.1-0.6-0.2L102.2,119.5z M134.2,146.6l-9.4-8c-0.4-0.4-0.5-1-0.1-1.4c0.4-0.4,1-0.5,1.4-0.1 l9.4,8c0.4,0.4,0.5,1,0.1,1.4c-0.2,0.2-0.5,0.4-0.8,0.4C134.6,146.9,134.4,146.8,134.2,146.6z M139.8,148.8l4.3,3.6 c0.4,0.4,0.5,1,0.1,1.4c-0.2,0.2-0.5,0.4-0.8,0.4c-0.2,0-0.5-0.1-0.6-0.2l-4.3-3.6c-0.4-0.4-0.5-1-0.1-1.4S139.4,148.4,139.8,148.8z M151.6,144.5l-23.4-27.5c-0.4-0.4-0.3-1.1,0.1-1.4c0.4-0.4,1.1-0.3,1.4,0.1l23.4,27.5c0.4,0.4,0.3,1.1-0.1,1.4 c-0.2,0.2-0.4,0.2-0.6,0.2C152.1,144.9,151.8,144.8,151.6,144.5z M122.4,81.7c-0.3-0.4-0.2-1.1,0.2-1.4c0.4-0.3,1.1-0.2,1.4,0.2 l7.3,10.2c0.3,0.4,0.2,1.1-0.2,1.4c-0.2,0.1-0.4,0.2-0.6,0.2c-0.3,0-0.6-0.1-0.8-0.4L122.4,81.7z M134.7,99 c-0.3-0.4-0.2-1.1,0.2-1.4c0.4-0.3,1.1-0.2,1.4,0.2l11.9,16.7c0.3,0.4,0.2,1.1-0.2,1.4c-0.2,0.1-0.4,0.2-0.6,0.2 c-0.3,0-0.6-0.1-0.8-0.4L134.7,99z M153.2,124.9c-0.3-0.4-0.2-1.1,0.2-1.4c0.4-0.3,1.1-0.2,1.4,0.2l8.1,11.3 c0.3,0.4,0.2,1.1-0.2,1.4c-0.2,0.1-0.4,0.2-0.6,0.2c-0.3,0-0.6-0.1-0.8-0.4L153.2,124.9z M158.9,102.2c0.5-0.3,1.1-0.1,1.3,0.4 l13.1,25.3c0.3,0.5,0.1,1.1-0.4,1.3c-0.1,0.1-0.3,0.1-0.5,0.1c-0.4,0-0.7-0.2-0.9-0.5l-13.1-25.3 C158.2,103.1,158.4,102.5,158.9,102.2z M153.6,53.8c-0.2-0.5,0-1.1,0.5-1.3c0.5-0.2,1.1,0,1.3,0.5l2.9,6.6c0.2,0.5,0,1.1-0.5,1.3 c-0.1,0.1-0.3,0.1-0.4,0.1c-0.4,0-0.7-0.2-0.9-0.6L153.6,53.8z M159.6,67.3c-0.2-0.5,0-1.1,0.5-1.3c0.5-0.2,1.1,0,1.3,0.5l17.8,39.8 c0.2,0.5,0,1.1-0.5,1.3c-0.1,0.1-0.3,0.1-0.4,0.1c-0.4,0-0.7-0.2-0.9-0.6L159.6,67.3z M185.9,121.2c0.2,0.5,0,1.1-0.5,1.3 c-0.1,0.1-0.3,0.1-0.4,0.1c-0.4,0-0.7-0.2-0.9-0.6l-3.7-8.2c-0.2-0.5,0-1.1,0.5-1.3c0.5-0.2,1.1,0,1.3,0.5L185.9,121.2z M166.5,37.7 c-0.2-0.5,0.1-1.1,0.6-1.3c0.5-0.2,1.1,0.1,1.3,0.6l5,14.5c0.2,0.5-0.1,1.1-0.6,1.3c-0.1,0-0.2,0.1-0.3,0.1c-0.4,0-0.8-0.3-0.9-0.7 L166.5,37.7z M176,65.3c-0.2-0.5,0.1-1.1,0.6-1.3c0.5-0.2,1.1,0.1,1.3,0.6l3.8,11.1c0.2,0.5-0.1,1.1-0.6,1.3c-0.1,0-0.2,0.1-0.3,0.1 c-0.4,0-0.8-0.3-0.9-0.7L176,65.3z M186,90.9c-0.1,0-0.2,0.1-0.3,0.1c-0.4,0-0.8-0.3-0.9-0.7l-2.1-6.2c-0.2-0.5,0.1-1.1,0.6-1.3 c0.5-0.2,1.1,0.1,1.3,0.6l2.1,6.2C186.8,90.1,186.5,90.7,186,90.9z M188.8,96.2l7.3,21c0.2,0.5-0.1,1.1-0.6,1.3 c-0.1,0-0.2,0.1-0.3,0.1c-0.4,0-0.8-0.3-0.9-0.7l-7.3-21c-0.2-0.5,0.1-1.1,0.6-1.3C188.1,95.4,188.7,95.6,188.8,96.2z M180.3,1.2 c-0.1-0.5,0.2-1.1,0.7-1.2c0.5-0.1,1.1,0.2,1.2,0.7l6.9,28.8c0.1,0.5-0.2,1.1-0.7,1.2c-0.1,0-0.2,0-0.2,0c-0.5,0-0.9-0.3-1-0.8 L180.3,1.2z M190.5,43.6c-0.1-0.5,0.2-1.1,0.7-1.2c0.5-0.1,1.1,0.2,1.2,0.7l8.4,35.1c0.1,0.5-0.2,1.1-0.7,1.2c-0.1,0-0.2,0-0.2,0 c-0.5,0-0.9-0.3-1-0.8L190.5,43.6z M201.3,88.5c-0.1-0.5,0.2-1.1,0.7-1.2c0.5-0.1,1.1,0.2,1.2,0.7l6.1,25.2c0.1,0.5-0.2,1.1-0.7,1.2 c-0.1,0-0.2,0-0.2,0c-0.5,0-0.9-0.3-1-0.8L201.3,88.5z M219.7,86.3c0,0-0.1,0-0.1,0c-0.5,0-0.9-0.4-1-0.9l-1.2-10.8 c-0.1-0.5,0.3-1,0.9-1.1c0.5-0.1,1,0.3,1.1,0.9l1.2,10.8C220.6,85.8,220.2,86.3,219.7,86.3z M221.4,111l-2-18.2 c-0.1-0.5,0.3-1,0.9-1.1c0.5-0.1,1,0.3,1.1,0.9l2,18.2c0.1,0.5-0.3,1-0.9,1.1c0,0-0.1,0-0.1,0C221.9,111.9,221.4,111.6,221.4,111z M332.3,268.2c-1.1,0-2-0.9-2-2s0.9-2,2-2s2,0.9,2,2S333.4,268.2,332.3,268.2z M361.4,88.1c0-1.6,1.3-2.8,2.8-2.8s2.8,1.3,2.8,2.8 s-1.3,2.8-2.8,2.8S361.4,89.7,361.4,88.1z M407.1,191.9c1,0,1.8,0.8,1.8,1.8s-0.8,1.8-1.8,1.8c-1,0-1.8-0.8-1.8-1.8 S406.1,191.9,407.1,191.9z M428,275.3c-0.8,0-1.5-0.7-1.5-1.5s0.7-1.5,1.5-1.5s1.5,0.7,1.5,1.5S428.8,275.3,428,275.3z M332.4,387 c0,1.4-1.1,2.5-2.5,2.5s-2.5-1.1-2.5-2.5s1.1-2.5,2.5-2.5S332.4,385.7,332.4,387z M228.5,400.8c0,1.4-1.1,2.5-2.5,2.5 c-1.4,0-2.5-1.1-2.5-2.5s1.1-2.5,2.5-2.5C227.4,398.3,228.5,399.4,228.5,400.8z M69.1,314.1c1.2,0,2.1,0.9,2.1,2.1s-0.9,2.1-2.1,2.1 s-2.1-0.9-2.1-2.1S67.9,314.1,69.1,314.1z M13.7,243.7c0,1.1-0.9,1.9-1.9,1.9s-1.9-0.9-1.9-1.9c0-1.1,0.9-1.9,1.9-1.9 S13.7,242.7,13.7,243.7z M52.7,201c-1.2,0-2.2-1-2.2-2.2s1-2.2,2.2-2.2c1.2,0,2.2,1,2.2,2.2S53.9,201,52.7,201z M102.5,90.1 c0-1.4,1.2-2.6,2.6-2.6c1.4,0,2.6,1.2,2.6,2.6c0,1.4-1.2,2.6-2.6,2.6C103.6,92.8,102.5,91.6,102.5,90.1z"
              style="fill: rgb(128, 69, 125);"/>
    </g>
</svg>