<svg xmlns="http://www.w3.org/2000/svg" xmlns:xlink="http://www.w3.org/1999/xlink" preserveAspectRatio="xMidYMid meet"
     version="1.0" viewBox="-7.6 -0.1 477.4 418.4" zoomAndPan="magnify" style="fill: rgb(0, 0, 0);">
    <g id="__id248_sfe7usortu">
        <path d="M344.1,159.9c-0.3-0.5-0.1-1.1,0.3-1.4c0.5-0.3,1.1-0.1,1.4,0.3c1.6,2.6,3.1,5.2,4.5,7.9 c0.3,0.5,0.1,1.1-0.4,1.3c-0.1,0.1-0.3,0.1-0.5,0.1c-0.4,0-0.7-0.2-0.9-0.5C347.2,165,345.7,162.4,344.1,159.9z M338.4,151.3 c0.2,0.3,0.5,0.4,0.8,0.4c0.2,0,0.4-0.1,0.6-0.2c0.4-0.3,0.5-1,0.2-1.4c-4.1-5.7-8.7-11-13.7-16c-0.4-0.4-1-0.4-1.4,0 c-0.4,0.4-0.4,1,0,1.4C329.8,140.4,334.4,145.7,338.4,151.3z M265.8,101.6c16,4.2,30.8,11.3,44.2,21.1c0.2,0.1,0.4,0.2,0.6,0.2 c0.3,0,0.6-0.1,0.8-0.4c0.3-0.4,0.2-1.1-0.2-1.4c-13.5-10-28.6-17.2-44.8-21.5c-0.5-0.1-1.1,0.2-1.2,0.7 C265,100.9,265.3,101.5,265.8,101.6z M239.7,97.5c2.7,0.1,5.3,0.4,8,0.7c0,0,0.1,0,0.1,0c0.5,0,0.9-0.4,1-0.9c0.1-0.5-0.3-1-0.9-1.1 c-2.7-0.3-5.4-0.5-8.1-0.7c-0.6,0-1,0.4-1.1,0.9C238.8,97,239.2,97.5,239.7,97.5z M136.7,138.4c0.3,0,0.5-0.1,0.7-0.3 c5.4-5.7,11.4-10.9,17.7-15.6c0.4-0.3,0.5-1,0.2-1.4c-0.3-0.4-1-0.5-1.4-0.2c-6.4,4.7-12.5,10-18,15.8c-0.4,0.4-0.4,1,0,1.4 C136.2,138.3,136.4,138.4,136.7,138.4z M127.3,149.4c0.3,0,0.6-0.1,0.8-0.4c0.9-1.2,1.8-2.4,2.8-3.5c0.3-0.4,0.3-1.1-0.1-1.4 c-0.4-0.3-1.1-0.3-1.4,0.1c-1,1.2-1.9,2.4-2.8,3.6c-0.3,0.4-0.2,1.1,0.2,1.4C126.9,149.3,127.1,149.4,127.3,149.4z M100.5,222.4 C100.5,222.4,100.5,222.4,100.5,222.4c0.6,0,1-0.4,1.1-0.9c1.2-22.8,8.3-44.9,20.7-64c0.3-0.5,0.2-1.1-0.3-1.4s-1.1-0.2-1.4,0.3 c-12.5,19.4-19.8,41.9-21,65C99.5,221.9,100,222.3,100.5,222.4z M100.8,239c-0.6,0-1,0.5-0.9,1.1c0.3,3.8,0.8,7.6,1.5,11.3 c0.1,0.5,0.5,0.8,1,0.8c0.1,0,0.1,0,0.2,0c0.5-0.1,0.9-0.6,0.8-1.2c-0.6-3.7-1.1-7.4-1.5-11.1C101.8,239.4,101.4,239,100.8,239z M227.3,359.2c-17.1-0.7-33.7-4.6-49.2-11.6c-0.5-0.2-1.1,0-1.3,0.5c-0.2,0.5,0,1.1,0.5,1.3c15.7,7.2,32.5,11.1,49.9,11.8 c0,0,0,0,0,0c0.5,0,1-0.4,1-1C228.3,359.7,227.9,359.3,227.3,359.2z M244.9,359.8c0.1,0.5,0.5,0.9,1,0.9c0,0,0.1,0,0.1,0 c10.8-1.1,21.4-3.5,31.6-7.2c0.5-0.2,0.8-0.8,0.6-1.3s-0.8-0.8-1.3-0.6c-10,3.6-20.5,6-31.1,7.1 C245.2,358.7,244.8,359.2,244.9,359.8z M297.5,342c-2.3,1.3-4.6,2.6-7,3.7c-0.5,0.2-0.7,0.8-0.5,1.3c0.2,0.4,0.5,0.6,0.9,0.6 c0.1,0,0.3,0,0.4-0.1c2.4-1.2,4.8-2.5,7.1-3.8c0.5-0.3,0.6-0.9,0.4-1.4C298.6,341.9,298,341.8,297.5,342z M306.1,336.6 c-0.5,0.3-0.6,0.9-0.3,1.4c0.2,0.3,0.5,0.4,0.8,0.4c0.2,0,0.4-0.1,0.6-0.2c14.1-9.6,26-21.6,35.5-35.8c0.3-0.5,0.2-1.1-0.3-1.4 c-0.5-0.3-1.1-0.2-1.4,0.3C331.8,315.3,320,327.2,306.1,336.6z M379,242.5c-3.5,36.2-20.2,69.7-47.1,94.4 c-27.2,25-62.6,38.7-99.5,38.7c-38.7,0-75.2-14.9-102.9-41.9c-14.5,2.2-28.3,3.7-41.3,4.3c-5,0.2-9.8,0.4-14.4,0.4 c-40.4,0-65.9-9.4-72.3-26.9c-9.1-25,22.5-62.4,84.5-100.2C94.6,137,157.5,81,232.4,81c34.7,0,67.7,12,94.2,34 c0.1-0.2,0.4-0.4,0.7-0.5c11.6-1.9,22.9-3.4,33.6-4.4c0.6-0.1,1,0.4,1.1,0.9c0,0.6-0.4,1-0.9,1.1c-10.4,1-21.5,2.4-32.8,4.2 c1.7,1.4,3.3,2.9,4.9,4.4c71.9-11.2,120.3-3,129.5,22c7.1,19.5-10.3,46.6-49.1,76.2C403.1,226.9,391.6,234.8,379,242.5z M88,211.9 C88,212,88,212,88,211.9c0,0.1,0,0.1,0,0.1c0,0,0,0,0,0c-0.6,5.4-0.9,10.8-0.9,16.2c0,32.2,10.3,62.6,29.7,88.1 c38.5-6,83.6-18.2,129.7-35c50.4-18.4,96.3-40.5,130.9-62.7c-1.9-28.9-12.2-56.3-30-79.2c-4.6-6-9.8-11.7-15.3-16.9 C305,97.1,269.6,83,232.4,83C158.3,83,96.3,138.4,88,211.9z M387.1,212.2c34.5-23.8,51.5-45.2,46.5-58.8 c-5.4-14.9-35.9-19.8-83.6-13.8c17.1,22.7,27.2,49.5,29.3,77.8C381.9,215.7,384.5,214,387.1,212.2z M85.2,234.1 c-46,28.1-70,54.4-64.2,70.3c5,13.6,31.8,19,73.5,14.9c6.5-0.6,13.2-1.5,20.1-2.5C96.5,292.6,86.4,264.2,85.2,234.1z M129.5,331.7 c0.1,0,0.2-0.1,0.3,0c39.3-6.1,83.4-17.7,128-34c44.5-16.3,85.7-35.8,119.6-56.5c0.1,0,0.1-0.1,0.2-0.1 c12.6-7.7,24.3-15.6,34.7-23.5c38-29.1,55.3-55.3,48.4-73.9c-4.3-11.9-18.6-20-41.3-23.6c-21.8-3.4-51-2.5-84.5,2.6 c4.9,4.7,9.5,9.8,13.7,15.2c49.4-6.4,81-1,86.8,14.9c5.4,14.7-11.4,36.5-47.2,61.2c-35.5,24.5-85.6,49.1-141,69.4 c-55.4,20.3-109.6,33.8-152.5,38c-9.3,0.9-17.9,1.4-25.6,1.4c-28.2,0-45.7-6-49.9-17.6c-6.3-17.2,17.7-43.9,66-73.3 c0-1.2,0-2.3,0-3.5c0-4.8,0.3-9.7,0.7-14.5c-28.8,17.7-51.6,35.8-66.1,52.4c-15,17.3-20.7,32.7-16.3,44.6 c6.8,18.6,36.9,27.6,84.7,25.2C101.1,335.4,115,333.9,129.5,331.7z M376.9,243.8c-33.7,20.4-74.4,39.6-118.3,55.7 c-44,16.1-87.6,27.7-126.5,33.9c27.2,26,62.7,40.3,100.4,40.3c36.5,0,71.3-13.6,98.2-38.2C356.8,311.4,373.1,278.9,376.9,243.8z M265.8,269.5c0.1,0,0.2,0,0.4-0.1c5-2,10-4,14.8-6c0.5-0.2,0.8-0.8,0.5-1.3c-0.2-0.5-0.8-0.8-1.3-0.5c-4.8,2-9.8,4-14.8,6 c-0.5,0.2-0.8,0.8-0.6,1.3C265,269.2,265.4,269.5,265.8,269.5z M240.4,276.9c-0.5,0.2-0.8,0.8-0.6,1.3c0.1,0.4,0.5,0.7,0.9,0.7 c0.1,0,0.2,0,0.3-0.1c1.8-0.6,3.6-1.3,5.4-2c1.7-0.6,3.5-1.3,5.2-1.9c0.5-0.2,0.8-0.8,0.6-1.3c-0.2-0.5-0.8-0.8-1.3-0.6 c-1.7,0.6-3.5,1.3-5.2,1.9C244,275.6,242.2,276.3,240.4,276.9z M150.9,304.3c0.1,0.5,0.5,0.8,1,0.8c0.1,0,0.1,0,0.2,0 c26.1-5.9,53.8-13.9,82.3-23.9c0.5-0.2,0.8-0.8,0.6-1.3c-0.2-0.5-0.8-0.8-1.3-0.6c-28.4,9.9-56,17.9-82.1,23.8 C151.1,303.2,150.7,303.8,150.9,304.3z M34.6,299.8c-1.1-3.1-0.9-6.7,0.7-10.8c0.2-0.5-0.1-1.1-0.6-1.3c-0.5-0.2-1.1,0.1-1.3,0.6 c-1.8,4.5-2,8.6-0.7,12.2c2.9,8,13,12.8,30,14.3c0,0,0.1,0,0.1,0c0.5,0,0.9-0.4,1-0.9c0-0.5-0.4-1-0.9-1.1 C46.9,311.4,37.2,306.9,34.6,299.8z M407.7,146.7c0.4,0,0.8-0.3,1-0.7c0.1-0.5-0.2-1.1-0.7-1.2c-10.7-2.8-25.7-3.4-44.6-1.8 c-0.5,0-1,0.5-0.9,1.1c0,0.5,0.5,1,1.1,0.9c18.7-1.6,33.5-1,43.9,1.7C407.5,146.7,407.6,146.7,407.7,146.7z M463.7,177.3 c-0.5-0.3-1.1-0.2-1.4,0.3c-12.6,19.2-36.4,40.6-68.8,61.7c-0.5,0.3-0.6,0.9-0.3,1.4c0.2,0.3,0.5,0.5,0.8,0.5c0.2,0,0.4-0.1,0.5-0.2 c32.6-21.3,56.6-42.9,69.4-62.3C464.3,178.2,464.1,177.6,463.7,177.3z M279.4,299.1c0.1,0,0.2,0,0.4-0.1 c16.1-6.3,31.8-13.2,46.9-20.3c0.5-0.2,0.7-0.8,0.5-1.3c-0.2-0.5-0.8-0.7-1.3-0.5c-15,7.1-30.7,14-46.8,20.3 c-0.5,0.2-0.8,0.8-0.6,1.3C278.6,298.9,279,299.1,279.4,299.1z M261,306.1c0.1,0,0.2,0,0.3-0.1c2.5-0.9,4.9-1.8,7.3-2.7 c0.5-0.2,0.8-0.8,0.6-1.3c-0.2-0.5-0.8-0.8-1.3-0.6c-2.4,0.9-4.9,1.8-7.3,2.7c-0.5,0.2-0.8,0.8-0.6,1.3 C260.2,305.8,260.6,306.1,261,306.1z M111.5,341c-3.3,0.4-6.5,0.7-9.7,1c-0.6,0-1,0.5-0.9,1.1c0,0.5,0.5,0.9,1,0.9c0,0,0.1,0,0.1,0 c3.2-0.3,6.5-0.6,9.8-1c0.5-0.1,0.9-0.6,0.9-1.1S112,341,111.5,341z M93.2,342.6c-17.9,1.1-34,0.8-47.8-0.9c-0.5-0.1-1,0.3-1.1,0.9 c-0.1,0.5,0.3,1,0.9,1.1c8.4,1.1,17.7,1.6,27.7,1.6c6.5,0,13.3-0.2,20.4-0.7c0.6,0,1-0.5,0.9-1.1C94.2,343,93.7,342.6,93.2,342.6z M8,268.4c0.3,0,0.6-0.1,0.8-0.4c8-10,18.7-20.5,32-31.2c0.4-0.3,0.5-1,0.2-1.4s-1-0.5-1.4-0.2c-13.4,10.8-24.2,21.4-32.3,31.5 c-0.3,0.4-0.3,1.1,0.2,1.4C7.5,268.4,7.7,268.4,8,268.4z M62.7,218.1c-2.4,1.6-4.7,3.3-7,4.9c-0.4,0.3-0.6,0.9-0.2,1.4 c0.2,0.3,0.5,0.4,0.8,0.4c0.2,0,0.4-0.1,0.6-0.2c2.3-1.6,4.6-3.3,7-4.9c0.5-0.3,0.6-0.9,0.3-1.4C63.8,217.9,63.2,217.8,62.7,218.1z M370.7,110.5c0,0.5,0.5,0.9,1,0.9c0,0,0,0,0.1,0c3.1-0.2,6.2-0.4,9.2-0.5c0.6,0,1-0.5,1-1c0-0.6-0.5-1-1-1c-3,0.1-6.2,0.3-9.3,0.5 C371,109.4,370.6,109.9,370.7,110.5z M406.1,241.1c0.2,0,0.4-0.1,0.6-0.2c7.4-5.1,14.4-10.2,20.9-15.3c0.4-0.3,0.5-1,0.2-1.4 c-0.3-0.4-1-0.5-1.4-0.2c-6.4,5.1-13.4,10.2-20.8,15.2c-0.5,0.3-0.6,0.9-0.3,1.4C405.5,241,405.8,241.1,406.1,241.1z M384.8,253.9 c0.2,0.3,0.5,0.5,0.9,0.5c0.2,0,0.4,0,0.5-0.1c2.8-1.7,5.6-3.5,8.4-5.2c0.5-0.3,0.6-0.9,0.3-1.4s-0.9-0.6-1.4-0.3 c-2.7,1.7-5.5,3.5-8.3,5.2C384.7,252.8,384.5,253.4,384.8,253.9z M62.2,349.8c-15.4-0.5-28.9-2.4-40.1-5.5c-0.5-0.1-1.1,0.2-1.2,0.7 c-0.1,0.5,0.2,1.1,0.7,1.2c11.4,3.1,25.1,5,40.6,5.5c0,0,0,0,0,0c0.5,0,1-0.4,1-1C63.2,350.3,62.7,349.8,62.2,349.8z M28,238.5 c0.2,0,0.5-0.1,0.7-0.2c6-5.1,12.6-10.4,19.6-15.5c0.4-0.3,0.5-1,0.2-1.4c-0.3-0.4-1-0.5-1.4-0.2c-7,5.2-13.7,10.4-19.7,15.6 c-0.4,0.4-0.5,1-0.1,1.4C27.4,238.4,27.7,238.5,28,238.5z M308.6,34.2c0-0.5,0.3-0.9,0.8-1c22.8-5.4,27.1-9.6,32.5-32.5 c0.1-0.5,0.5-0.8,1-0.8s0.9,0.3,1,0.8c5.4,22.8,9.6,27.1,32.5,32.5c0.5,0.1,0.8,0.5,0.8,1s-0.3,0.9-0.8,1 c-22.8,5.4-27.1,9.6-32.5,32.5c-0.1,0.5-0.5,0.8-1,0.8s-0.9-0.3-1-0.8c-5.4-22.8-9.6-27.1-32.5-32.5C309,35.1,308.6,34.7,308.6,34.2 z M313.8,34.2c19,4.9,24.1,10,29,29c4.9-19,10-24.1,29-29c-19-4.9-24.1-10-29-29C338,24.2,332.8,29.3,313.8,34.2z M43.1,156.8 c0-0.5,0.3-0.9,0.8-1c9.9-2.3,11.6-4,13.9-13.9c0.1-0.5,0.5-0.8,1-0.8s0.9,0.3,1,0.8c2.3,9.9,4,11.6,13.9,13.9 c0.5,0.1,0.8,0.5,0.8,1s-0.3,0.9-0.8,1c-9.9,2.3-11.6,4-13.9,13.9c-0.1,0.5-0.5,0.8-1,0.8s-0.9-0.3-1-0.8c-2.3-9.9-4-11.6-13.9-13.9 C43.5,157.7,43.1,157.3,43.1,156.8z M48.1,156.8c6.4,1.9,8.8,4.3,10.7,10.7c1.9-6.4,4.3-8.8,10.7-10.7c-6.4-1.9-8.8-4.3-10.7-10.7 C56.9,152.5,54.4,154.9,48.1,156.8z M67.7,68.5c0-0.5,0.4-0.9,0.9-1l21.1-2.8l2.7-21c0.1-0.5,0.5-0.9,1-0.9s0.9,0.4,1,0.9l2.7,21 l21.1,2.7c0.5,0.1,0.9,0.5,0.9,1s-0.4,0.9-0.9,1L97,72.2l-2.7,21.1c-0.1,0.5-0.5,0.9-1,0.9s-0.9-0.4-1-0.9l-2.7-21.1l-21.1-2.7 C68,69.5,67.7,69.1,67.7,68.5z M76.5,68.5l14.1,1.8c0.5,0.1,0.8,0.4,0.9,0.9l1.8,14.2l1.8-14.2c0.1-0.5,0.4-0.8,0.9-0.9l14.1-1.8 L96,66.7c-0.5-0.1-0.8-0.4-0.9-0.9l-1.8-14.1l-1.8,14.1c-0.1,0.5-0.4,0.8-0.9,0.9L76.5,68.5z M439.3,288.2c0,0.5-0.4,0.9-0.9,1 l-21.1,2.7l-2.7,21.1c-0.1,0.5-0.5,0.9-1,0.9s-0.9-0.4-1-0.9l-2.7-21.1l-21.1-2.7c-0.5-0.1-0.9-0.5-0.9-1s0.4-0.9,0.9-1l21.1-2.8 l2.7-21c0.1-0.5,0.5-0.9,1-0.9s0.9,0.4,1,0.9l2.7,21l21.1,2.7C438.9,287.3,439.3,287.7,439.3,288.2z M430.5,288.2l-14.1-1.8 c-0.5-0.1-0.8-0.4-0.9-0.9l-1.8-14.1l-1.8,14.1c-0.1,0.5-0.4,0.8-0.9,0.9l-14.1,1.9l14.1,1.8c0.5,0.1,0.8,0.4,0.9,0.9l1.8,14.2 l1.8-14.2c0.1-0.5,0.4-0.8,0.9-0.9L430.5,288.2z M390,362.9c0,3.4-2.8,6.1-6.1,6.1s-6.1-2.8-6.1-6.1s2.8-6.1,6.1-6.1 S390,359.5,390,362.9z M388,362.9c0-2.3-1.9-4.1-4.1-4.1s-4.1,1.9-4.1,4.1s1.9,4.1,4.1,4.1S388,365.2,388,362.9z M163.7,409.1 c0,5.1-4.1,9.2-9.2,9.2s-9.2-4.1-9.2-9.2s4.1-9.2,9.2-9.2S163.7,404,163.7,409.1z M161.7,409.1c0-4-3.3-7.2-7.2-7.2 c-4,0-7.2,3.3-7.2,7.2c0,4,3.3,7.2,7.2,7.2C158.4,416.4,161.7,413.1,161.7,409.1z M253,40.2c0-3.9,3.2-7,7-7c3.9,0,7,3.2,7,7 s-3.2,7-7,7C256.2,47.3,253,44.1,253,40.2z M255,40.2c0,2.8,2.3,5,5,5c2.8,0,5-2.3,5-5c0-2.8-2.3-5-5-5 C257.3,35.2,255,37.5,255,40.2z M105.8,374.6c-2.9,0-5.2,2.3-5.2,5.2c0,2.9,2.3,5.2,5.2,5.2s5.2-2.3,5.2-5.2 C111,376.9,108.6,374.6,105.8,374.6z M398.3,68.5c2.4,0,4.3-1.9,4.3-4.3c0-2.4-1.9-4.3-4.3-4.3s-4.3,1.9-4.3,4.3 C394,66.6,396,68.5,398.3,68.5z"
              style="fill: rgb(128, 69, 125);"/>
    </g>
</svg>