<?xml version="1.0" encoding="UTF-8"?>
<svg xmlns="http://www.w3.org/2000/svg" xmlns:xlink="http://www.w3.org/1999/xlink" height="485.9"
     preserveAspectRatio="xMidYMid meet" version="1.0" viewBox="-1.9 -0.3 498.3 485.9" width="498.3"
     zoomAndPan="magnify">
    <g id="change1_1">
        <path d="M495.277,8.648l-3.274,5.897c-40.193,72.399-81.754,147.264-112.98,225.393 c-9.019,22.289-17.32,45.696-24.674,69.575c-1.829,6.041-3.629,12.206-5.369,18.168c-1.355,4.643-2.711,9.284-4.093,13.918 c-0.847,2.953-3.771,4.776-6.646,4.238c-1.813,4.051-3.986,6.042-6.608,6.042c-0.436,0-0.882-0.055-1.342-0.164 c-1.527-0.422-2.839-1.492-3.617-2.942c-0.727-1.354-0.882-2.851-0.437-4.214c1.072-3.275,2.139-6.553,3.204-9.831 c3.23-9.939,6.572-20.216,10.056-30.256c4.856-14.39,10.363-29.495,16.376-44.918c-1.545,0.62-3.958,0.633-6.731-2.754l-0.076-0.128 c-1.42-3.488-1.059-7.356-0.709-11.098c0.102-1.084,0.198-2.11,0.253-3.128c-2.292-4.646,1.183-13.187,4.544-21.449 c2.032-4.995,3.958-9.727,4.405-13.137h-0.1l0.885-3.252c1.989-7.218,4.046-14.681,6.543-21.888 c-1.308-16.89-1.992-34.458-2.091-53.695c-1.55-0.883-2.731-2.147-3.345-3.584c-0.101-0.239-0.187-0.47-0.259-0.699 c-6.697,0.661-13.637,2.014-20.352,3.324c-14.855,2.897-30.217,5.893-44.873,1.974c-9.991,1.403-19.979,3.833-29.639,6.185 c-12.976,3.158-26.392,6.423-40.054,7.264c-7.522,4.032-14.889-6.998-19.771-14.308c-1.174-1.759-2.189-3.278-3.057-4.384 c-1.826-2.254-3.466-5.818-4.188-9.054c-17.458,9.756-34.4,20.451-50.372,31.796c0.21,2.195-0.895,4.214-3,5.447 c-2.562,1.499-5.806,1.411-7.89-0.213c-1.65-1.286-2.41-2.88-2.26-4.74c0.869-10.748,33.826-28.861,51.887-38.746 c-0.222-0.542-0.373-1.093-0.452-1.644c-0.411-0.525-0.737-1.093-0.974-1.697c-1.37,0.997-2.724,2.007-4.035,3.013 c0.029,1.778-0.838,3.469-2.355,4.566c-1.657,1.198-3.804,1.488-5.603,0.758c-2.853-1.464-4.261-3.363-4.226-5.663 c0.193-12.551,44.539-33.642,65.85-43.778c4.097-1.948,7.058-3.356,8.375-4.085c75.855-34.942,158.14-55.363,244.6-60.712 c0.73-0.084,1.45-0.046,2.123,0.117c2.257-0.414,4.773,0.625,6.164,2.551C496.366,4.478,496.434,6.642,495.277,8.648z"
              fill="#3E4677"/>
    </g>
    <g id="change2_1">
        <path d="M465.862,22.472c-0.269,1.3-1.005,2.395-2.072,3.082c-12.304,7.922-24.358,16.669-36.016,25.128 l-0.668,0.485c-9.086,6.641-16.344,12.25-22.838,17.648l-0.084,0.057c-1.454,0.775-3.074,2.372-4.789,4.062 c-2.847,2.806-5.969,5.884-9.105,5.884c-1.184,0-2.369-0.438-3.542-1.494l-0.04-0.04c-0.867-0.977-1.312-2.31-1.22-3.658 c0.09-1.329,0.674-2.519,1.644-3.351c12.779-11.192,27.163-22.342,46.634-36.148c7.893-5.598,16.054-11.386,24.497-16.814 c2.295-1.473,5.379-0.868,6.878,1.347C465.874,19.752,466.137,21.14,465.862,22.472z M371.721,97.411 c0.959-0.782,1.545-1.937,1.649-3.251c0.111-1.395-0.334-2.766-1.202-3.739c-0.719-0.912-1.645-1.418-2.751-1.505 c-3.928-0.308-9.291,4.671-14.033,9.062c-2.316,2.145-4.317,3.998-5.763,4.833c-11.158,9.417-22.283,19.646-33.045,30.385 c-0.979,0.871-1.578,2.143-1.646,3.49c-0.067,1.327,0.371,2.576,1.234,3.517c1.005,1.103,2.154,1.662,3.416,1.662 c0.026,0,0.054,0,0.081-0.001c2.473-0.047,4.859-2.268,6.393-4.088c7.523-7.352,14.416-13.792,21.069-19.689 C355.344,110.8,363.782,103.877,371.721,97.411z M384.223,35.542c0.127-1.854-0.842-3.802-2.412-4.846 c-1.428-0.95-3.102-1.028-4.696-0.226c-2.892,1.307-5.785,2.611-8.679,3.916c-11.99,5.404-24.388,10.993-36.481,16.721 c-26.938,12.719-53.756,27.196-79.71,43.029l-0.581,0.354l0.513,0.449c0.071,0.062,0.141,0.127,0.204,0.198 c0.142,0.158,0.276,0.312,0.424,0.506c1.479,1.64,2.766,3.145,3.936,4.599c0.389,0.483,0.773,0.968,1.156,1.456l0.274,0.349 l0.379-0.23c34.39-20.924,72.31-40.185,122.97-62.458C383.148,38.573,384.108,37.218,384.223,35.542z M396.272,131.676 c-1.677-0.07-3.139,0.737-4.083,2.277c-11.307,20.234-20.846,38.33-29.162,55.317c-7.071,14.038-13.098,28.885-18.19,41.697 c-3.287,8.164-6.491,16.519-9.59,24.599c-1.154,3.01-2.308,6.019-3.469,9.024c-0.436,1.13-0.364,2.402,0.202,3.583 c0.609,1.271,1.73,2.272,2.999,2.68c0.483,0.163,0.983,0.244,1.486,0.244c0.751,0,1.506-0.181,2.214-0.537 c1.209-0.607,2.134-1.674,2.527-2.896c1.292-3.332,2.575-6.668,3.859-10.004c3.772-9.803,7.674-19.939,11.718-29.832 c11.992-30.312,27.551-59.188,43.757-88.525c1.002-1.508,1.129-3.17,0.356-4.681C400.033,132.934,398.175,131.749,396.272,131.676z M436.338,80.282c-1.043-0.781-2.401-1.113-3.728-0.914c-1.318,0.199-2.461,0.881-3.218,1.921l-1.008,1.384 c-3.961,5.438-8.058,11.062-12.003,16.594c-1.167,1.338-4.887,5.968-3.773,9.372c0.495,1.512,1.848,2.527,4.02,3.015l0.05,0.009 c0.187,0.022,0.372,0.033,0.558,0.033c1.743,0,3.42-0.963,4.307-2.517l0.006,0.004c3.345-4.916,6.921-9.799,10.381-14.521 c1.813-2.476,3.627-4.951,5.415-7.44C438.952,85.017,438.501,81.904,436.338,80.282z M227.411,109.725 c-4.009,2.249-7.696,5.154-11.262,7.964c-2.192,1.727-4.458,3.513-6.779,5.127c-1.201,0.901-2.396,1.817-3.591,2.73l0.466-1.181 l-1.926,1.355c-1.064,1.104-3.222,2.457-5.506,3.889c-4.563,2.862-9.736,6.106-10.517,9.704c-0.027,0.126-0.027,0.251-0.043,0.376 c-1.139,1.728-1.188,3.975,0.057,5.671c0.79,1.083,2.04,1.81,3.431,1.994c0.227,0.03,0.452,0.044,0.674,0.044 c1.058,0,2.049-0.336,2.843-0.976c6.872-5.503,12.614-10.078,18.708-14.653c2.345-1.708,4.687-3.505,6.952-5.243 c3.787-2.905,7.702-5.909,11.788-8.62c2.015-1.853,1.79-4.447,0.673-6.197C232.259,109.953,229.995,108.65,227.411,109.725z"
              fill="#A16B9F"/>
    </g>
    <g id="change3_1">
        <path d="M376.333,295.291c22.524,43.212,28.551,72.847,17.908,88.07c-7.086,10.137-21.589,13.848-43.109,11.038 c-23.829-2.458-47.064-9.764-66.972-16.418c-7.395-2.592-14.888-5.398-22.916-8.584c-0.965-0.533-1.982-0.924-2.969-1.261 c-2.505,7.409-4.849,14.416-6.968,20.833c-3.825,12.573-7.256,23.928-10.466,35.439c-1.379,3.781-2.708,8.19-4.113,12.859 c-6.235,20.703-14.581,48.398-37.005,48.401c-2.113,0.001-4.348-0.245-6.721-0.766c-9.802-3.341-20.32-13.712-32.21-31.721 c-8.163-9.612-15.324-22.801-21.078-33.398c-2.266-4.173-4.406-8.115-6.291-11.248c-1.077-2.31-2.406-5.078-3.92-8.23 c-2.012-4.192-4.293-8.943-6.709-14.136c-4.014-7.417-8.579-15.854-12.98-24.227c-1.083-2.363-2.335-4.724-3.545-7.006 c-1.033-1.948-2.101-3.961-3.067-5.979c-27.007-7.498-90.47-27.324-102.035-50.76c-0.242-0.608-0.367-1.214-0.39-1.834 c-2.671-8.884,2.056-19.023,6.478-26.87c14.842-22.861,38.379-37.6,61.142-51.853c5.322-3.333,10.824-6.778,16.065-10.241 c2.247-1.327,4.478-2.629,6.711-3.926c-0.6-6.343-0.929-12.566-1.219-18.067c-0.215-4.078-0.401-7.601-0.653-10.265 c-1.538-36.817-1.298-67.543,4.863-97.915c0.76-2.673,1.405-5.905,2.088-9.327c2.12-10.619,4.759-23.834,12.679-28.539 c14.373-5.238,29.623,9.451,40.759,20.174c2.182,2.101,4.243,4.086,6.104,5.737c20.545,20.442,41.483,44.337,65.894,75.197 c4.258-2.45,9.407-3.973,14.392-5.448c3.358-0.994,6.53-1.932,9.322-3.11c29.371-9.029,61.75-13.768,96.287-14.102 c11.084-0.396,26.698,0.085,34.321,8.848c4.447,5.111,5.832,12.624,4.118,22.328c-2.077,14.543-6.554,28.799-10.883,42.586 l-0.732,2.336c-5.45,16.456-11.097,31.115-17.264,44.814C359.172,258.613,367.612,277.644,376.333,295.291z M46.768,173.479 c0.317,0.063,0.648,0.093,0.992,0.093c2.213,0,4.945-1.241,7.719-2.93c0.298,0.53,0.597,1.061,0.893,1.586 c0.508,0.899,1.017,1.799,1.521,2.701l0.002,0.004c0.814,1.426,2.109,2.21,3.645,2.21c0.001,0,0.003,0,0.004,0 c1.691-0.001,3.393-0.995,4.233-2.472c0.766-1.346,0.726-2.865-0.106-4.268c-0.909-1.608-1.843-3.269-2.78-4.958 c0.115-0.087,0.233-0.176,0.347-0.261c1.613-1.217,3.007-2.268,3.963-2.839c1.308-0.987,1.92-2.37,1.723-3.895 c-0.217-1.681-1.42-3.245-2.994-3.89c-1.431-0.586-2.933-0.353-4.219,0.654c-0.969,0.734-1.989,1.492-3.042,2.257 c-0.177-0.488-0.341-0.992-0.498-1.495c-0.848-2.71-1.808-5.783-5.651-5.344c-1.687,0.355-2.833,1.189-3.405,2.479 c-1.38,3.107,1.139,7.857,1.926,9.205c0.029,0.061,0.062,0.12,0.091,0.181c-1.434,0.859-2.907,1.683-4.417,2.44 c-1.3,0.377-2.385,1.395-2.902,2.724c-0.516,1.327-0.41,2.749,0.291,3.9C44.722,172.606,45.618,173.251,46.768,173.479z M47.469,201.617c0.237,0.016,0.471,0.024,0.701,0.024c2.507,0,4.517-0.967,5.707-2.764c1.222-1.845,1.339-4.256,0.307-6.292 c-1.127-2.222-3.425-3.574-6.263-3.706c-2.389-0.321-4.385,0.421-5.614,2.091c-1.355,1.842-1.557,4.603-0.5,6.868 C42.849,200.075,44.912,201.452,47.469,201.617z M404.806,275.43c-0.647-2.351-3.185-3.787-5.537-3.143 c-1.094,0.302-2.187,0.608-3.28,0.912c-0.768-2.795-1.831-5.203-3.594-6.219c-1.064-0.611-2.302-0.679-3.704-0.187 c-1.101,0.443-1.991,1.371-2.442,2.544c-0.459,1.193-0.418,2.501,0.08,3.507c0.269,0.933,0.519,1.879,0.767,2.824 c-1.683,0.468-3.364,0.94-5.049,1.4c-1.142,0.312-2.1,1.063-2.699,2.117c-0.603,1.058-0.76,2.271-0.444,3.419 c0.309,1.139,1.061,2.097,2.118,2.698c0.699,0.397,1.484,0.602,2.262,0.602c0.39,0,0.778-0.052,1.152-0.156 c1.634-0.447,3.265-0.904,4.897-1.358c0.282,1.053,0.566,2.108,0.879,3.148c0.437,1.591,1.499,2.68,2.994,3.066 c0.376,0.097,0.766,0.144,1.156,0.144c1.312,0,2.646-0.528,3.555-1.462c1.076-1.104,1.421-2.578,0.971-4.15l-0.038-0.095 c-0.381-0.726-0.693-1.789-0.98-3.02c1.264-0.352,2.527-0.706,3.793-1.054c1.145-0.315,2.105-1.07,2.703-2.125 C404.966,277.788,405.121,276.576,404.806,275.43z M416.561,294.251c-0.532-2.298-1.839-3.743-3.688-4.074 c-2.381-0.429-5.255,1.067-6.847,3.55c-1.438,2.245-1.437,4.729,0.007,6.82c1.064,1.976,2.825,3.057,4.97,3.057 c0.041,0,0.082,0,0.123-0.001c2.521-0.049,5.021-1.607,6.08-3.79C418.091,297.994,417.86,296.023,416.561,294.251z"
              fill="#FFA953"/>
    </g>
    <g id="change4_1">
        <path d="M213.137,225.962c-1.596,2.328-3.997,3.56-6.8,3.56c-0.841,0-1.718-0.111-2.621-0.336 c-5.315-0.768-7.651-5.864-7.125-10.263c0.448-3.749,3.149-7.318,8.141-6.894c5.06-1.295,7.594,1.029,8.655,2.537 C215.571,217.67,215.464,222.569,213.137,225.962z M155.339,238.787c-5.646,0.28-8.844,4.907-8.986,9.119 c-0.119,3.49,1.876,7.815,7.862,8.52c0.645,0.108,1.271,0.162,1.876,0.162c2.846,0,5.229-1.188,6.829-3.445 c2.078-2.93,2.335-7.138,0.626-10.234C161.967,240.047,159.053,238.592,155.339,238.787z M209.396,237.605 c-0.679-1.442-1.77-2.894-3.242-4.314l-0.003-0.003c-0.244-0.231-0.515-0.427-0.797-0.606c-0.03,0.023-0.053,0.057-0.085,0.075 c-0.376,0.21-0.738,0.442-1.108,0.661c-0.251,0.148-0.508,0.281-0.769,0.405c-0.009,0.005-0.018,0.015-0.027,0.02 c-1.677,0.879-3.34,1.784-4.995,2.699l-0.739,0.406l0.001,0.004c-2.463,1.372-4.97,2.811-7.613,4.373l-2.077,1.222 c-1.312,0.783-2.613,1.58-3.903,2.394c-0.237,0.148-0.471,0.302-0.705,0.455l-0.955,0.616c-0.628,0.402-1.256,0.804-1.877,1.219 l-0.597,0.401c-0.701,0.474-1.399,0.95-2.097,1.428l-1.156,0.789c-1.043,0.71-2.095,1.406-3.152,2.097l-0.336,0.224 c-0.145,0.098-0.291,0.195-0.438,0.289l-0.362,0.233c-0.645,0.41-1.29,0.819-1.931,1.234l-0.286,0.101l0.015,0.082l-0.108,0.069 c-0.197,0.126-0.394,0.252-0.589,0.381l-0.287,0.188l0.074,0.336c0.311,1.418,1.175,2.579,2.38,3.209 c2.471,3.968,7.522,7.789,10.223,9.023c2.786,1.546,5.829,2.33,9.043,2.33c10.172,0,19.056-7.707,20.226-17.55 C211.697,246.92,211.935,241.142,209.396,237.605z"/>
    </g>
    <g id="change5_1">
        <path d="M159.35,265.485c0.376,2.487-0.425,4.937-2.258,6.879c-2.083,2.208-5.283,3.544-8.366,3.544 c-0.318,0-0.635-0.015-0.949-0.043c-4.5-0.716-6.099-2.844-6.654-4.503c-0.863-2.581,0.181-5.823,2.725-8.461 c2.318-2.404,6.32-4.523,10.6-3.268C157.056,260.297,159.025,262.648,159.35,265.485z M237.631,225.414 c-0.329-2.836-2.301-5.184-4.892-5.84c-4.283-1.264-8.289,0.858-10.609,3.265c-2.544,2.638-3.588,5.88-2.726,8.461 c0.555,1.66,2.155,3.788,6.654,4.503c0.314,0.029,0.631,0.043,0.949,0.043c3.083,0,6.283-1.336,8.366-3.544 C237.204,230.362,238.006,227.916,237.631,225.414z"
              fill="#FDD4D2"/>
    </g>
</svg>