<svg xmlns="http://www.w3.org/2000/svg" xmlns:xlink="http://www.w3.org/1999/xlink" preserveAspectRatio="xMidYMid meet" version="1.0" zoomAndPan="magnify" style="fill: rgb(0, 0, 0);" width="382" height="475">
    <rect id="backgroundrect" width="100%" height="100%" x="0" y="0" fill="none" stroke="none" class="selected" style=""/>
    <g class="currentLayer" style="">
        <title>Layer 1</title>
        <g id="__id854_salb0i7gli" class="" transform="rotate(43.810760498046875 190.89384460449216,173.75526428222656) " fill="#d50b0b" fill-opacity="1">
            <path d="M272.0039071812354,35.96019329035667 c-3.867040153088464,-0.4549459003633493 -7.809904622904153,-0.8340674839994726 -11.221998875629268,-1.0615404341811474 C201.79058989182525,31.183261336541513 115.88163903987956,18.899722026731098 72.8892514555431,51.27670526925608 C46.35074060101442,71.37014920197065 52.56833457264686,150.8340331321022 51.279321188284044,182.98354342444551 c-1.5164863345444957,37.153915196340144 -9.705512541084772,107.74635406938641 10.76705297526592,126.09583871737482 c31.770388708707184,28.05499718907317 63.46495310068714,-16.832998313443902 87.42543718649017,-41.24842829961028 c26.311037904347,-26.76598380471035 50.726467890513376,-54.441859410147394 78.85728939631377,-79.46388393013157 c23.505538185439683,-20.92751141671404 49.20998155596888,-41.24842829961028 71.04738477340962,-64.37484490141384 c15.316511978899406,-16.226403779626104 44.053928018517595,-48.37591407196941 30.481375324344363,-72.79134405813579 C321.2138887372043,36.6426121409017 289.2918513950426,38.31074710890064 272.0039071812354,35.96019329035667 z" style="" id="svg_1" fill="#d50b0b" fill-opacity="1"/>
        </g>
        <path fill="#d50b0b" fill-opacity="1" stroke="none" stroke-opacity="1" stroke-width="1" stroke-dasharray="none" stroke-linejoin="miter" stroke-linecap="butt" stroke-dashoffset="" fill-rule="nonzero" opacity="1" marker-start="" marker-mid="" marker-end="" d="M4.918036341667175,285.8301831796462 C4.918036341667175,183.5895546236924 88.42876726685483,100.77464549336986 191.52843507572845,100.77464549336986 C294.6281028846021,100.77464549336986 378.13883380978973,183.5895546236924 378.13883380978973,285.8301831796462 C378.13883380978973,388.07081173560005 294.6281028846021,470.8857208659225 191.52843507572845,470.8857208659225 C88.42876726685483,470.8857208659225 4.918036341667175,388.07081173560005 4.918036341667175,285.8301831796462 z" id="svg_2" class=""/>
        <path fill="#f9bc20" fill-opacity="1" stroke="none" stroke-opacity="1" stroke-width="1" stroke-dasharray="none" stroke-linejoin="miter" stroke-linecap="butt" stroke-dashoffset="" fill-rule="nonzero" opacity="1" marker-start="" marker-mid="" marker-end="" d="M5.711175581595668,199.24290467517295 C5.711175581595668,194.19740579230492 14.16441792342444,190.11055169718185 24.600519580003166,190.11055169718185 C35.03662123658189,190.11055169718185 43.48986357841066,194.19740579230492 43.48986357841066,199.24290467517295 C43.48986357841066,204.28840355804095 35.03662123658189,208.37525765316406 24.600519580003166,208.37525765316406 C14.16441792342444,208.37525765316406 5.711175581595668,204.28840355804095 5.711175581595668,199.24290467517295 z" id="svg_3" class=""/>
        <path fill="#f9bc20" fill-opacity="1" stroke="none" stroke-opacity="1" stroke-width="1" stroke-dasharray="none" stroke-linejoin="miter" stroke-linecap="butt" stroke-dashoffset="" fill-rule="nonzero" opacity="1" marker-start="" marker-mid="" marker-end="" d="M331.79040328136574,199.2011160949251 C331.79040328136574,194.1556172120571 341.1552890513692,190.068763116934 352.71687642174385,190.068763116934 C364.27846379211843,190.068763116934 373.64334956212195,194.1556172120571 373.64334956212195,199.2011160949251 C373.64334956212195,204.24661497779312 364.27846379211843,208.33346907291622 352.71687642174385,208.33346907291622 C341.1552890513692,208.33346907291622 331.79040328136574,204.24661497779312 331.79040328136574,199.2011160949251 z" class="" id="svg_6"/>
        <rect fill="#f9bc20" stroke-dashoffset="" fill-rule="nonzero" id="svg_7" x="27.680314893107592" y="190.11055141687393" width="328.82530790875535" height="18" style="color: rgb(249, 188, 32);" class=""/>
    </g>
</svg>