<svg xmlns="http://www.w3.org/2000/svg" xmlns:xlink="http://www.w3.org/1999/xlink" preserveAspectRatio="xMidYMid meet"
     version="1.0" viewBox="35.8 52.7 637.0 614.1" zoomAndPan="magnify" style="fill: rgb(128, 69, 125);">
    <g>
        <g id="__id196_se5kopv9ee">
            <path d="M650,372.2c-10.1-19.1-20.5-38.1-30.1-57.5c-6.7-13.7-12.5-27.9-19.8-41.4c-1.7-3.2-2.3-3.4-5.7-2.5 c-2.7,0.7-5.2,1.9-7.5,3.4c-6.6,4.2-13.2,8.3-19.8,12.5c-22.3,14.4-45,28.1-65.5,45c-6.5,5.4-12.8,11-18.5,15.9 c-1.4,2-2.5,3-2.9,4.5c-2.5,7.9-5,15.7-7.5,23.6c0-6.8,0-13.6,0-20.4c0-12.1,0-24.3,0-36.4c0-9.1,0.4-18.1,0.6-27.2 c0.2-8.4-0.3-16.7-1.7-25c-0.5-3.3-1.3-6-3.8-8.7c-4.8-5.2-8.9-11.1-13.1-16.8c-26.7-36.1-53.5-72.2-79.1-109.1 c-4.1-6-8.2-12-12.4-17.9c-2.3-3.2-3.4-3.1-5.3,0.2c-3.4,5.9-6.7,11.9-10.2,17.8c-11.1,18.9-21.5,38.1-31.2,57.9 c-12.7,26.1-24.8,52.4-36.8,78.9c-1.8,4.1-4.3,7.9-3.3,12.2c-0.5,5-0.1,9.4,0.3,13.9c0.9,11.7,2.1,23.3,3.1,35 c1.4,15,2.8,29.9,4.7,44.9c-0.4-1.1-0.8-2.1-1.2-3.2c-1.2-3.4-2.8-6.5-5.1-9.1c-5.3-5.9-10.5-12.1-18.2-15.3 c-1.8-0.7-3.5-1.8-5.1-2.9c-16.9-11.3-33.5-22.9-51.2-33c-15.2-8.8-29.6-19-46.5-24.6c-3.7-1.2-7.2-3-10.1-5.7 c-2.4-2.3-3.2-2.2-4.8,0.4c-0.7,1.2-1.2,2.4-1.6,3.7c-6.5,22.1-13.8,44-19.5,66.3c-4.9,18.9-9.9,37.8-15.1,56.6 c-0.8,2.8-0.8,5.3-0.2,8c0.9,3.4,2.1,6.8,2.2,10.3c0.2,8.7,2.4,17,4.6,25.3c4.8,18.3,10.3,36.5,15.6,54.7c-0.1,0-0.3,0.1-0.4,0.1 c3.9,13.5,7.8,27.1,11.7,40.6c2.6,9.2,6,18.2,9.4,27.1c0.5,1.3,0.6,2.7,2.2,3.2c2.2,0.6,3.3,2.6,4.8,4.2 c14.3,15,28.1,30.4,40.3,47.2c4.1,5.6,9,10.2,15.6,12.9c3.4,1.4,6.6,3.3,10,5c17.3,8.5,35.1,15.3,54.1,18.6c8,1.4,7.9,1.4,12-5.2 c2.5-4,5.2-7.8,7.9-11.6c2.1-2.9,4-5.9,5.2-9.2c2.2-6,4.8-11.9,7.1-17.9c5.1-13.1,10.6-26,14.3-39.7c1.7-6.2,3.5-12.4,7.7-17.6 c1-1.3,1.1-2.9,1-4.5c-0.2-1.8-0.2-3.7-0.1-5.5c1.8,2.4,3.6,4.7,5.4,7c1.2,1.5,2.5,2.5,4.3,3.1c4.1,1.2,8.3,2.4,12.4,3.7 c18.5,5.8,36.6,12.8,54.8,19.4c1.4,0.5,2.8,1.2,4.1,1.8c-0.2,0.8-0.4,1.5-0.6,2.3c-0.3,1.2-0.4,2.3-0.1,3.4 c3.4,13.4,5.5,27.1,9.3,40.5c0.7,2.6,2.1,5.1,1.5,8c-0.3,1.3,0.4,2.8,2.1,2.7c6.1-0.4,11.9,1.5,17.7,2.6 c26.5,5.3,52.9,10.8,79.4,16.3c5.1,1,6.7,0.3,8.7-4.3c12.4-29.2,25.9-57.9,39.1-86.8c27.1-59.5,54.7-118.8,81.6-178.4 C656,383.3,657,385.5,650,372.2z M599.8,279.7c2.6,6.1,5.2,12.2,7.8,18.2c0.6,1.4,0.5,2.4-0.9,3.3c-4,2.6-6.6,6.6-9,10.7 C596.6,308.6,597.4,292.3,599.8,279.7z M591.1,287.1c0.7,2,0.3,12.8-0.6,20.7l-0.7,19c-0.6,27.4,0.1,54.8,2.4,82.2 c0.2,2.9,1.3,5.7,0.6,9.2c-19.9-7.2-39.4-13.7-58.6-21.3c-3.6-1.4-7.3-2.7-10.9-4.2c-3-1.2-3.5-2.9-1.8-5.6 c7.5-11.8,15-23.5,22.6-35.2c7.2-11,14.7-21.8,21.9-32.7c0.4-0.7,0.9-1.3,1.4-1.9l13.3-17.3l0,0 C584,295.6,587.4,291.2,591.1,287.1z M504,435.7c2.1-1.6,4.6-2.4,7.2-2.8c5.4-0.9,6.2-0.2,6.9,5.4c2.9,23.8,4.8,47.6,9.4,71.2 c0.5,2.6-0.5,4.5-2.1,6.2c-4.4,4.8-8.8,9.6-13.5,14.1c-5.4,5-10.2,10.6-14.9,16.1c-11.4,13.2-23,26.3-33.9,39.9 c-9.8,12.1-19.3,24.5-27.9,37.5c-1.1,1.6-2.3,3.1-3.5,4.6c0.5-6,2.7-11.2,4.5-16.6c6.6-19.3,11.7-39,18.8-58.1 c4.6-12.5,9.1-25.1,13.7-37.6c1.9-5.3,3.8-10.6,5.8-16c6.1-16.9,12.3-33.7,18.8-50.4C495.3,443.3,499.3,439.3,504,435.7z M500.6,432.6c4-10.7,8.7-21,14.5-30.9c0.3,9.2,0.7,18.4,1.1,28C511.4,429.3,505.9,429.9,500.6,432.6z M521.2,398.9 c22.8,10.7,46.1,17.2,69.9,24.1c-22.3,26.8-41.9,55-61,83.7C526.6,470.9,522.3,435.5,521.2,398.9z M489.4,346.1 c7.9-5.4,15.7-11,23.7-16.2c14.5-9.3,29.2-18.3,43.6-27.7c0.4-0.3,0.8-0.5,1.1-0.7l6.2-3.9c6.8-4.4,13.6-8.7,20.3-13.1 c0.2,0.2,0.3,0.5,0.5,0.7c-5.1,6.8-10.2,13.5-15.5,20.5l-7.3,9.9c-0.3,0.6-0.7,1.2-1.1,1.9c-14.3,20.4-27.2,41.6-39.6,63.1 c-1.9,3.4-4.8,6-6.7,10.6c-4.2-6.7-7.9-12.4-11.4-18.3c-4.6-7.9-9.2-15.7-14.8-22.9C487,347.8,488,347.1,489.4,346.1z M466,278.9 c-0.6,7.5-0.5,15-0.6,22.6c-0.1,8.2,0,16.4,0.1,24.7c0.1,9.6,0.5,19.2,0.7,28.8c0.1,7.2,0.1,14.5,0.2,21.7 c0.1,5.9,0.2,11.8,0.3,17.6c-5.4,17.9-10.7,35.9-15.9,53.9c-3.7,13-7.6,25.9-10.8,39.1c-3.4,14.1-6.2,28.3-11.6,41.8 c-1.6,4-3.2,8-4.5,12c-0.1,0-0.3,0.1-0.5,0.1c-0.9-0.8-0.4-1.8-0.4-2.7c0.2-12,0-23.9-0.5-35.9c-0.2-5.8-0.1-11.7-0.2-17.5 c-0.1-7.9-0.4-15.9-0.4-23.8c0-9.9,0.2-19.8,0.3-29.7c0-11.1-0.1-22.3-0.1-33.4c0.1-11.1-0.1-22.3-1.9-33.3 c-0.5-2.8-0.3-5.6,0.1-8.3c1-6.4,1.3-12.7,1.7-19.1c0.5-7.4,1.6-14.7,3.6-21.8c2.7-10,8.8-18,15.6-25.4c5.4-6,11.3-11.6,18.3-15.8 c1.4-0.8,2.7-2,3.9-3.1c1-0.9,2-1.8,3.5-2.5C467.5,272.4,466.3,275.6,466,278.9z M349.8,489c-6.6-42.4-13.8-84.7-21.2-127 c-2.3-13-4.6-26.1-8.3-38.8c-0.2-0.7-0.4-1.4-0.5-2c-0.4-1.6,0.2-2.2,1.9-2.4c6.5-0.8,13-1.4,19.6-1.9c3.8-0.3,7.5-0.2,12.5,0.2 c14.6-0.1,28.7,5.1,41.9,13.7c13.3,8.7,20.3,20.8,21.5,36.3c0.6,7.3,1.8,14.6,0.7,22.1c-2.6,17.3-4.8,34.7-8,52 c-2.9,15.5-5.6,31-8.5,46.4c-2.8,15.3-7.3,54.3-9.4,54.2c-10.6-0.5-23.3-1-33.9-1.3c-2.1-0.1-3-0.9-3-3c0-0.6-0.2-1.1-0.2-1.7 C355.3,520.1,352.2,504.5,349.8,489z M417.6,346c-0.1,0.9,0,2-1,2.7c-1.2-0.8-1.6-2.2-2.2-3.4c-4.8-9.1-11.5-16.4-20.7-21.2 c-5.5-2.9-11-6-17-7.9c0.1-1.5,1.4-1.7,2.3-2.3c9.3-6.2,15-13.5,16.6-24.3c1.6-10.5,0.1-22.8-1.1-33.3c-0.1-0.7-0.2-1.4,0-2.1 c1.1,0.3,1.2,1.4,1.6,2.2c1.6,3.1,3.3,6.1,5.2,9.1c5.7,8.9,14.1,13.1,24.2,14.7c6,1,11.9,0.7,17.9-0.4c1.1-0.2,2.1-0.7,3.4-0.1 c-0.6,1.5-2,2.3-3.1,3.3c-5.6,4.9-10.4,10.5-14.7,16.5c-6.5,9-8.7,19.5-10.1,30.2C418.2,335.1,417.9,340.5,417.6,346z M366.2,128.6c33.8,44.7,65.2,90.7,100,134c-12.1,11.4-25.7,15.1-41.3,12.9c-7.3-1.1-13.8-3.5-18.5-9.4 c-5.2-6.5-9.2-13.6-11.9-21.5c-4.1-12.3-7.8-24.7-10.3-37.5c-3.5-18.1-9-35.7-13.3-53.6c-1.7-7.2-3.3-14.4-4.9-21.6 C365.9,131,365.5,130.2,366.2,128.6z M358.2,129.5c1.2,0.3,3.2,1.1,3.4,1.7c4.6,20,11,39.5,16,59.3c4.4,17.1,8.6,34.3,12.4,51.6 c2,9.1,2.6,18.4,2.8,27.8c0.1,6.8,0.2,13.7-1.1,20.4c-2.2,11.2-18.8,25.4-22.8,24.6c-15.1-3-46.4,0.5-48.2,0.8 C333.5,252.5,344.9,192,358.2,129.5z M282.5,272.9c15.5-35.7,34.9-69.5,52.3-104.3c4.4-8.7,9-17.3,13.5-26c0.6-1.1,1-2.3,2.6-3.5 c-12.2,58.5-24.4,118.2-33.7,176.6c-1.3,0.6-4-3-4.5-3.5c-3.3-4.3-22.5-26.3-29.4-33.8C281.6,276.5,281.6,275.1,282.5,272.9z M264.4,354.9c-3.6,5.5-8.3,10.3-13.2,15.3c-3.6-3.7-6.8-7.3-10.2-10.7c-11.4-11.5-24.4-21.3-36.9-31.6 c-11.3-9.3-22.7-18.6-33.9-27.9c-1.6-1.3-3.5-2.4-5-5.6C200.1,312.8,231.6,334.4,264.4,354.9z M303.4,566.2c0.3,3.5-0.8,6-2.9,8.5 c-3.9,4.4-7.8,8.7-11.6,13.1s-7.6,8.9-11.2,13.5c-1.5,1.9-2.6,2.6-5.3,1.8c-8.2-2.5-16.5-4.4-25.5-6.8 c17.6-19.4,36.3-36.3,55.4-52.9c1.4,1.7,1.1,3.2,1.1,4.7C303.3,554.2,302.9,560.2,303.4,566.2z M292.2,608.8 c-8.4,5.6-16.8,11.3-25.2,16.9c-0.3-0.3-0.7-0.6-1-0.8c11.7-14.8,23.4-29.6,35.6-45.1c0.5,2.4-0.3,3.7-0.8,5 c-2.5,6.6-5,13.1-6.4,20.1C294.1,606.4,293.7,607.9,292.2,608.8z M298.7,621c-10.8,3.4-21.4,5.8-32,8.9c8.2-5.3,16.4-10.7,24.6-16 c1.3-0.8,2.3-0.4,3,0.7C295.8,616.5,297.1,618.6,298.7,621z M225.5,610.1c-0.7,0.7-1.3,1.4-2,2.1c-1.4,1.3-2.6,1.3-4,0 c-4.5-4.1-8.8-8.4-12.5-13.2c-3.7-4.7-2.6-13.6,1.6-17.9c3.6-3.8,8.3-5.6,13.1-7.3c16.9-6,33-14.1,49.6-20.9 c6.1-2.5,12.3-4.8,18.5-7.1c0.2,0.3,0.4,0.6,0.6,1c-2.4,2.2-4.8,4.4-7.2,6.6C262.9,571.3,244.4,590.9,225.5,610.1z M233.7,622.9 c-3.5-0.9-5.9-2.8-9.2-4.5c2.7-2.7,4.8-4.8,7.7-7.7C232.5,615.3,232.4,618.9,233.7,622.9z M235.6,609.7c0.8-4.8,5.2-7,8.3-10.1 c0.3-0.3,1.5,0.1,2.2,0.3c8.6,2.5,17.2,5,26.4,7.7c-6.2,9-12.2,17.6-18.5,26.6c-5.2-3.3-11.5-4.8-15.3-10.5 C235.7,619.3,234.8,614.7,235.6,609.7z M298.8,538.5c-7.4,1.8-14.5,4.5-21.7,7.2c-10.4,3.9-20.4,8.8-30.7,13 c-15.9,6.6-31.6,13.4-48.1,18.4c-2.4,0.7-4.8,3.9-7.4,1.7c-1.9-1.7-1-4.8-1.4-7.3c-1.9-11-5-21.7-7.9-32.4 c-6.1-21.8-11.1-43.8-15.5-66.1c-3.3-16.4-6.8-32.8-10.2-49.2c-0.5-2.5-0.7-5-1.4-7.5c-0.7-2.5,0.6-3.6,2.7-4.4 c15.7-5.3,30.5-12.9,45.9-19.2c10.6-4.4,21.1-6.5,32.4-2.6c11.3,3.9,19.1,10.6,22.5,22.6c6.1,21.2,13.9,41.8,22.1,62.3 c3,7.4,5.5,15,8.1,22.6c3.8,11.5,7.9,22.9,12.1,34.2c0.3,0.7,0.5,1.5,0.9,2.2C302.3,536.4,301.7,537.8,298.8,538.5z M201.6,592.9 c-3.9-3.3-6.2-6.1-8.7-9.1c3.3-2.2,6.5-2.6,10.1-3.4C202.8,584.5,200.6,587.9,201.6,592.9z M227.1,384.2c6.4-3,12.7-5.9,19.8-9.2 c1.8,6.2,3.8,11.9,4.3,18.3C243.9,388,235.8,386,227.1,384.2z M170.5,306.7c10.7,9.1,21.5,18.1,32.3,27.1 c11.8,9.9,23.7,19.7,34.5,30.8c2.2,2.2,4.2,4.5,6.7,7.2c-7.4,4-14.4,6.6-21.4,9c-20,6.8-39.1,15.6-58.1,24.6 c-2.5,1.2-5.1,2-7.5,3.2c-2.7,1.4-3.6,0.4-3.7-2.1c-0.5-7.6-1.2-15.2-1.4-22.8c-0.7-20.3-1.2-40.5-1.7-60.8 c-0.2-6.8,6.9-15.8,13.6-18C166.6,304,168.4,304.9,170.5,306.7z M161.9,299.6c-5.1,2.6-8.3,6.2-11.8,11.3 c-0.6-8.1-1.1-15-1.6-22.8C153.6,291.9,157.4,295.5,161.9,299.6z M144,294.4c0.2,6.7,0.4,13.5,0.5,20.2 c0.6,29.6,1.9,59.2,5.1,88.7c0.7,6.5,0.7,6.4-5.7,6.4c-11.3,0-22.5-1.5-34.4-0.9C121.8,370.5,131.2,332.1,144,294.4z M154.7,573.4 c-2.4-0.5-3-2.4-3.5-4.2c-2.7-9-5.5-17.9-7.8-27c-3.6-14.2-6.9-28.4-10.7-42.5c-4.1-14.9-8.2-29.7-11.6-44.8 c-2.8-12.6-5.7-25.1-10-37.2c-0.6-1.6-1-3.3-1.7-6c3.6,0.1,6.1,0.1,8.6,0.3c9.7,0.7,19.4,1.7,29.2,2.3c3,0.2,4,1.3,4.3,4.1 c2.2,19.6,6.4,38.8,9.7,58.2c5.4,32.4,14.6,63.9,23.7,95.4c0.6,2.2,2,4.3,0.7,7.2C175.2,577.4,164.9,575.7,154.7,573.4z M202.7,629.5c-1.8-2.3-3.8-4.5-5.5-6.8c-10.4-13.9-22.2-26.7-34.8-38.7c-1.5-1.4-3.1-2.7-4.3-5.4c7.4,1.6,14.1,3.9,21,4.4 c8.4,0.6,13.6,4.8,18.3,11.3c5.6,7.7,11.7,15.2,18.5,21.9c1.5,1.5,1.4,2.4,0,3.8c-3.2,3.2-6.3,6.4-9.4,9.7 C205.1,631,203.9,631.1,202.7,629.5z M225.5,642c-5.9-2.3-12-4.2-18-7.7c4.3-4.1,8.3-7.8,12.1-11.5c1.7-1.7,3.3-1.8,5.2-0.5 c5,3.4,10.9,5.3,15.6,9.2c1.4,1.1,3,1.7,4.8,1.9c2.2,0.3,3.8,1.6,5.5,3.3c-4.4,2.6-9,2.4-13.2,3.3c-1.5,0.3-3.1,0.5-4.6,0.5 C230.2,640.4,228.1,643.1,225.5,642z M298.4,635.5c-4.2,7.7-9.3,14.9-14.4,22c-1.3,1.8-2.5,2.5-4.9,1.8c-14-4.3-28.1-8.2-43-13.6 c21.2-8.9,42.5-14.1,64.3-19.6C301,629.9,299.9,632.8,298.4,635.5z M304,618.4c-0.4,0.1-0.8,0.2-1.2,0.3c-2.2-2.6-4.4-5.3-6.6-7.9 c-0.7-0.8-1-1.8-0.5-2.7c3.6-7,4.3-14.9,6.9-22.3c0.1-0.3,0.5-0.5,1.4-1.5C304.7,596.2,304.8,607.3,304,618.4z M296.7,505.6 c-4.8-17.1-10.9-33.8-16.9-50.5c-5.5-15.4-10.8-31-14.8-46.9c-2.7-10.4-6.4-20.5-11.2-30c-1.5-2.9-1.1-4.7,1.7-6.8 c4-3,7.7-6.6,11-10.5c2.4-2.9,4.2-2.6,5.9,0.8c0.2,0.3,0.3,0.7,0.4,1.1c2.3,12.1,7.5,23.4,11,35.2c2.2,7.6,4.4,15.2,6.6,22.8 c1.8,6.2,3.7,12.4,5.6,18.5c0.4,1.2,0.8,2.4,1.2,3.6c4.2,12.8,9,25.3,13,38.2c4.4,14,8.1,28.2,12.4,42.1 c1.7,5.4,3.7,10.6,5.7,16.6c-0.5-0.1-1-0.1-1.5-0.2c-2.4-0.4-4.7-1-6.9-1.5c-4.1-1-8-2-12.1-1.7c-1.8,0.1-1.9-1.6-2.4-2.9 C301.9,524.4,299.3,515,296.7,505.6z M308.6,605.9c0.2-20.6-2.5-41-2.5-62.3c7.4,6.8,10.8,16.4,19.8,21 C318.5,577.7,315.7,592.6,308.6,605.9z M328.5,547.6c-0.2,0.7-0.3,1.3-0.5,2c-0.7,2.9-1.3,6-2,9.3c-5.7-5.5-10.9-10.5-16-15.6 c-0.7-0.7-1.4-1.4-1.9-2.2c-0.8-1.4,0-2.2,1.4-2.3c0.6,0,1.2,0.2,1.7,0.3c4,1.2,8,2.5,12,3.7c1.1,0.3,2.1,0.6,3.2,0.9 C328.5,544.4,329.1,545.3,328.5,547.6z M339.8,557.7c-2.6-3.7-5.3-7.3-7.9-11c0.1-0.5,0.2-0.9,0.2-1.4c0.5-2.6,0.2-5-0.5-7.5 c-1.5-5.1-3.3-10.1-4.2-15.3c-2.5-13.6-5.6-27.1-9.4-40.5c-7.3-25.8-16.5-51-23.6-76.8c-0.8-3-1.7-6.1-2.7-9.1 c0-0.3,0-0.5-0.1-0.8c-1.7-15.6-3.6-31.2-4.8-46.9c-1-11.8-1.9-23.6-3.1-35.3c-0.9-9.7-0.9-19.5-2.8-29.1 c-0.1-0.5-0.2-1.1,0.4-1.5c1.3,0.3,2,1.4,2.7,2.4c8.1,9.8,16.8,19.1,25.2,28.6c1.4,1.6,7.3,6.3,7.7,8.2c3.2,14.1,4.5,28.6,7,42.9 c3.8,21.4,7.5,42.8,11,64.3c5.5,33.1,11.3,66.2,15.5,99.5c0.5,4,0.6,8,1,12c0.2,1.8-1,2.9-1.9,4 C346.3,548.8,342.8,553.1,339.8,557.7z M409.6,581.4c-21.8-7.8-43.3-16.2-66.6-21.2c3.3-4.8,6.2-9,9.1-13.3 c0.8-1.2,1.8-1.6,3.1-1.7c11.8-1,23.6-1,35.5-0.2c1.3,0.1,2.3,0.4,2.9,1.8c5.3,11.2,10.7,22.3,16.1,33.5 C409.8,580.6,409.7,580.8,409.6,581.4z M411.5,573.6c-5.2-8.8-9-17.6-14.2-26.4c-0.7-1.1-1-2-0.6-3.4c4.2-13.9,4.6-28.3,7.2-42.5 c2.8-14.9,5.4-29.8,7.9-44.8c1.7-10,2.9-20.1,4.4-30.2c0.1-0.7-0.1-1.4,0.5-2c0.5,0.9,0.2,1.9,0.2,2.9c-0.2,11.4-1.1,22.8-1,34.3 c0,10.6,1.2,21.2,1.4,31.7c0.1,6.4,0.2,12.8,0.3,19.2c0.3,20-0.1,40-1.2,60c0,0.4,0,0.7-0.1,1.1c0,0.7-0.3,1.3-0.7,2 c-0.4,0.7-0.8,1.5-1.1,2.3C412.9,576.5,412.3,574.9,411.5,573.6z M425.1,633.1c-3.5-13.1-6.8-26-10.6-38.8c-0.4-1.5,0-2.9,0.4-4.3 c0-0.1,0.1-0.2,0.1-0.3c2.3-7.5,4.7-15.1,7-22.6c2.4-7.8,4.8-15.5,7.3-23.3c1-3.3,2-6.6,3.1-9.8c6-19.4,12-38.8,17.9-58.2 c5.7-18.7,10.4-37.7,15.7-56.5c0.4-1.4,0.8-2.9,1.2-4.3c1.7-6.2,3.5-12.5,5.4-18.7c0.5-1.6,0.9-3.1,1.4-4.7 c2.8-8.9,4.6-18,5.6-27.2c0.4-3.9,1.2-7.7,3.1-11.4c3.4,2.5,5.2,6,7.5,9.1c7,9.6,13.8,19.3,21.3,28.6c1.2,1.5,1.7,2.7,0.6,4.8 c-13.6,25.1-23.6,51.8-33.2,78.6c-1.7,4.7-3.4,9.5-5.1,14.2c-1.1,3.1-2.3,6.2-3.4,9.3c-1.1,3-2.2,6-3.2,8.9 c-0.6,1.7-1.2,3.4-1.9,5.1c-0.8,2.2-1.6,4.3-2.4,6.5c-2.1,5.8-4.1,11.5-6.2,17.3c-2.8,7.9-5.6,15.8-8.2,23.7 c-7.8,23-14.6,46.2-21.9,69.4C426,630,425.5,631.6,425.1,633.1z M522.6,660.1c-4-0.1-7.4-0.7-10.8-1.6 c-26.6-6.9-53.5-12.6-80.6-17.1c-0.8-0.1-1.6-0.3-2.4-0.5c-1.4-0.4-1.9-1.2-1-2.5c0.2-0.3,0.4-0.5,0.6-0.8 c7.1-7.8,13.1-16.6,19.6-24.9c14.7-18.9,30.8-36.6,46.2-54.9c3.7-4.5,7-9.4,11-13.7c5-5.3,10.3-10.4,15.3-15.7 c1.9-2,3.3-4.4,5-6.6c0.5-0.7,0.8-1.8,2.6-1.7C523.9,566.6,522.1,613.1,522.6,660.1z M647.1,392.5c-2.1,3.7-4.3,7.3-6.3,11 c-6.1,11.7-12.1,23.4-17.2,35.6c-9.6,23-20.6,45.3-31.3,67.8c-4.4,9.1-9.5,17.8-13.6,27c-6.5,14.4-14.3,28.1-20.3,42.7 c-5.7,14-12.3,27.6-17.5,41.9c-3.6,10.1-8.8,19.5-12.4,29.7c-0.1,0.4-0.6,0.7-1.3,1.4c0.1-6.9,0.2-13.3,0.3-19.8 c0.7-34.7,1-69.3,4.1-103.9c0.5-5.2,1.8-10.3,1.4-15.5c-0.2-2,1.4-3.3,2.4-4.7c5.4-7.3,10.8-14.6,16.2-22 c8.1-11.2,16.1-22.4,24.3-33.5c1.6-2.2,3.3-4.4,5.2-6.5c5.8-6.5,10.8-13.5,16.2-20.2c0.8-1,1.9-1.8,2.9-2.5 c12.4-8.7,24.8-17.3,37.1-26c1.9-1.3,3.9-2.4,5.3-4.2c0.4-0.5,1-0.8,1.6-1.1c1.1-0.5,2.3-0.6,3.2,0.3 C648.2,390.6,647.6,391.6,647.1,392.5z M645.1,382.2c-15,10.9-29.9,21.8-44.1,33.7c-1,0.8-2.1,1.4-3.8,2.4 c-0.3-5.1-0.8-9.8-0.8-14.4c-0.4-24.2-0.6-48.5-0.2-72.7c0.2-9.3,4.2-17.3,9.2-24.8c1-1.5,2.4-2.6,4.4-3.1 c3.4,7.3,6.8,14.7,10.4,22c8.3,17.1,16.8,34.2,26.4,50.6C648.1,378.7,649.1,379.2,645.1,382.2z"
                  style="fill: inherit;"/>
        </g>
        <g id="__id197_se5kopv9ee">
            <path d="M223.4 195.6L254.9 189.3 223.4 182.5 233.2 167.6 218.2 177.6 211.8 145.3 205.8 177.6 190.6 167.8 199.8 183.3 168.9 188.6 199.3 195.1 190.4 209.9 205.8 200.2 212.2 232.2 218.2 201.1 234 210.6z"
                  style="fill: rgb(255, 255, 255);"/>
        </g>
        <g>
            <g>
                <g id="__id198_se5kopv9ee">
                    <path d="M471,87.4c-33.1-0.9-33.8-1.6-34.7-34.7c-0.9,33.1-1.6,33.8-34.7,34.7c33.1,0.9,33.8,1.6,34.7,34.7 C437.1,89,437.9,88.3,471,87.4"
                          style="fill: rgb(255, 255, 255);"/>
                </g>
            </g>
        </g>
        <g>
            <g id="__id199_se5kopv9ee">
                <path d="M566.5,142.9c-21.6-1.7-22.1-2.2-21.5-23.9c-1.7,21.6-2.2,22-23.9,21.5c21.6,1.7,22.1,2.2,21.5,23.9 C544.3,142.8,544.8,142.4,566.5,142.9"
                      style="fill: rgb(255, 255, 255);"/>
            </g>
        </g>
        <g>
            <g id="__id200_se5kopv9ee">
                <path d="M81.2,451.2c-21.6-1-22.1-1.5-22.3-23.1c-1,21.6-1.5,22.1-23.1,22.3c21.6,1,22.1,1.5,22.3,23.1 C59.1,451.8,59.6,451.4,81.2,451.2"
                      style="fill: rgb(255, 255, 255);"/>
            </g>
        </g>
        <g>
            <g>
                <g id="__id201_se5kopv9ee">
                    <path d="M237,235.3c-1.7,28.1-2.3,28.7-30.5,28.6c28.1,1.7,28.7,2.3,28.6,30.5c1.7-28.1,2.3-28.7,30.5-28.6 C237.5,264.1,236.9,263.5,237,235.3"
                          style="fill: rgb(255, 255, 255);"/>
                </g>
            </g>
        </g>
        <g>
            <g>
                <g id="__id202_se5kopv9ee">
                    <path d="M633.2,489c-0.4,28.2-1,28.8-29.2,29.9c28.2,0.4,28.8,1,29.9,29.2c0.4-28.2,1-28.8,29.2-29.9 C634.9,517.8,634.3,517.2,633.2,489"
                          style="fill: rgb(255, 255, 255);"/>
                </g>
            </g>
        </g>
        <g>
            <g>
                <g id="__id203_se5kopv9ee">
                    <path d="M530.1,254.8c-2.4-19.9-5.1-23-24.6-27.9c19.9-2.4,23-5.1,27.9-24.6c2.4,19.9,5.1,23,24.6,27.9 C538.1,232.6,535,235.3,530.1,254.8z"
                          style="fill: rgb(255, 255, 255);"/>
                </g>
            </g>
        </g>
        <g>
            <g>
                <g id="__id204_se5kopv9ee">
                    <path d="M310.4,133.5c-12.6,1.8-14.6,3.6-17.4,16c-1.8-12.6-3.6-14.6-16-17.4c12.6-1.8,14.6-3.6,17.4-16 C296.2,128.7,298,130.6,310.4,133.5z"
                          style="fill: rgb(255, 255, 255);"/>
                </g>
            </g>
        </g>
        <g id="__id205_se5kopv9ee">
            <path d="M580,203.8c-4.1-0.3-7.2-3.8-6.9-7.9c0.3-4.1,3.8-7.2,7.9-6.9c4.1,0.3,7.2,3.8,6.9,7.9 C587.6,201,584.1,204.1,580,203.8z"
                  style="fill: rgb(255, 255, 255);"/>
        </g>
        <g id="__id206_se5kopv9ee">
            <path d="M82.5,403.4c-4.1-0.3-7.2-3.8-6.9-7.9c0.3-4.1,3.8-7.2,7.9-6.9c4.1,0.3,7.2,3.8,6.9,7.9 C90.2,400.5,86.6,403.6,82.5,403.4z"
                  style="fill: rgb(255, 255, 255);"/>
        </g>
        <g>
            <g id="__id207_se5kopv9ee">
                <path d="M466.8,131.6c0-0.2,0-0.4,0-0.6c0.3-5.2,4.8-9.2,10.1-8.9c2.5,0.2,4.8,1.3,6.5,3.2c1.7,1.9,2.5,4.3,2.3,6.9 c-0.2,2.5-1.3,4.8-3.2,6.5c-1.9,1.7-4.3,2.5-6.9,2.3C470.7,140.7,466.8,136.5,466.8,131.6z M483.1,131.5c0-1.7-0.6-3.2-1.7-4.5 c-1.2-1.4-2.9-2.2-4.7-2.3c-3.7-0.2-7,2.6-7.2,6.4c-0.3,3.8,2.6,7,6.4,7.2c1.8,0.1,3.6-0.5,4.9-1.7c1.4-1.2,2.2-2.9,2.3-4.7 C483.1,131.8,483.1,131.7,483.1,131.5z"
                      style="fill: rgb(255, 255, 255);"/>
            </g>
        </g>
        <g id="__id208_se5kopv9ee">
            <path d="M155.2,248.1c-6.8,0-12.3-5.5-12.3-12.3c0-6.8,5.5-12.3,12.3-12.3s12.3,5.5,12.3,12.3 C167.5,242.6,161.9,248.1,155.2,248.1z M155.2,226.5c-5.1,0-9.3,4.2-9.3,9.3c0,5.1,4.2,9.3,9.3,9.3s9.3-4.2,9.3-9.3 C164.5,230.7,160.3,226.5,155.2,226.5z"
                  style="fill: inherit;"/>
        </g>
        <g id="__id209_se5kopv9ee">
            <path d="M660.5,487.8c-6.8,0-12.3-5.5-12.3-12.3c0-6.8,5.5-12.3,12.3-12.3s12.3,5.5,12.3,12.3 C672.8,482.3,667.3,487.8,660.5,487.8z M660.5,466.2c-5.1,0-9.3,4.2-9.3,9.3c0,5.1,4.2,9.3,9.3,9.3s9.3-4.2,9.3-9.3 C669.8,470.4,665.6,466.2,660.5,466.2z"
                  style="fill: inherit;"/>
        </g>
    </g>
</svg>